<svg width="407" height="92" viewBox="0 0 407 92" fill="none" xmlns="http://www.w3.org/2000/svg">
<g clip-path="url(#clip0)">
<path d="M407.27 91.28H0.359985V4.89001C0.359985 2.13001 2.59999 -0.109985 5.35999 -0.109985H402.26C405.02 -0.109985 407.26 2.13001 407.26 4.89001V91.28H407.27Z" fill="#50B68D"/>
<path d="M407.12 91.2199H28.51V20.3199C28.51 17.8999 30.47 15.9399 32.89 15.9399H407.13V91.2199H407.12Z" fill="white"/>
<path d="M71.3892 34.9207H74.245L78.3551 47.444H75.9431L75.0747 44.7425H70.4244L69.5367 47.444H67.1247L71.3892 34.9207ZM71.0032 43.0251H74.5152L72.7785 37.6415L71.0032 43.0251ZM84.1435 37.8152C84.7353 37.8152 85.2627 37.9181 85.7258 38.1239C86.2018 38.3169 86.6006 38.5741 86.9222 38.8958C87.5654 39.5132 87.9449 40.2915 88.0606 41.2306L85.7644 41.2885C85.6615 40.8768 85.4685 40.5359 85.1855 40.2658C84.9154 39.9956 84.6002 39.8606 84.24 39.8606C83.8798 39.8606 83.5711 39.9185 83.3138 40.0342C83.0565 40.1371 82.8314 40.3044 82.6384 40.5359C82.201 41.0762 81.9823 41.8223 81.9823 42.7743C81.9823 43.7262 82.1882 44.4466 82.5998 44.9355C83.0115 45.4114 83.5067 45.6494 84.0856 45.6494C84.6774 45.6494 85.1019 45.5143 85.3592 45.2442C85.6293 44.9612 85.7644 44.5817 85.7644 44.1057H88.0606C88.0606 45.1349 87.7197 45.9903 87.0379 46.6721C86.3433 47.3668 85.372 47.7141 84.1242 47.7141C82.8893 47.7141 81.8537 47.2639 81.0175 46.3634C80.1299 45.3986 79.6861 44.1958 79.6861 42.755C79.6861 41.237 80.1299 40.0214 81.0175 39.108C81.8537 38.2461 82.8957 37.8152 84.1435 37.8152ZM94.3758 37.8152C94.9675 37.8152 95.495 37.9181 95.9581 38.1239C96.434 38.3169 96.8328 38.5741 97.1544 38.8958C97.7976 39.5132 98.1771 40.2915 98.2929 41.2306L95.9967 41.2885C95.8937 40.8768 95.7008 40.5359 95.4178 40.2658C95.1476 39.9956 94.8324 39.8606 94.4723 39.8606C94.1121 39.8606 93.8033 39.9185 93.546 40.0342C93.2888 40.1371 93.0636 40.3044 92.8707 40.5359C92.4333 41.0762 92.2146 41.8223 92.2146 42.7743C92.2146 43.7262 92.4204 44.4466 92.8321 44.9355C93.2437 45.4114 93.739 45.6494 94.3179 45.6494C94.9096 45.6494 95.3341 45.5143 95.5914 45.2442C95.8616 44.9612 95.9967 44.5817 95.9967 44.1057H98.2929C98.2929 45.1349 97.952 45.9903 97.2702 46.6721C96.5755 47.3668 95.6043 47.7141 94.3565 47.7141C93.1215 47.7141 92.086 47.2639 91.2498 46.3634C90.3622 45.3986 89.9183 44.1958 89.9183 42.755C89.9183 41.237 90.3622 40.0214 91.2498 39.108C92.086 38.2461 93.1279 37.8152 94.3758 37.8152ZM104.724 37.8152C105.354 37.8152 105.946 37.9181 106.499 38.1239C107.052 38.3169 107.528 38.6192 107.927 39.0308C108.815 39.9313 109.258 41.1791 109.258 42.7743C109.258 44.3437 108.815 45.5787 107.927 46.4792C107.129 47.3025 106.062 47.7141 104.724 47.7141C103.386 47.7141 102.305 47.3025 101.482 46.4792C100.594 45.5915 100.151 44.3566 100.151 42.7743C100.151 41.1663 100.594 39.9185 101.482 39.0308C102.292 38.2204 103.373 37.8152 104.724 37.8152ZM106.981 42.755C106.981 41.7645 106.789 41.0248 106.403 40.5359C106.017 40.0342 105.476 39.7834 104.782 39.7834C104.1 39.7834 103.54 40.0342 103.103 40.5359C102.666 41.0248 102.447 41.7645 102.447 42.755C102.447 43.7455 102.64 44.4917 103.026 44.9934C103.425 45.4822 103.965 45.7266 104.647 45.7266C105.328 45.7266 105.888 45.4822 106.325 44.9934C106.763 44.4917 106.981 43.7455 106.981 42.755ZM118.2 45.7459C117.609 46.9937 116.657 47.6176 115.345 47.6176C113.685 47.6176 112.592 46.968 112.064 45.6687C111.871 45.2185 111.775 44.6717 111.775 44.0285V38.0467H114.052V43.797C114.052 44.4145 114.2 44.8776 114.496 45.1863C114.791 45.4822 115.152 45.6301 115.576 45.6301C116.013 45.6301 116.38 45.5722 116.676 45.4565C116.972 45.3278 117.229 45.1413 117.448 44.8969C117.924 44.3437 118.175 43.604 118.2 42.6778V38.0467H120.477V47.444H118.2V45.7459ZM126.304 39.6869C126.921 38.4391 127.912 37.8152 129.276 37.8152C130.433 37.8152 131.302 38.1947 131.88 38.9536C132.472 39.7126 132.768 40.716 132.768 41.9638V47.444H130.491V41.9638C130.491 41.2692 130.324 40.7482 129.989 40.4009C129.655 40.0407 129.185 39.8606 128.581 39.8606C127.976 39.8606 127.455 40.1307 127.018 40.671C126.593 41.2113 126.368 42.0217 126.342 43.1023V47.444H124.066V38.066H126.053L126.304 39.6869ZM141.375 47.2124C140.526 47.5469 139.857 47.7141 139.368 47.7141C138.879 47.7141 138.449 47.6562 138.075 47.5405C137.715 47.4247 137.394 47.251 137.111 47.0195C136.519 46.492 136.223 45.7652 136.223 44.839V39.5904H134.911V38.066H136.223V35.5961H138.5V38.066H141.047V39.5904H138.5V44.7618C138.5 45.5336 138.867 45.9196 139.6 45.9196C139.973 45.9196 140.455 45.8167 141.047 45.6108L141.375 47.2124ZM148.582 34.9207H153.637C155.026 34.9207 156.101 35.2488 156.86 35.9048C157.58 36.5095 157.94 37.2877 157.94 38.2397C157.94 38.9472 157.741 39.5518 157.342 40.0535C156.956 40.5552 156.409 40.909 155.702 41.1148C156.409 41.2563 156.995 41.5779 157.458 42.0796C157.921 42.5685 158.152 43.1988 158.152 43.9707C158.152 45.5143 157.387 46.5692 155.856 47.1352C155.277 47.3411 154.544 47.444 153.656 47.444H148.582V34.9207ZM153.599 45.4565C154.332 45.4565 154.859 45.3085 155.181 45.0126C155.515 44.7168 155.683 44.3244 155.683 43.8356C155.683 43.3467 155.509 42.9544 155.162 42.6585C154.827 42.3498 154.306 42.1954 153.599 42.1954H150.858V45.4565H153.599ZM150.858 40.2079H153.541C154.222 40.2079 154.737 40.06 155.084 39.7641C155.432 39.4682 155.605 39.0694 155.605 38.5677C155.605 38.0532 155.432 37.6479 155.084 37.3521C154.75 37.0433 154.242 36.8889 153.56 36.8889H150.858V40.2079ZM164.181 41.9638C164.927 41.9638 165.789 42.0861 166.767 42.3305V41.4043C166.767 40.7482 166.632 40.2658 166.362 39.957C166.104 39.6354 165.674 39.4746 165.069 39.4746C164.477 39.4746 164.02 39.5968 163.699 39.8413C163.377 40.0728 163.216 40.4073 163.216 40.8447H160.727C160.727 39.7769 161.1 39.0051 161.846 38.5291C162.605 38.0532 163.66 37.8152 165.011 37.8152C166.941 37.8152 168.188 38.4905 168.754 39.8413C168.947 40.3044 169.044 40.8511 169.044 41.4814V47.444H167.056L166.883 46.1897C166.278 47.206 165.352 47.7141 164.104 47.7141C162.895 47.7141 161.956 47.4182 161.287 46.8265C160.669 46.2605 160.361 45.5465 160.361 44.6846C160.361 43.8099 160.702 43.1409 161.383 42.6778C162.065 42.2018 162.998 41.9638 164.181 41.9638ZM166.767 43.7777C166.008 43.5719 165.3 43.469 164.644 43.469C163.409 43.469 162.792 43.8806 162.792 44.7039C162.792 45.0512 162.933 45.3535 163.216 45.6108C163.499 45.8552 163.95 45.9775 164.567 45.9775C165.198 45.9775 165.712 45.7716 166.111 45.36C166.523 44.9355 166.741 44.408 166.767 43.7777ZM172.363 34.2068H174.64V47.444H172.363V34.2068ZM181.31 41.9638C182.057 41.9638 182.918 42.0861 183.896 42.3305V41.4043C183.896 40.7482 183.761 40.2658 183.491 39.957C183.234 39.6354 182.803 39.4746 182.198 39.4746C181.606 39.4746 181.15 39.5968 180.828 39.8413C180.506 40.0728 180.346 40.4073 180.346 40.8447H177.856C177.856 39.7769 178.229 39.0051 178.976 38.5291C179.735 38.0532 180.789 37.8152 182.14 37.8152C184.07 37.8152 185.318 38.4905 185.884 39.8413C186.077 40.3044 186.173 40.8511 186.173 41.4814V47.444H184.186L184.012 46.1897C183.407 47.206 182.481 47.7141 181.233 47.7141C180.024 47.7141 179.085 47.4182 178.416 46.8265C177.799 46.2605 177.49 45.5465 177.49 44.6846C177.49 43.8099 177.831 43.1409 178.512 42.6778C179.194 42.2018 180.127 41.9638 181.31 41.9638ZM183.896 43.7777C183.137 43.5719 182.43 43.469 181.774 43.469C180.539 43.469 179.921 43.8806 179.921 44.7039C179.921 45.0512 180.063 45.3535 180.346 45.6108C180.629 45.8552 181.079 45.9775 181.696 45.9775C182.327 45.9775 182.841 45.7716 183.24 45.36C183.652 44.9355 183.87 44.408 183.896 43.7777ZM191.73 39.6869C192.348 38.4391 193.338 37.8152 194.702 37.8152C195.859 37.8152 196.728 38.1947 197.307 38.9536C197.898 39.7126 198.194 40.716 198.194 41.9638V47.444H195.917V41.9638C195.917 41.2692 195.75 40.7482 195.416 40.4009C195.081 40.0407 194.612 39.8606 194.007 39.8606C193.402 39.8606 192.881 40.1307 192.444 40.671C192.02 41.2113 191.794 42.0217 191.769 43.1023V47.444H189.492V38.066H191.479L191.73 39.6869ZM205.084 37.8152C205.676 37.8152 206.203 37.9181 206.666 38.1239C207.142 38.3169 207.541 38.5741 207.863 38.8958C208.506 39.5132 208.885 40.2915 209.001 41.2306L206.705 41.2885C206.602 40.8768 206.409 40.5359 206.126 40.2658C205.856 39.9956 205.541 39.8606 205.18 39.8606C204.82 39.8606 204.511 39.9185 204.254 40.0342C203.997 40.1371 203.772 40.3044 203.579 40.5359C203.141 41.0762 202.923 41.8223 202.923 42.7743C202.923 43.7262 203.129 44.4466 203.54 44.9355C203.952 45.4114 204.447 45.6494 205.026 45.6494C205.618 45.6494 206.042 45.5143 206.3 45.2442C206.57 44.9612 206.705 44.5817 206.705 44.1057H209.001C209.001 45.1349 208.66 45.9903 207.978 46.6721C207.284 47.3668 206.312 47.7141 205.065 47.7141C203.83 47.7141 202.794 47.2639 201.958 46.3634C201.07 45.3986 200.627 44.1958 200.627 42.755C200.627 41.237 201.07 40.0214 201.958 39.108C202.794 38.2461 203.836 37.8152 205.084 37.8152ZM218.288 39.1852C218.609 39.5968 218.847 40.0728 219.002 40.6131C219.169 41.1534 219.253 41.6487 219.253 42.0989C219.253 42.5492 219.227 42.9544 219.175 43.3146H213.116C213.142 44.0736 213.329 44.691 213.676 45.167C214.023 45.643 214.551 45.881 215.258 45.881C216.197 45.881 216.757 45.4693 216.937 44.646H219.233C219.079 45.5851 218.648 46.3248 217.941 46.8651C217.207 47.4311 216.313 47.7141 215.258 47.7141C214.023 47.7141 212.988 47.2639 212.152 46.3634C211.29 45.4243 210.859 44.2215 210.859 42.755C210.859 41.2499 211.29 40.0407 212.152 39.1273C212.975 38.2525 214.011 37.8152 215.258 37.8152C216.558 37.8152 217.567 38.2718 218.288 39.1852ZM215.278 39.629C214.634 39.629 214.133 39.8413 213.773 40.2658C213.412 40.6774 213.2 41.2113 213.136 41.8674H217.13C217.13 40.8511 216.808 40.1693 216.165 39.822C215.921 39.6933 215.625 39.629 215.278 39.629ZM222.751 47.2896C222.287 47.2896 221.908 47.1481 221.612 46.8651C221.316 46.5821 221.168 46.2219 221.168 45.7845C221.168 45.3471 221.316 44.9805 221.612 44.6846C221.908 44.3887 222.287 44.2408 222.751 44.2408C223.214 44.2408 223.6 44.3887 223.908 44.6846C224.217 44.9805 224.371 45.3471 224.371 45.7845C224.371 46.2219 224.217 46.5821 223.908 46.8651C223.6 47.1481 223.214 47.2896 222.751 47.2896ZM222.751 41.5586C222.287 41.5586 221.908 41.4171 221.612 41.1341C221.316 40.8511 221.168 40.4909 221.168 40.0535C221.168 39.6161 221.316 39.2495 221.612 38.9536C221.908 38.6578 222.287 38.5098 222.751 38.5098C223.214 38.5098 223.6 38.6578 223.908 38.9536C224.217 39.2495 224.371 39.6161 224.371 40.0535C224.371 40.4909 224.217 40.8511 223.908 41.1341C223.6 41.4171 223.214 41.5586 222.751 41.5586Z" fill="#58595B"/>
<path d="M287.568 41.6927C288.304 41.938 288.875 42.2687 289.28 42.6847C289.696 43.09 289.904 43.65 289.904 44.3647C289.904 45.0687 289.6 45.6927 288.992 46.2367C288.384 46.77 287.536 47.0687 286.448 47.1327V48.4287H285.456V47.1167C284.443 47.0313 283.611 46.7167 282.96 46.1727C282.32 45.618 282 44.8767 282 43.9487H283.232C283.232 45.154 283.974 45.826 285.456 45.9647V42.2047L284.944 42.0127C284.059 41.7353 283.387 41.4047 282.928 41.0207C282.48 40.6367 282.256 40.0873 282.256 39.3727C282.256 38.658 282.523 38.066 283.056 37.5967C283.6 37.1167 284.4 36.8393 285.456 36.7647V35.5647H286.448V36.7807C287.376 36.8553 288.091 37.122 288.592 37.5807C289.094 38.0393 289.403 38.6313 289.52 39.3567H288.272C288.091 38.5033 287.483 38.0127 286.448 37.8847V41.3247L287.568 41.6927ZM288.496 44.3007C288.496 43.5113 288.006 42.962 287.024 42.6527L286.448 42.4607V45.9807C287.12 45.9273 287.627 45.7353 287.968 45.4047C288.32 45.074 288.496 44.706 288.496 44.3007ZM285.456 37.8687C284.848 37.9327 284.39 38.1087 284.08 38.3967C283.771 38.6847 283.616 39.026 283.616 39.4207C283.616 39.8047 283.723 40.1087 283.936 40.3327C284.15 40.546 284.496 40.7273 284.976 40.8767L285.456 41.0527V37.8687ZM293.294 45.8047H299.134V46.9727H292.03V45.4847C292.03 44.3007 292.478 43.4313 293.374 42.8767C293.662 42.6953 293.982 42.5353 294.334 42.3967L296.318 41.5967C297.342 41.1913 297.854 40.5247 297.854 39.5967C297.854 39.0847 297.678 38.6687 297.326 38.3487C296.974 38.018 296.478 37.8527 295.838 37.8527C295.209 37.8527 294.691 37.986 294.286 38.2527C293.891 38.5193 293.662 38.9193 293.598 39.4527H292.206C292.259 38.578 292.611 37.906 293.262 37.4367C293.913 36.9673 294.745 36.7327 295.758 36.7327C296.782 36.7327 297.614 37.01 298.254 37.5647C298.894 38.1193 299.214 38.8073 299.214 39.6287C299.214 40.4393 299.001 41.0847 298.574 41.5647C298.158 42.0447 297.582 42.4287 296.846 42.7167L294.814 43.5327C294.302 43.746 293.918 43.9913 293.662 44.2687C293.417 44.5353 293.294 44.8873 293.294 45.3247V45.8047ZM307.135 36.7647V43.4527H308.879V44.5407H307.135V46.9727H305.903V44.5407H300.703V43.5647L305.967 36.7647H307.135ZM302.207 43.5647H305.935V38.7647L302.207 43.5647ZM310.633 47.1167C310.366 47.1167 310.142 47.0313 309.961 46.8607C309.79 46.6793 309.705 46.466 309.705 46.2207C309.705 45.9647 309.79 45.7513 309.961 45.5807C310.142 45.3993 310.366 45.3087 310.633 45.3087C310.91 45.3087 311.139 45.3993 311.321 45.5807C311.502 45.7513 311.593 45.9647 311.593 46.2207C311.593 46.466 311.502 46.6793 311.321 46.8607C311.139 47.0313 310.91 47.1167 310.633 47.1167ZM318.932 36.7647V43.4527H320.676V44.5407H318.932V46.9727H317.7V44.5407H312.5V43.5647L317.764 36.7647H318.932ZM314.004 43.5647H317.732V38.7647L314.004 43.5647ZM325.789 36.7327C327.005 36.7327 327.965 37.1807 328.669 38.0767C329.373 38.9727 329.725 40.2633 329.725 41.9487C329.725 43.6233 329.373 44.9087 328.669 45.8047C327.965 46.7007 327.005 47.1487 325.789 47.1487C324.573 47.1487 323.608 46.706 322.893 45.8207C322.189 44.9353 321.837 43.6447 321.837 41.9487C321.837 40.242 322.189 38.946 322.893 38.0607C323.608 37.1753 324.573 36.7327 325.789 36.7327ZM328.413 41.9487C328.413 40.6367 328.189 39.634 327.741 38.9407C327.293 38.2367 326.637 37.8847 325.773 37.8847C324.92 37.8847 324.269 38.2367 323.821 38.9407C323.373 39.634 323.149 40.6367 323.149 41.9487C323.149 43.25 323.373 44.2527 323.821 44.9567C324.269 45.65 324.92 45.9967 325.773 45.9967C326.637 45.9967 327.293 45.65 327.741 44.9567C328.189 44.2527 328.413 43.25 328.413 41.9487Z" fill="#414042"/>
<path d="M69.2353 65.8024V69.0034L72.3263 65.8024H73.5253L70.5003 68.9154L73.7123 72.7214H72.5903L69.9173 69.5204L69.2353 70.2244V72.7214H68.3553V65.8024H69.2353ZM76.6094 65.8024H77.6654L79.9864 72.7214H79.0844L78.4904 70.9614H75.7404L75.1464 72.7214H74.2334L76.6094 65.8024ZM75.9714 70.2794H78.2704L77.1264 66.8694L75.9714 70.2794ZM82.3976 65.8024L85.8296 71.3574V65.8024H86.6986V72.7214H85.7306L82.2436 67.0894V72.7214H81.3636V65.8024H82.3976ZM91.3578 65.6814C92.2525 65.6814 92.9748 65.9894 93.5248 66.6054C94.0822 67.2141 94.3608 68.1051 94.3608 69.2784C94.3608 70.4444 94.0858 71.3318 93.5358 71.9404C92.9858 72.5418 92.2598 72.8424 91.3578 72.8424C90.4558 72.8424 89.7298 72.5381 89.1798 71.9294C88.6372 71.3134 88.3658 70.4261 88.3658 69.2674C88.3658 68.1014 88.6372 67.2141 89.1798 66.6054C89.7298 65.9894 90.4558 65.6814 91.3578 65.6814ZM91.3578 66.4624C90.7125 66.4624 90.2028 66.7044 89.8288 67.1884C89.4548 67.6724 89.2678 68.3691 89.2678 69.2784C89.2678 70.1878 89.4548 70.8771 89.8288 71.3464C90.2028 71.8158 90.7125 72.0504 91.3578 72.0504C92.0032 72.0504 92.5128 71.8158 92.8868 71.3464C93.2682 70.8771 93.4588 70.1878 93.4588 69.2784C93.4588 68.3691 93.2682 67.6724 92.8868 67.1884C92.5128 66.7044 92.0032 66.4624 91.3578 66.4624ZM102.333 67.4854C102.209 66.8108 101.714 66.4734 100.848 66.4734C100.386 66.4734 100.031 66.5761 99.7813 66.7814C99.5319 66.9794 99.4073 67.2214 99.4073 67.5074C99.4073 67.7861 99.4843 67.9988 99.6383 68.1454C99.7923 68.2921 100.042 68.4204 100.386 68.5304L101.827 69.0254C102.319 69.1941 102.707 69.4251 102.993 69.7184C103.287 70.0118 103.433 70.4261 103.433 70.9614C103.433 71.4894 103.206 71.9368 102.751 72.3034C102.297 72.6628 101.688 72.8424 100.925 72.8424C100.163 72.8424 99.5356 72.6518 99.0443 72.2704C98.5603 71.8818 98.3109 71.3391 98.2963 70.6424H99.1433C99.1433 71.0971 99.3009 71.4454 99.6163 71.6874C99.9389 71.9294 100.35 72.0504 100.848 72.0504C101.354 72.0504 101.754 71.9404 102.047 71.7204C102.341 71.4931 102.487 71.2291 102.487 70.9284C102.487 70.6204 102.396 70.3784 102.212 70.2024C102.036 70.0264 101.772 69.8798 101.42 69.7624L100.199 69.3114C99.6273 69.1208 99.1946 68.8934 98.9013 68.6294C98.6079 68.3654 98.4613 67.9804 98.4613 67.4744C98.4613 66.9611 98.6666 66.5358 99.0773 66.1984C99.4879 65.8538 100.064 65.6814 100.804 65.6814C101.545 65.6814 102.11 65.8464 102.498 66.1764C102.894 66.4991 103.122 66.9354 103.18 67.4854H102.333ZM107.2 67.3314C107.934 67.3314 108.524 67.5698 108.971 68.0464C109.426 68.5231 109.653 69.2051 109.653 70.0924C109.653 70.9724 109.426 71.6508 108.971 72.1274C108.524 72.6041 107.934 72.8424 107.2 72.8424C106.467 72.8424 105.873 72.6041 105.418 72.1274C104.971 71.6508 104.747 70.9724 104.747 70.0924C104.747 69.2051 104.971 68.5231 105.418 68.0464C105.873 67.5698 106.467 67.3314 107.2 67.3314ZM108.773 70.0924C108.773 69.4618 108.641 68.9704 108.377 68.6184C108.113 68.2591 107.725 68.0794 107.211 68.0794C106.705 68.0794 106.317 68.2591 106.045 68.6184C105.774 68.9704 105.638 69.4618 105.638 70.0924C105.638 70.7158 105.767 71.2071 106.023 71.5664C106.28 71.9184 106.661 72.0944 107.167 72.0944C107.681 72.0944 108.077 71.9184 108.355 71.5664C108.634 71.2071 108.773 70.7158 108.773 70.0924ZM111.313 65.2304H112.182V72.7214H111.313V65.2304ZM117.971 71.6764C117.612 72.4391 117.029 72.8204 116.222 72.8204C115.628 72.8204 115.148 72.6554 114.781 72.3254C114.422 71.9954 114.242 71.4858 114.242 70.7964V67.4524H115.111V70.7304C115.111 71.6178 115.522 72.0614 116.343 72.0614C116.82 72.0614 117.205 71.8781 117.498 71.5114C117.799 71.1448 117.957 70.6754 117.971 70.1034V67.4524H118.84V72.7214H117.971V71.6764ZM123.817 72.5674C123.187 72.8608 122.611 72.9231 122.09 72.7544C121.716 72.6371 121.452 72.3914 121.298 72.0174C121.218 71.8341 121.177 71.6141 121.177 71.3574V68.1234H120.33V67.4634H121.177V66.0004H122.035V67.4634H123.685V68.1234H122.035V71.3464C122.035 71.8818 122.285 72.1494 122.783 72.1494C123.055 72.1494 123.359 72.0834 123.696 71.9514L123.817 72.5674ZM125.258 67.4524H126.127V72.7214H125.258V67.4524ZM125.687 66.2204C125.511 66.2204 125.372 66.1728 125.269 66.0774C125.174 65.9748 125.126 65.8428 125.126 65.6814C125.126 65.5128 125.174 65.3808 125.269 65.2854C125.372 65.1828 125.511 65.1314 125.687 65.1314C125.863 65.1314 126.002 65.1828 126.105 65.2854C126.215 65.3808 126.27 65.5128 126.27 65.6814C126.27 65.8428 126.215 65.9748 126.105 66.0774C126.002 66.1728 125.863 66.2204 125.687 66.2204ZM130.382 67.3314C131.115 67.3314 131.706 67.5698 132.153 68.0464C132.608 68.5231 132.835 69.2051 132.835 70.0924C132.835 70.9724 132.608 71.6508 132.153 72.1274C131.706 72.6041 131.115 72.8424 130.382 72.8424C129.649 72.8424 129.055 72.6041 128.6 72.1274C128.153 71.6508 127.929 70.9724 127.929 70.0924C127.929 69.2051 128.153 68.5231 128.6 68.0464C129.055 67.5698 129.649 67.3314 130.382 67.3314ZM131.955 70.0924C131.955 69.4618 131.823 68.9704 131.559 68.6184C131.295 68.2591 130.906 68.0794 130.393 68.0794C129.887 68.0794 129.498 68.2591 129.227 68.6184C128.956 68.9704 128.82 69.4618 128.82 70.0924C128.82 70.7158 128.948 71.2071 129.205 71.5664C129.462 71.9184 129.843 72.0944 130.349 72.0944C130.862 72.0944 131.258 71.9184 131.537 71.5664C131.816 71.2071 131.955 70.7158 131.955 70.0924ZM135.331 68.4754C135.676 67.7128 136.266 67.3314 137.102 67.3314C137.725 67.3314 138.209 67.5368 138.554 67.9474C138.906 68.3581 139.082 68.9191 139.082 69.6304V72.7214H138.224V69.6304C138.224 69.1244 138.103 68.7431 137.861 68.4864C137.626 68.2298 137.289 68.1014 136.849 68.1014C136.409 68.1014 136.053 68.2811 135.782 68.6404C135.511 68.9998 135.368 69.4984 135.353 70.1364V72.7214H134.484V67.4634H135.232L135.331 68.4754ZM140.848 68.7504C140.848 68.3178 141.031 67.9731 141.398 67.7164C141.772 67.4598 142.274 67.3314 142.905 67.3314C143.536 67.3314 144.027 67.4634 144.379 67.7274C144.738 67.9914 144.925 68.3251 144.94 68.7284H144.093C144.027 68.2518 143.624 68.0134 142.883 68.0134C142.524 68.0134 142.245 68.0941 142.047 68.2554C141.856 68.4168 141.761 68.5928 141.761 68.7834C141.761 68.9668 141.834 69.1244 141.981 69.2564C142.128 69.3811 142.362 69.4911 142.685 69.5864L143.741 69.9384C144.188 70.0778 144.529 70.2574 144.764 70.4774C145.006 70.6901 145.127 70.9871 145.127 71.3684C145.127 71.7424 144.933 72.0834 144.544 72.3914C144.155 72.6921 143.613 72.8424 142.916 72.8424C142.219 72.8424 141.677 72.6884 141.288 72.3804C140.899 72.0651 140.694 71.6618 140.672 71.1704H141.508C141.523 71.5004 141.655 71.7498 141.904 71.9184C142.161 72.0798 142.48 72.1604 142.861 72.1604C143.242 72.1604 143.558 72.0798 143.807 71.9184C144.056 71.7571 144.181 71.5664 144.181 71.3464C144.181 71.1191 144.108 70.9468 143.961 70.8294C143.814 70.7121 143.576 70.6094 143.246 70.5214L142.223 70.1804C141.306 69.9091 140.848 69.4324 140.848 68.7504Z" fill="#414042"/>
<path d="M60.79 54.37H366.34" stroke="#414042" stroke-width="0.1" stroke-miterlimit="10"/>
<path opacity="0.2" d="M343.51 78.51H268.04C265.57 78.51 263.57 76.51 263.57 74.04V66.2C263.57 63.73 265.57 61.73 268.04 61.73H343.51C345.98 61.73 347.98 63.73 347.98 66.2V74.05C347.98 76.51 345.98 78.51 343.51 78.51Z" fill="#36589B"/>
<path d="M279.287 68.1846C279.287 68.6371 279.159 69.0239 278.903 69.3452C278.648 69.6664 278.28 69.8894 277.802 70.0139L279.513 72.6104H277.999L276.592 70.1221H275.707V72.6104H274.546V66.2275H276.907C277.661 66.2275 278.248 66.4078 278.667 66.7684C279.08 67.1159 279.287 67.588 279.287 68.1846ZM276.799 69.3452C277.225 69.3452 277.546 69.2501 277.762 69.06C277.979 68.8633 278.087 68.6075 278.087 68.2928C278.087 67.9716 277.989 67.7158 277.792 67.5257C277.595 67.329 277.3 67.2307 276.907 67.2307H275.707V69.3452H276.799ZM284.21 68.401C284.374 68.6108 284.495 68.8534 284.574 69.1288C284.659 69.4042 284.702 69.6566 284.702 69.8861C284.702 70.1156 284.688 70.3221 284.662 70.5057H281.574C281.587 70.8925 281.682 71.2072 281.859 71.4498C282.036 71.6924 282.305 71.8137 282.666 71.8137C283.144 71.8137 283.43 71.6039 283.521 71.1843H284.692C284.613 71.6629 284.393 72.0399 284.033 72.3153C283.659 72.6038 283.203 72.748 282.666 72.748C282.036 72.748 281.508 72.5186 281.082 72.0596C280.643 71.581 280.423 70.9679 280.423 70.2205C280.423 69.4533 280.643 68.837 281.082 68.3715C281.502 67.9257 282.03 67.7027 282.666 67.7027C283.328 67.7027 283.843 67.9355 284.21 68.401ZM282.676 68.6272C282.348 68.6272 282.092 68.7354 281.908 68.9518C281.725 69.1616 281.617 69.4337 281.584 69.7681H283.62C283.62 69.2501 283.456 68.9026 283.128 68.7256C283.003 68.66 282.853 68.6272 282.676 68.6272ZM285.57 67.8306H286.278V67.27C286.278 66.7783 286.422 66.4013 286.711 66.139C286.973 65.9029 287.314 65.7849 287.733 65.7849C288.002 65.7849 288.333 65.8243 288.727 65.9029L288.501 66.7979C288.317 66.7324 288.15 66.6996 287.999 66.6996C287.855 66.6996 287.727 66.7422 287.615 66.8274C287.504 66.9061 287.448 67.0569 287.448 67.2798V67.8306H288.323V68.6075H287.448V72.6104H286.278V68.6075H285.57V67.8306ZM292.869 71.7449C292.568 72.3809 292.082 72.6989 291.414 72.6989C290.568 72.6989 290.011 72.3678 289.742 71.7055C289.643 71.4761 289.594 71.1974 289.594 70.8696V67.8208H290.755V70.7516C290.755 71.0663 290.83 71.3023 290.981 71.4597C291.132 71.6105 291.315 71.6859 291.532 71.6859C291.755 71.6859 291.942 71.6564 292.092 71.5974C292.243 71.5318 292.374 71.4367 292.486 71.3121C292.728 71.0302 292.856 70.6532 292.869 70.1811V67.8208H294.03V72.6104H292.869V71.7449ZM296.999 68.6567C297.314 68.0207 297.819 67.7027 298.514 67.7027C299.104 67.7027 299.547 67.8962 299.842 68.283C300.143 68.6698 300.294 69.1812 300.294 69.8172V72.6104H299.134V69.8172C299.134 69.4632 299.048 69.1976 298.878 69.0206C298.707 68.837 298.468 68.7452 298.16 68.7452C297.852 68.7452 297.586 68.8829 297.363 69.1583C297.147 69.4337 297.032 69.8467 297.019 70.3975V72.6104H295.859V67.8306H296.872L296.999 68.6567ZM305.104 71.8727C304.809 72.4563 304.356 72.748 303.747 72.748C303.137 72.748 302.626 72.5153 302.212 72.0498C301.786 71.5646 301.573 70.9483 301.573 70.2008C301.573 69.4533 301.776 68.8469 302.183 68.3813C302.583 67.9289 303.081 67.7027 303.678 67.7027C304.274 67.7027 304.724 67.9421 305.025 68.4207V65.8636H306.196V72.6104H305.242L305.104 71.8727ZM303.894 68.7452C303.566 68.7452 303.291 68.8796 303.068 69.1485C302.852 69.4107 302.744 69.7648 302.744 70.2106C302.744 70.6565 302.855 71.0171 303.078 71.2925C303.301 71.5613 303.583 71.6957 303.924 71.6957C304.206 71.6957 304.458 71.5842 304.681 71.3613C304.91 71.1318 305.025 70.8433 305.025 70.4958V69.8762C305.012 69.5353 304.897 69.2567 304.681 69.0403C304.484 68.8436 304.222 68.7452 303.894 68.7452ZM311.095 66.2275L312.502 71.0761L313.869 66.6504H314.655L316.101 71.0958L317.596 66.2275H318.904L316.711 72.6104H315.491L314.292 69.0108L313.102 72.6104H311.882L309.797 66.2275H311.095ZM321.184 69.8172C321.564 69.8172 322.003 69.8795 322.502 70.0041V69.532C322.502 69.1976 322.433 68.9518 322.295 68.7944C322.164 68.6305 321.944 68.5485 321.636 68.5485C321.335 68.5485 321.102 68.6108 320.938 68.7354C320.774 68.8534 320.692 69.0239 320.692 69.2468H319.423C319.423 68.7026 319.614 68.3092 319.994 68.0666C320.381 67.824 320.918 67.7027 321.607 67.7027C322.59 67.7027 323.226 68.047 323.515 68.7354C323.613 68.9714 323.662 69.2501 323.662 69.5714V72.6104H322.649L322.561 71.9711C322.253 72.4891 321.781 72.748 321.145 72.748C320.528 72.748 320.05 72.5972 319.709 72.2956C319.394 72.0071 319.237 71.6433 319.237 71.204C319.237 70.7581 319.41 70.4172 319.758 70.1811C320.105 69.9385 320.581 69.8172 321.184 69.8172ZM322.502 70.7417C322.115 70.6368 321.754 70.5844 321.42 70.5844C320.79 70.5844 320.476 70.7942 320.476 71.2138C320.476 71.3908 320.548 71.5449 320.692 71.676C320.836 71.8006 321.066 71.8629 321.381 71.8629C321.702 71.8629 321.964 71.758 322.167 71.5482C322.377 71.3318 322.489 71.063 322.502 70.7417ZM325.354 65.8636H326.514V72.6104H325.354V65.8636ZM328.341 65.8636H329.501V72.6104H328.341V65.8636ZM334.662 68.401C334.826 68.6108 334.947 68.8534 335.026 69.1288C335.111 69.4042 335.153 69.6566 335.153 69.8861C335.153 70.1156 335.14 70.3221 335.114 70.5057H332.026C332.039 70.8925 332.134 71.2072 332.311 71.4498C332.488 71.6924 332.757 71.8137 333.118 71.8137C333.596 71.8137 333.881 71.6039 333.973 71.1843H335.144C335.065 71.6629 334.845 72.0399 334.485 72.3153C334.111 72.6038 333.655 72.748 333.118 72.748C332.488 72.748 331.96 72.5186 331.534 72.0596C331.095 71.581 330.875 70.9679 330.875 70.2205C330.875 69.4533 331.095 68.837 331.534 68.3715C331.954 67.9257 332.482 67.7027 333.118 67.7027C333.78 67.7027 334.295 67.9355 334.662 68.401ZM333.127 68.6272C332.8 68.6272 332.544 68.7354 332.36 68.9518C332.177 69.1616 332.069 69.4337 332.036 69.7681H334.072C334.072 69.2501 333.908 68.9026 333.58 68.7256C333.455 68.66 333.304 68.6272 333.127 68.6272ZM339.238 72.4923C338.805 72.6628 338.464 72.748 338.215 72.748C337.966 72.748 337.746 72.7185 337.556 72.6595C337.372 72.6005 337.208 72.512 337.064 72.394C336.762 72.1252 336.612 71.7547 336.612 71.2826V68.6075H335.943V67.8306H336.612V66.5717H337.772V67.8306H339.07V68.6075H337.772V71.2433C337.772 71.6367 337.959 71.8334 338.333 71.8334C338.523 71.8334 338.769 71.7809 339.07 71.676L339.238 72.4923Z" fill="#36589B"/>
</g>
<defs>
<clipPath id="clip0">
<rect width="406.9" height="91.39" fill="white"/>
</clipPath>
</defs>
</svg>
