<svg width="374" height="84" viewBox="0 0 374 84" fill="none" xmlns="http://www.w3.org/2000/svg">
<g clip-path="url(#clip0)">
<path d="M374.34 83.8989H0.330933V4.49461C0.330933 1.95779 2.38982 -0.101074 4.92666 -0.101074H369.735C372.272 -0.101074 374.331 1.95779 374.331 4.49461V83.8989H374.34Z" fill="#2D7DB1"/>
<path d="M374.202 83.8438H26.2048V18.6769C26.2048 16.4526 28.0064 14.6511 30.2307 14.6511H374.211V83.8438H374.202Z" fill="white"/>
<path d="M36.9146 38.0249C36.7386 38.0249 36.5766 37.9942 36.4286 37.9329C36.2806 37.8702 36.1606 37.7762 36.0686 37.6509C35.9779 37.5256 35.9292 37.3669 35.9226 37.1749H36.3406C36.3406 37.2802 36.3666 37.3669 36.4186 37.4349C36.4706 37.5029 36.5399 37.5536 36.6266 37.5869C36.7132 37.6189 36.8079 37.6349 36.9106 37.6349C37.0146 37.6349 37.1059 37.6202 37.1846 37.5909C37.2646 37.5616 37.3266 37.5209 37.3706 37.4689C37.4159 37.4169 37.4386 37.3569 37.4386 37.2889C37.4386 37.1956 37.4099 37.1222 37.3526 37.0689C37.2966 37.0142 37.2092 36.9662 37.0906 36.9249L36.5986 36.7349C36.3959 36.6576 36.2412 36.5682 36.1346 36.4669C36.0279 36.3656 35.9746 36.2242 35.9746 36.0429C35.9746 35.8376 36.0552 35.6709 36.2166 35.5429C36.3792 35.4136 36.6066 35.3489 36.8986 35.3489C37.1786 35.3489 37.3959 35.4142 37.5506 35.5449C37.7052 35.6756 37.7932 35.8556 37.8146 36.0849H37.3966C37.3779 35.9782 37.3286 35.8936 37.2486 35.8309C37.1699 35.7669 37.0532 35.7349 36.8986 35.7349C36.7559 35.7349 36.6439 35.7656 36.5626 35.8269C36.4812 35.8869 36.4406 35.9629 36.4406 36.0549C36.4406 36.1336 36.4659 36.1956 36.5166 36.2409C36.5686 36.2862 36.6486 36.3289 36.7566 36.3689L37.3106 36.5769C37.4999 36.6476 37.6459 36.7389 37.7486 36.8509C37.8526 36.9629 37.9046 37.1042 37.9046 37.2749C37.9046 37.4242 37.8659 37.5556 37.7886 37.6689C37.7126 37.7809 37.6006 37.8682 37.4526 37.9309C37.3059 37.9936 37.1266 38.0249 36.9146 38.0249ZM39.2583 38.0249C39.093 38.0249 38.9423 37.9822 38.8063 37.8969C38.6716 37.8116 38.5636 37.6922 38.4823 37.5389C38.4023 37.3856 38.3623 37.2076 38.3623 37.0049C38.3623 36.7929 38.4023 36.6109 38.4823 36.4589C38.5623 36.3056 38.6696 36.1882 38.8043 36.1069C38.9403 36.0256 39.0916 35.9849 39.2583 35.9849C39.4103 35.9849 39.541 36.0156 39.6503 36.0769C39.761 36.1382 39.8496 36.2209 39.9163 36.3249C39.983 36.4289 40.0283 36.5469 40.0523 36.6789C40.0776 36.8096 40.081 36.9449 40.0623 37.0849H38.7043V36.8469H39.7643L39.6723 36.9069C39.6763 36.8389 39.673 36.7709 39.6623 36.7029C39.6516 36.6349 39.631 36.5722 39.6003 36.5149C39.571 36.4576 39.529 36.4116 39.4743 36.3769C39.4196 36.3422 39.3496 36.3249 39.2643 36.3249C39.1616 36.3249 39.0743 36.3516 39.0023 36.4049C38.9316 36.4569 38.8776 36.5269 38.8403 36.6149C38.8043 36.7029 38.7863 36.8009 38.7863 36.9089V37.0809C38.7863 37.1969 38.8036 37.3002 38.8383 37.3909C38.873 37.4802 38.925 37.5509 38.9943 37.6029C39.065 37.6549 39.153 37.6809 39.2583 37.6809C39.3596 37.6809 39.4436 37.6569 39.5103 37.6089C39.5783 37.5609 39.621 37.4896 39.6383 37.3949H40.0723C40.0523 37.5202 40.0056 37.6302 39.9323 37.7249C39.859 37.8196 39.765 37.8936 39.6503 37.9469C39.5356 37.9989 39.405 38.0249 39.2583 38.0249ZM41.9939 37.9709V36.8389C41.9939 36.6829 41.9565 36.5656 41.8819 36.4869C41.8072 36.4069 41.7079 36.3669 41.5839 36.3669C41.4839 36.3669 41.3959 36.3949 41.3199 36.4509C41.2439 36.5056 41.1845 36.5869 41.1419 36.6949C41.1005 36.8029 41.0799 36.9356 41.0799 37.0929H40.9339C40.9339 36.8489 40.9645 36.6449 41.0259 36.4809C41.0872 36.3169 41.1745 36.1936 41.2879 36.1109C41.4025 36.0269 41.5385 35.9849 41.6959 35.9849C41.8532 35.9849 41.9852 36.0202 42.0919 36.0909C42.1999 36.1616 42.2812 36.2609 42.3359 36.3889C42.3905 36.5169 42.4179 36.6669 42.4179 36.8389V37.9709H41.9939ZM40.6539 37.9709V36.0389H41.0239L41.0799 36.4389V37.9709H40.6539ZM43.8286 38.0249C43.6686 38.0249 43.5219 37.9822 43.3886 37.8969C43.2566 37.8116 43.1513 37.6922 43.0726 37.5389C42.9939 37.3842 42.9546 37.2029 42.9546 36.9949C42.9546 36.7896 42.9926 36.6116 43.0686 36.4609C43.1446 36.3089 43.2466 36.1916 43.3746 36.1089C43.5026 36.0262 43.6446 35.9849 43.8006 35.9849C43.9433 35.9849 44.0673 36.0196 44.1726 36.0889C44.2779 36.1569 44.3586 36.2576 44.4146 36.3909C44.4719 36.5229 44.5006 36.6849 44.5006 36.8769H44.3606C44.3606 36.7676 44.3386 36.6756 44.2946 36.6009C44.2506 36.5249 44.1933 36.4669 44.1226 36.4269C44.0519 36.3869 43.9753 36.3669 43.8926 36.3669C43.7953 36.3669 43.7079 36.3929 43.6306 36.4449C43.5546 36.4969 43.4946 36.5702 43.4506 36.6649C43.4066 36.7582 43.3846 36.8682 43.3846 36.9949C43.3846 37.1256 43.4066 37.2396 43.4506 37.3369C43.4959 37.4329 43.5566 37.5076 43.6326 37.5609C43.7086 37.6129 43.7946 37.6389 43.8906 37.6389C43.9693 37.6389 44.0439 37.6182 44.1146 37.5769C44.1866 37.5342 44.2453 37.4742 44.2906 37.3969C44.3373 37.3196 44.3606 37.2282 44.3606 37.1229H44.5006C44.5006 37.3216 44.4699 37.4882 44.4086 37.6229C44.3486 37.7562 44.2679 37.8569 44.1666 37.9249C44.0653 37.9916 43.9526 38.0249 43.8286 38.0249ZM44.4386 37.9709L44.3606 37.5009V35.2309H44.7906V37.9709H44.4386ZM47.2644 38.0249C47.1057 38.0249 46.957 37.9829 46.8184 37.8989C46.681 37.8149 46.5697 37.6962 46.4844 37.5429C46.4004 37.3896 46.3584 37.2096 46.3584 37.0029C46.3584 36.7856 46.4004 36.6009 46.4844 36.4489C46.5697 36.2969 46.681 36.1816 46.8184 36.1029C46.957 36.0242 47.1057 35.9849 47.2644 35.9849C47.3857 35.9849 47.493 36.0042 47.5864 36.0429C47.681 36.0816 47.7617 36.1336 47.8284 36.1989C47.895 36.2642 47.9484 36.3376 47.9884 36.4189C48.0284 36.4989 48.055 36.5809 48.0684 36.6649L47.6364 36.6809C47.611 36.5889 47.5664 36.5136 47.5024 36.4549C47.4397 36.3962 47.359 36.3669 47.2604 36.3669C47.1804 36.3669 47.1044 36.3896 47.0324 36.4349C46.9604 36.4802 46.9017 36.5496 46.8564 36.6429C46.8124 36.7362 46.7904 36.8562 46.7904 37.0029C46.7904 37.1402 46.811 37.2562 46.8524 37.3509C46.8937 37.4456 46.9497 37.5176 47.0204 37.5669C47.0924 37.6149 47.1724 37.6389 47.2604 37.6389C47.3897 37.6389 47.4844 37.6082 47.5444 37.5469C47.6057 37.4842 47.6364 37.3996 47.6364 37.2929H48.0684C48.0684 37.4289 48.037 37.5522 47.9744 37.6629C47.9117 37.7736 47.8204 37.8616 47.7004 37.9269C47.5804 37.9922 47.435 38.0249 47.2644 38.0249ZM49.8699 37.9709L49.8159 37.5149V36.7229C49.8159 36.5762 49.7853 36.4689 49.7239 36.4009C49.6639 36.3329 49.5659 36.2989 49.4299 36.2989C49.3526 36.2989 49.2839 36.3102 49.2239 36.3329C49.1653 36.3556 49.1193 36.3896 49.0859 36.4349C49.0539 36.4789 49.0379 36.5336 49.0379 36.5989H48.5699C48.5699 36.4536 48.6046 36.3362 48.6739 36.2469C48.7446 36.1562 48.8439 36.0902 48.9719 36.0489C49.1013 36.0062 49.2539 35.9849 49.4299 35.9849C49.5926 35.9849 49.7346 36.0116 49.8559 36.0649C49.9773 36.1169 50.0719 36.1982 50.1399 36.3089C50.2079 36.4196 50.2419 36.5622 50.2419 36.7369V37.9709H49.8699ZM49.2299 38.0249C49.0659 38.0249 48.9293 37.9962 48.8199 37.9389C48.7119 37.8816 48.6306 37.8062 48.5759 37.7129C48.5213 37.6196 48.4939 37.5196 48.4939 37.4129C48.4939 37.2876 48.5259 37.1836 48.5899 37.1009C48.6553 37.0182 48.7459 36.9569 48.8619 36.9169C48.9793 36.8756 49.1153 36.8549 49.2699 36.8549C49.3753 36.8549 49.4753 36.8636 49.5699 36.8809C49.6659 36.8982 49.7613 36.9209 49.8559 36.9489V37.2029C49.7799 37.1762 49.6966 37.1556 49.6059 37.1409C49.5153 37.1262 49.4313 37.1189 49.3539 37.1189C49.2366 37.1189 49.1393 37.1416 49.0619 37.1869C48.9859 37.2309 48.9479 37.3062 48.9479 37.4129C48.9479 37.4902 48.9786 37.5569 49.0399 37.6129C49.1013 37.6689 49.1986 37.6969 49.3319 37.6969C49.4319 37.6969 49.5179 37.6749 49.5899 37.6309C49.6619 37.5869 49.7173 37.5316 49.7559 37.4649C49.7959 37.3982 49.8159 37.3316 49.8159 37.2649H49.9179C49.9179 37.4009 49.8913 37.5269 49.8379 37.6429C49.7859 37.7576 49.7086 37.8502 49.6059 37.9209C49.5033 37.9902 49.3779 38.0249 49.2299 38.0249ZM53.6007 37.9709V36.8389C53.6007 36.6829 53.5634 36.5656 53.4887 36.4869C53.4154 36.4069 53.3174 36.3669 53.1947 36.3669C53.0427 36.3669 52.9247 36.4269 52.8407 36.5469C52.7567 36.6669 52.7147 36.8436 52.7147 37.0769H52.5327C52.5327 36.8822 52.5514 36.7162 52.5887 36.5789C52.6261 36.4402 52.6787 36.3276 52.7467 36.2409C52.8161 36.1529 52.8981 36.0882 52.9927 36.0469C53.0874 36.0056 53.1921 35.9849 53.3067 35.9849C53.4641 35.9849 53.5961 36.0202 53.7027 36.0909C53.8107 36.1616 53.8921 36.2609 53.9467 36.3889C54.0027 36.5169 54.0307 36.6669 54.0307 36.8389V37.9709H53.6007ZM50.9507 37.9709V36.0389H51.3207L51.3687 36.3849C51.4314 36.2542 51.5154 36.1549 51.6207 36.0869C51.7274 36.0189 51.8514 35.9849 51.9927 35.9849C52.1501 35.9849 52.2821 36.0202 52.3887 36.0909C52.4967 36.1616 52.5781 36.2609 52.6327 36.3889C52.6874 36.5169 52.7147 36.6669 52.7147 36.8389V37.9709H52.2907V36.8389C52.2907 36.6829 52.2534 36.5656 52.1787 36.4869C52.1041 36.4069 52.0047 36.3669 51.8807 36.3669C51.7807 36.3669 51.6927 36.3949 51.6167 36.4509C51.5407 36.5056 51.4814 36.5869 51.4387 36.6949C51.3974 36.8029 51.3767 36.9356 51.3767 37.0929V37.9709H50.9507ZM55.674 38.0249C55.5313 38.0249 55.4093 37.9942 55.308 37.9329C55.2066 37.8702 55.1293 37.7769 55.076 37.6529C55.0226 37.5289 54.996 37.3742 54.996 37.1889H55.158C55.158 37.2849 55.1793 37.3662 55.222 37.4329C55.2646 37.4996 55.3206 37.5509 55.39 37.5869C55.4606 37.6216 55.5353 37.6389 55.614 37.6389C55.698 37.6389 55.78 37.6156 55.86 37.5689C55.94 37.5222 56.006 37.4522 56.058 37.3589C56.11 37.2642 56.136 37.1456 56.136 37.0029C56.136 36.8709 56.1133 36.7576 56.068 36.6629C56.024 36.5669 55.9626 36.4936 55.884 36.4429C55.8066 36.3922 55.7193 36.3669 55.622 36.3669C55.5393 36.3669 55.462 36.3862 55.39 36.4249C55.3193 36.4636 55.2626 36.5196 55.22 36.5929C55.1786 36.6649 55.158 36.7536 55.158 36.8589H54.996C54.996 36.6602 55.0273 36.4962 55.09 36.3669C55.1526 36.2376 55.2366 36.1416 55.342 36.0789C55.4473 36.0162 55.5633 35.9849 55.69 35.9849C55.842 35.9849 55.9846 36.0256 56.118 36.1069C56.2513 36.1882 56.3593 36.3049 56.442 36.4569C56.526 36.6076 56.568 36.7896 56.568 37.0029C56.568 37.2176 56.526 37.4009 56.442 37.5529C56.358 37.7049 56.248 37.8216 56.112 37.9029C55.976 37.9842 55.83 38.0249 55.674 38.0249ZM54.732 38.9169V36.0389H55.082L55.158 36.5089V38.9169H54.732ZM58.3621 37.9709L58.3081 37.5149V36.7229C58.3081 36.5762 58.2775 36.4689 58.2161 36.4009C58.1561 36.3329 58.0581 36.2989 57.9221 36.2989C57.8448 36.2989 57.7761 36.3102 57.7161 36.3329C57.6575 36.3556 57.6115 36.3896 57.5781 36.4349C57.5461 36.4789 57.5301 36.5336 57.5301 36.5989H57.0621C57.0621 36.4536 57.0968 36.3362 57.1661 36.2469C57.2368 36.1562 57.3361 36.0902 57.4641 36.0489C57.5935 36.0062 57.7461 35.9849 57.9221 35.9849C58.0848 35.9849 58.2268 36.0116 58.3481 36.0649C58.4695 36.1169 58.5641 36.1982 58.6321 36.3089C58.7001 36.4196 58.7341 36.5622 58.7341 36.7369V37.9709H58.3621ZM57.7221 38.0249C57.5581 38.0249 57.4215 37.9962 57.3121 37.9389C57.2041 37.8816 57.1228 37.8062 57.0681 37.7129C57.0135 37.6196 56.9861 37.5196 56.9861 37.4129C56.9861 37.2876 57.0181 37.1836 57.0821 37.1009C57.1475 37.0182 57.2381 36.9569 57.3541 36.9169C57.4715 36.8756 57.6075 36.8549 57.7621 36.8549C57.8675 36.8549 57.9675 36.8636 58.0621 36.8809C58.1581 36.8982 58.2535 36.9209 58.3481 36.9489V37.2029C58.2721 37.1762 58.1888 37.1556 58.0981 37.1409C58.0075 37.1262 57.9235 37.1189 57.8461 37.1189C57.7288 37.1189 57.6315 37.1416 57.5541 37.1869C57.4781 37.2309 57.4401 37.3062 57.4401 37.4129C57.4401 37.4902 57.4708 37.5569 57.5321 37.6129C57.5935 37.6689 57.6908 37.6969 57.8241 37.6969C57.9241 37.6969 58.0101 37.6749 58.0821 37.6309C58.1541 37.5869 58.2095 37.5316 58.2481 37.4649C58.2881 37.3982 58.3081 37.3316 58.3081 37.2649H58.4101C58.4101 37.4009 58.3835 37.5269 58.3301 37.6429C58.2781 37.7576 58.2008 37.8502 58.0981 37.9209C57.9955 37.9902 57.8701 38.0249 57.7221 38.0249ZM59.6889 35.6549C59.6049 35.6549 59.5389 35.6322 59.4909 35.5869C59.4442 35.5416 59.4209 35.4796 59.4209 35.4009C59.4209 35.3249 59.4442 35.2642 59.4909 35.2189C59.5389 35.1722 59.6049 35.1489 59.6889 35.1489C59.7716 35.1489 59.8369 35.1722 59.8849 35.2189C59.9329 35.2642 59.9569 35.3249 59.9569 35.4009C59.9569 35.4796 59.9329 35.5416 59.8849 35.5869C59.8369 35.6322 59.7716 35.6549 59.6889 35.6549ZM59.4769 37.9709V36.0329H59.9029V37.9709H59.4769ZM61.4463 38.9689C61.2316 38.9689 61.0469 38.9389 60.8923 38.8789C60.7389 38.8202 60.6209 38.7416 60.5383 38.6429C60.4556 38.5456 60.4143 38.4396 60.4143 38.3249C60.4143 38.1849 60.4656 38.0769 60.5683 38.0009C60.6709 37.9249 60.8009 37.8869 60.9583 37.8869L61.2543 38.0089C61.1196 38.0089 61.0156 38.0349 60.9423 38.0869C60.8689 38.1402 60.8323 38.2129 60.8323 38.3049C60.8323 38.4009 60.8863 38.4789 60.9943 38.5389C61.1023 38.5989 61.2529 38.6289 61.4463 38.6289C61.5889 38.6289 61.7123 38.6076 61.8163 38.5649C61.9216 38.5236 62.0029 38.4696 62.0603 38.4029C62.1189 38.3362 62.1483 38.2649 62.1483 38.1889C62.1483 38.1382 62.1303 38.0956 62.0943 38.0609C62.0596 38.0262 62.0056 38.0089 61.9323 38.0089H61.2543C61.1236 38.0089 61.0063 37.9882 60.9023 37.9469C60.7996 37.9056 60.7183 37.8502 60.6583 37.7809C60.5983 37.7116 60.5683 37.6349 60.5683 37.5509C60.5683 37.4696 60.5909 37.4002 60.6363 37.3429C60.6816 37.2842 60.7423 37.2396 60.8183 37.2089C60.8956 37.1769 60.9809 37.1609 61.0743 37.1609L61.1763 37.3049C61.1376 37.3049 61.0996 37.3129 61.0623 37.3289C61.0249 37.3449 60.9943 37.3689 60.9703 37.4009C60.9476 37.4316 60.9363 37.4702 60.9363 37.5169C60.9363 37.5729 60.9596 37.6189 61.0063 37.6549C61.0529 37.6896 61.1356 37.7069 61.2543 37.7069H61.9323C62.1309 37.7069 62.2869 37.7449 62.4003 37.8209C62.5136 37.8969 62.5703 38.0109 62.5703 38.1629C62.5703 38.2976 62.5249 38.4262 62.4343 38.5489C62.3436 38.6729 62.2143 38.7736 62.0463 38.8509C61.8783 38.9296 61.6783 38.9689 61.4463 38.9689ZM61.4803 37.3829C61.3283 37.3829 61.1903 37.3542 61.0663 37.2969C60.9423 37.2382 60.8429 37.1569 60.7683 37.0529C60.6949 36.9476 60.6583 36.8249 60.6583 36.6849C60.6583 36.5436 60.6949 36.4202 60.7683 36.3149C60.8429 36.2096 60.9423 36.1282 61.0663 36.0709C61.1903 36.0136 61.3283 35.9849 61.4803 35.9849C61.6283 35.9849 61.7636 36.0136 61.8863 36.0709C62.0103 36.1282 62.1096 36.2096 62.1843 36.3149C62.2603 36.4202 62.2983 36.5436 62.2983 36.6849C62.2983 36.8249 62.2603 36.9476 62.1843 37.0529C62.1096 37.1569 62.0103 37.2382 61.8863 37.2969C61.7636 37.3542 61.6283 37.3829 61.4803 37.3829ZM61.4823 37.0849C61.6116 37.0849 61.7096 37.0469 61.7763 36.9709C61.8443 36.8936 61.8783 36.7982 61.8783 36.6849C61.8783 36.5649 61.8443 36.4682 61.7763 36.3949C61.7096 36.3216 61.6109 36.2849 61.4803 36.2849C61.3536 36.2849 61.2549 36.3216 61.1843 36.3949C61.1149 36.4682 61.0803 36.5649 61.0803 36.6849C61.0803 36.7982 61.1149 36.8936 61.1843 36.9709C61.2549 37.0469 61.3543 37.0849 61.4823 37.0849ZM62.1503 36.2949L61.9543 36.1889C61.9543 36.0742 61.9796 35.9736 62.0303 35.8869C62.0809 35.8002 62.1503 35.7329 62.2383 35.6849C62.3263 35.6369 62.4249 35.6129 62.5343 35.6129L62.5103 36.0249C62.3943 36.0249 62.3049 36.0469 62.2423 36.0909C62.1809 36.1349 62.1503 36.2029 62.1503 36.2949ZM64.3689 37.9709V36.8389C64.3689 36.6829 64.3315 36.5656 64.2569 36.4869C64.1822 36.4069 64.0829 36.3669 63.9589 36.3669C63.8589 36.3669 63.7709 36.3949 63.6949 36.4509C63.6189 36.5056 63.5595 36.5869 63.5169 36.6949C63.4755 36.8029 63.4549 36.9356 63.4549 37.0929H63.3089C63.3089 36.8489 63.3395 36.6449 63.4009 36.4809C63.4622 36.3169 63.5495 36.1936 63.6629 36.1109C63.7775 36.0269 63.9135 35.9849 64.0709 35.9849C64.2282 35.9849 64.3602 36.0202 64.4669 36.0909C64.5749 36.1616 64.6562 36.2609 64.7109 36.3889C64.7655 36.5169 64.7929 36.6669 64.7929 36.8389V37.9709H64.3689ZM63.0289 37.9709V36.0389H63.3989L63.4549 36.4389V37.9709H63.0289ZM67.1258 38.0249C67.0138 38.0249 66.9118 38.0042 66.8198 37.9629C66.7291 37.9202 66.6565 37.8562 66.6018 37.7709C66.5471 37.6842 66.5198 37.5756 66.5198 37.4449V35.5189H66.9458V37.4309C66.9458 37.6016 67.0265 37.6869 67.1878 37.6869C67.2358 37.6869 67.2838 37.6816 67.3318 37.6709C67.3798 37.6602 67.4345 37.6436 67.4958 37.6209L67.5578 37.9209C67.4845 37.9502 67.4131 37.9749 67.3438 37.9949C67.2745 38.0149 67.2018 38.0249 67.1258 38.0249ZM66.2378 36.3229V36.0389H67.4958V36.3229H66.2378ZM68.7865 38.0249C68.6105 38.0249 68.4525 37.9869 68.3125 37.9109C68.1725 37.8349 68.0611 37.7216 67.9785 37.5709C67.8958 37.4202 67.8545 37.2322 67.8545 37.0069C67.8545 36.7776 67.8958 36.5876 67.9785 36.4369C68.0611 36.2862 68.1725 36.1736 68.3125 36.0989C68.4525 36.0229 68.6105 35.9849 68.7865 35.9849C68.9598 35.9849 69.1165 36.0229 69.2565 36.0989C69.3965 36.1736 69.5071 36.2862 69.5885 36.4369C69.6711 36.5876 69.7125 36.7776 69.7125 37.0069C69.7125 37.2322 69.6711 37.4202 69.5885 37.5709C69.5071 37.7216 69.3965 37.8349 69.2565 37.9109C69.1165 37.9869 68.9598 38.0249 68.7865 38.0249ZM68.7725 37.6529C68.8751 37.6529 68.9645 37.6282 69.0405 37.5789C69.1178 37.5282 69.1778 37.4549 69.2205 37.3589C69.2631 37.2629 69.2845 37.1456 69.2845 37.0069C69.2845 36.7949 69.2418 36.6329 69.1565 36.5209C69.0725 36.4089 68.9538 36.3529 68.8005 36.3529C68.6978 36.3529 68.6078 36.3782 68.5305 36.4289C68.4531 36.4782 68.3931 36.5516 68.3505 36.6489C68.3078 36.7449 68.2865 36.8642 68.2865 37.0069C68.2865 37.2149 68.3291 37.3749 68.4145 37.4869C68.5011 37.5976 68.6205 37.6529 68.7725 37.6529ZM71.9149 38.0249C71.8029 38.0249 71.7009 38.0042 71.6089 37.9629C71.5182 37.9202 71.4455 37.8562 71.3909 37.7709C71.3362 37.6842 71.3089 37.5756 71.3089 37.4449V35.5189H71.7349V37.4309C71.7349 37.6016 71.8155 37.6869 71.9769 37.6869C72.0249 37.6869 72.0729 37.6816 72.1209 37.6709C72.1689 37.6602 72.2235 37.6436 72.2849 37.6209L72.3469 37.9209C72.2735 37.9502 72.2022 37.9749 72.1329 37.9949C72.0635 38.0149 71.9909 38.0249 71.9149 38.0249ZM71.0269 36.3229V36.0389H72.2849V36.3229H71.0269ZM74.1735 37.9709V36.8389C74.1735 36.6829 74.1362 36.5656 74.0615 36.4869C73.9869 36.4069 73.8875 36.3669 73.7635 36.3669C73.6635 36.3669 73.5755 36.3949 73.4995 36.4509C73.4235 36.5056 73.3642 36.5869 73.3215 36.6949C73.2802 36.8029 73.2595 36.9356 73.2595 37.0929H73.1135C73.1135 36.8489 73.1442 36.6449 73.2055 36.4809C73.2669 36.3169 73.3542 36.1936 73.4675 36.1109C73.5822 36.0269 73.7182 35.9849 73.8755 35.9849C74.0329 35.9849 74.1649 36.0202 74.2715 36.0909C74.3795 36.1616 74.4609 36.2609 74.5155 36.3889C74.5702 36.5169 74.5975 36.6669 74.5975 36.8389V37.9709H74.1735ZM72.8335 37.9709V35.2309H73.2595V37.9709H72.8335ZM75.5483 35.6549C75.4643 35.6549 75.3983 35.6322 75.3503 35.5869C75.3036 35.5416 75.2803 35.4796 75.2803 35.4009C75.2803 35.3249 75.3036 35.2642 75.3503 35.2189C75.3983 35.1722 75.4643 35.1489 75.5483 35.1489C75.631 35.1489 75.6963 35.1722 75.7443 35.2189C75.7923 35.2642 75.8163 35.3249 75.8163 35.4009C75.8163 35.4796 75.7923 35.5416 75.7443 35.5869C75.6963 35.6322 75.631 35.6549 75.5483 35.6549ZM75.3363 37.9709V36.0329H75.7623V37.9709H75.3363ZM77.2916 38.0249C77.1063 38.0249 76.9476 37.9989 76.8156 37.9469C76.685 37.8949 76.585 37.8216 76.5156 37.7269C76.4463 37.6309 76.4103 37.5169 76.4076 37.3849H76.8036C76.809 37.4889 76.8503 37.5656 76.9276 37.6149C77.005 37.6629 77.1103 37.6869 77.2436 37.6869C77.317 37.6869 77.3823 37.6762 77.4396 37.6549C77.497 37.6322 77.5416 37.6022 77.5736 37.5649C77.607 37.5262 77.6236 37.4836 77.6236 37.4369C77.6236 37.3756 77.6016 37.3276 77.5576 37.2929C77.5136 37.2582 77.4436 37.2269 77.3476 37.1989L76.9396 37.0569C76.785 37.0036 76.6663 36.9322 76.5836 36.8429C76.501 36.7536 76.4596 36.6469 76.4596 36.5229C76.4596 36.3616 76.5316 36.2316 76.6756 36.1329C76.821 36.0342 77.0143 35.9849 77.2556 35.9849C77.501 35.9849 77.6903 36.0376 77.8236 36.1429C77.957 36.2482 78.0256 36.3809 78.0296 36.5409H77.6236C77.617 36.4716 77.583 36.4176 77.5216 36.3789C77.4616 36.3389 77.373 36.3189 77.2556 36.3189C77.1476 36.3189 77.063 36.3416 77.0016 36.3869C76.9403 36.4322 76.9096 36.4849 76.9096 36.5449C76.9096 36.6489 76.9983 36.7262 77.1756 36.7769L77.6116 36.9369C77.7663 36.9876 77.885 37.0529 77.9676 37.1329C78.0516 37.2129 78.0936 37.3142 78.0936 37.4369C78.0936 37.5369 78.0603 37.6322 77.9936 37.7229C77.927 37.8122 77.833 37.8849 77.7116 37.9409C77.5916 37.9969 77.4516 38.0249 77.2916 38.0249ZM80.6232 38.0249C80.4805 38.0249 80.3585 37.9942 80.2572 37.9329C80.1559 37.8702 80.0785 37.7769 80.0252 37.6529C79.9719 37.5289 79.9452 37.3742 79.9452 37.1889H80.1072C80.1072 37.2849 80.1285 37.3662 80.1712 37.4329C80.2139 37.4996 80.2699 37.5509 80.3392 37.5869C80.4099 37.6216 80.4845 37.6389 80.5632 37.6389C80.6472 37.6389 80.7292 37.6156 80.8092 37.5689C80.8892 37.5222 80.9552 37.4522 81.0072 37.3589C81.0592 37.2642 81.0852 37.1456 81.0852 37.0029C81.0852 36.8709 81.0625 36.7576 81.0172 36.6629C80.9732 36.5669 80.9119 36.4936 80.8332 36.4429C80.7559 36.3922 80.6685 36.3669 80.5712 36.3669C80.4885 36.3669 80.4112 36.3862 80.3392 36.4249C80.2685 36.4636 80.2119 36.5196 80.1692 36.5929C80.1279 36.6649 80.1072 36.7536 80.1072 36.8589H79.9452C79.9452 36.6602 79.9765 36.4962 80.0392 36.3669C80.1019 36.2376 80.1859 36.1416 80.2912 36.0789C80.3965 36.0162 80.5125 35.9849 80.6392 35.9849C80.7912 35.9849 80.9339 36.0256 81.0672 36.1069C81.2005 36.1882 81.3085 36.3049 81.3912 36.4569C81.4752 36.6076 81.5172 36.7896 81.5172 37.0029C81.5172 37.2176 81.4752 37.4009 81.3912 37.5529C81.3072 37.7049 81.1972 37.8216 81.0612 37.9029C80.9252 37.9842 80.7792 38.0249 80.6232 38.0249ZM79.6812 38.9169V36.0389H80.0312L80.1072 36.5089V38.9169H79.6812ZM83.4314 37.9709V36.8389C83.4314 36.6829 83.394 36.5656 83.3194 36.4869C83.2447 36.4069 83.1454 36.3669 83.0214 36.3669C82.9214 36.3669 82.8334 36.3949 82.7574 36.4509C82.6814 36.5056 82.622 36.5869 82.5794 36.6949C82.538 36.8029 82.5174 36.9356 82.5174 37.0929H82.3714C82.3714 36.8489 82.402 36.6449 82.4634 36.4809C82.5247 36.3169 82.612 36.1936 82.7254 36.1109C82.84 36.0269 82.976 35.9849 83.1334 35.9849C83.2907 35.9849 83.4227 36.0202 83.5294 36.0909C83.6374 36.1616 83.7187 36.2609 83.7734 36.3889C83.828 36.5169 83.8554 36.6669 83.8554 36.8389V37.9709H83.4314ZM82.0914 37.9709V35.2309H82.5174V37.9709H82.0914ZM85.3021 38.0249C85.1261 38.0249 84.9681 37.9869 84.8281 37.9109C84.6881 37.8349 84.5768 37.7216 84.4941 37.5709C84.4114 37.4202 84.3701 37.2322 84.3701 37.0069C84.3701 36.7776 84.4114 36.5876 84.4941 36.4369C84.5768 36.2862 84.6881 36.1736 84.8281 36.0989C84.9681 36.0229 85.1261 35.9849 85.3021 35.9849C85.4754 35.9849 85.6321 36.0229 85.7721 36.0989C85.9121 36.1736 86.0228 36.2862 86.1041 36.4369C86.1868 36.5876 86.2281 36.7776 86.2281 37.0069C86.2281 37.2322 86.1868 37.4202 86.1041 37.5709C86.0228 37.7216 85.9121 37.8349 85.7721 37.9109C85.6321 37.9869 85.4754 38.0249 85.3021 38.0249ZM85.2881 37.6529C85.3908 37.6529 85.4801 37.6282 85.5561 37.5789C85.6334 37.5282 85.6934 37.4549 85.7361 37.3589C85.7788 37.2629 85.8001 37.1456 85.8001 37.0069C85.8001 36.7949 85.7574 36.6329 85.6721 36.5209C85.5881 36.4089 85.4694 36.3529 85.3161 36.3529C85.2134 36.3529 85.1234 36.3782 85.0461 36.4289C84.9688 36.4782 84.9088 36.5516 84.8661 36.6489C84.8234 36.7449 84.8021 36.8642 84.8021 37.0069C84.8021 37.2149 84.8448 37.3749 84.9301 37.4869C85.0168 37.5976 85.1361 37.6529 85.2881 37.6529ZM88.1423 37.9709V36.8389C88.1423 36.6829 88.105 36.5656 88.0303 36.4869C87.9556 36.4069 87.8563 36.3669 87.7323 36.3669C87.6323 36.3669 87.5443 36.3949 87.4683 36.4509C87.3923 36.5056 87.333 36.5869 87.2903 36.6949C87.249 36.8029 87.2283 36.9356 87.2283 37.0929H87.0823C87.0823 36.8489 87.113 36.6449 87.1743 36.4809C87.2356 36.3169 87.323 36.1936 87.4363 36.1109C87.551 36.0269 87.687 35.9849 87.8443 35.9849C88.0016 35.9849 88.1336 36.0202 88.2403 36.0909C88.3483 36.1616 88.4296 36.2609 88.4843 36.3889C88.539 36.5169 88.5663 36.6669 88.5663 36.8389V37.9709H88.1423ZM86.8023 37.9709V36.0389H87.1723L87.2283 36.4389V37.9709H86.8023ZM89.977 38.0249C89.8117 38.0249 89.661 37.9822 89.525 37.8969C89.3904 37.8116 89.2824 37.6922 89.201 37.5389C89.121 37.3856 89.081 37.2076 89.081 37.0049C89.081 36.7929 89.121 36.6109 89.201 36.4589C89.281 36.3056 89.3884 36.1882 89.523 36.1069C89.659 36.0256 89.8104 35.9849 89.977 35.9849C90.129 35.9849 90.2597 36.0156 90.369 36.0769C90.4797 36.1382 90.5684 36.2209 90.635 36.3249C90.7017 36.4289 90.747 36.5469 90.771 36.6789C90.7964 36.8096 90.7997 36.9449 90.781 37.0849H89.423V36.8469H90.483L90.391 36.9069C90.395 36.8389 90.3917 36.7709 90.381 36.7029C90.3704 36.6349 90.3497 36.5722 90.319 36.5149C90.2897 36.4576 90.2477 36.4116 90.193 36.3769C90.1384 36.3422 90.0684 36.3249 89.983 36.3249C89.8804 36.3249 89.793 36.3516 89.721 36.4049C89.6504 36.4569 89.5964 36.5269 89.559 36.6149C89.523 36.7029 89.505 36.8009 89.505 36.9089V37.0809C89.505 37.1969 89.5224 37.3002 89.557 37.3909C89.5917 37.4802 89.6437 37.5509 89.713 37.6029C89.7837 37.6549 89.8717 37.6809 89.977 37.6809C90.0784 37.6809 90.1624 37.6569 90.229 37.6089C90.297 37.5609 90.3397 37.4896 90.357 37.3949H90.791C90.771 37.5202 90.7244 37.6302 90.651 37.7249C90.5777 37.8196 90.4837 37.8936 90.369 37.9469C90.2544 37.9989 90.1237 38.0249 89.977 38.0249ZM92.3306 38.0249C92.2079 38.0249 92.0953 37.9916 91.9926 37.9249C91.8913 37.8569 91.8106 37.7562 91.7506 37.6229C91.6906 37.4882 91.6606 37.3216 91.6606 37.1229H91.7986C91.7986 37.2282 91.8213 37.3196 91.8666 37.3969C91.9133 37.4742 91.9726 37.5342 92.0446 37.5769C92.1179 37.6182 92.1939 37.6389 92.2726 37.6389C92.3673 37.6389 92.4526 37.6129 92.5286 37.5609C92.6046 37.5076 92.6646 37.4329 92.7086 37.3369C92.7539 37.2396 92.7766 37.1256 92.7766 36.9949C92.7766 36.8682 92.7546 36.7582 92.7106 36.6649C92.6666 36.5702 92.6059 36.4969 92.5286 36.4449C92.4526 36.3929 92.3659 36.3669 92.2686 36.3669C92.1873 36.3669 92.1106 36.3869 92.0386 36.4269C91.9666 36.4669 91.9086 36.5249 91.8646 36.6009C91.8206 36.6756 91.7986 36.7676 91.7986 36.8769H91.6606C91.6606 36.6849 91.6893 36.5229 91.7466 36.3909C91.8039 36.2576 91.8846 36.1569 91.9886 36.0889C92.0939 36.0196 92.2179 35.9849 92.3606 35.9849C92.5166 35.9849 92.6586 36.0262 92.7866 36.1089C92.9146 36.1916 93.0166 36.3089 93.0926 36.4609C93.1699 36.6116 93.2086 36.7896 93.2086 36.9949C93.2086 37.2029 93.1686 37.3842 93.0886 37.5389C93.0099 37.6922 92.9039 37.8116 92.7706 37.8969C92.6386 37.9822 92.4919 38.0249 92.3306 38.0249ZM91.3726 37.9709V35.2309H91.7986V37.5009L91.6546 37.9709H91.3726ZM94.5482 38.0249C94.3722 38.0249 94.2142 37.9869 94.0742 37.9109C93.9342 37.8349 93.8229 37.7216 93.7402 37.5709C93.6575 37.4202 93.6162 37.2322 93.6162 37.0069C93.6162 36.7776 93.6575 36.5876 93.7402 36.4369C93.8229 36.2862 93.9342 36.1736 94.0742 36.0989C94.2142 36.0229 94.3722 35.9849 94.5482 35.9849C94.7215 35.9849 94.8782 36.0229 95.0182 36.0989C95.1582 36.1736 95.2689 36.2862 95.3502 36.4369C95.4329 36.5876 95.4742 36.7776 95.4742 37.0069C95.4742 37.2322 95.4329 37.4202 95.3502 37.5709C95.2689 37.7216 95.1582 37.8349 95.0182 37.9109C94.8782 37.9869 94.7215 38.0249 94.5482 38.0249ZM94.5342 37.6529C94.6369 37.6529 94.7262 37.6282 94.8022 37.5789C94.8795 37.5282 94.9395 37.4549 94.9822 37.3589C95.0249 37.2629 95.0462 37.1456 95.0462 37.0069C95.0462 36.7949 95.0035 36.6329 94.9182 36.5209C94.8342 36.4089 94.7155 36.3529 94.5622 36.3529C94.4595 36.3529 94.3695 36.3782 94.2922 36.4289C94.2149 36.4782 94.1549 36.5516 94.1122 36.6489C94.0695 36.7449 94.0482 36.8642 94.0482 37.0069C94.0482 37.2149 94.0909 37.3749 94.1762 37.4869C94.2629 37.5976 94.3822 37.6529 94.5342 37.6529ZM96.7904 38.0249C96.6144 38.0249 96.4564 37.9869 96.3164 37.9109C96.1764 37.8349 96.065 37.7216 95.9824 37.5709C95.8997 37.4202 95.8584 37.2322 95.8584 37.0069C95.8584 36.7776 95.8997 36.5876 95.9824 36.4369C96.065 36.2862 96.1764 36.1736 96.3164 36.0989C96.4564 36.0229 96.6144 35.9849 96.7904 35.9849C96.9637 35.9849 97.1204 36.0229 97.2604 36.0989C97.4004 36.1736 97.511 36.2862 97.5924 36.4369C97.675 36.5876 97.7164 36.7776 97.7164 37.0069C97.7164 37.2322 97.675 37.4202 97.5924 37.5709C97.511 37.7216 97.4004 37.8349 97.2604 37.9109C97.1204 37.9869 96.9637 38.0249 96.7904 38.0249ZM96.7764 37.6529C96.879 37.6529 96.9684 37.6282 97.0444 37.5789C97.1217 37.5282 97.1817 37.4549 97.2244 37.3589C97.267 37.2629 97.2884 37.1456 97.2884 37.0069C97.2884 36.7949 97.2457 36.6329 97.1604 36.5209C97.0764 36.4089 96.9577 36.3529 96.8044 36.3529C96.7017 36.3529 96.6117 36.3782 96.5344 36.4289C96.457 36.4782 96.397 36.5516 96.3544 36.6489C96.3117 36.7449 96.2904 36.8642 96.2904 37.0069C96.2904 37.2149 96.333 37.3749 96.4184 37.4869C96.505 37.5976 96.6244 37.6529 96.7764 37.6529ZM98.2906 37.9709V35.2309H98.7166V37.9709H98.2906ZM98.6566 36.7969L99.5306 36.0389H100.111L98.6566 37.2409V36.7969ZM99.6366 37.9709L98.7586 36.7429L99.1686 36.6489L100.159 37.9709H99.6366Z" fill="#3861A3"/>
<path d="M195.77 42.59L196.1 72.79C196.11 73.69 195.39 74.42 194.49 74.43L146.75 74.95C145.85 74.96 145.12 74.24 145.11 73.34L144.78 43.14C144.78 42.94 144.81 42.74 144.88 42.56C145.1 41.95 145.69 41.51 146.38 41.5L194.12 40.98C194.81 40.97 195.41 41.4 195.65 42.01C195.73 42.19 195.77 42.39 195.77 42.59Z" fill="#FFCF01"/>
<path d="M147.28 72.71L168.68 59.1C169.76 58.41 171.14 58.39 172.24 59.05L194.3 72.2L172.65 57.43C171.44 56.55 169.79 56.57 168.6 57.47L147.28 72.71Z" fill="#F19228"/>
<path d="M195.65 42.19L170.47 60.81L144.89 42.74C145.11 42.02 145.7 41.51 146.39 41.5L194.13 40.98C194.82 40.98 195.41 41.48 195.65 42.19Z" fill="#FFDD46"/>
<path d="M146.48 43.87L168.68 59.49C169.78 60.27 171.15 60.26 172.24 59.47L193.98 43.57L172.69 61.35C171.5 62.41 169.86 62.43 168.64 61.39L146.48 43.87Z" fill="#F19228"/>
<path d="M206.24 41.7115C207.498 36.47 204.27 31.2006 199.028 29.9419C193.787 28.6833 188.517 31.9121 187.259 37.1536C186 42.3951 189.229 47.6646 194.47 48.9232C199.712 50.1818 204.981 46.953 206.24 41.7115Z" fill="#EF4F8E"/>
<path d="M196.161 41.5015H198.307V33.901H196.592L194.048 35.6048L194.889 37.0873L196.161 36.3128V41.5015Z" fill="white"/>
<path d="M130 46H84V52H130V46Z" fill="#F1F2F2"/>
<path d="M130 54H95V60H130V54Z" fill="#F1F2F2"/>
<path d="M130 62H103V68H130V62Z" fill="#F1F2F2"/>
<path d="M208.03 56.8199C208.03 56.8199 274.42 55.1499 303.86 35.4399" stroke="#BCBEC0" stroke-miterlimit="10" stroke-linecap="round"/>
<path d="M297.95 34.09L304.36 34.96L304.24 41.43" stroke="#BCBEC0" stroke-miterlimit="10" stroke-linecap="round"/>
<path d="M208.03 57.09C208.03 57.09 274.42 58.76 303.86 78.47" stroke="#BCBEC0" stroke-miterlimit="10" stroke-linecap="round"/>
<path d="M297.95 79.82L304.36 78.94L304.24 72.47" stroke="#BCBEC0" stroke-miterlimit="10" stroke-linecap="round"/>
<path d="M321.667 36C321.667 36 321 36 321 35.3333C321 34.6667 321.667 32.6667 325 32.6667C328.333 32.6667 329 34.6667 329 35.3333C329 36 328.333 36 328.333 36H321.667ZM325 32C325.53 32 326.039 31.7893 326.414 31.4142C326.789 31.0391 327 30.5304 327 30C327 29.4696 326.789 28.9609 326.414 28.5858C326.039 28.2107 325.53 28 325 28C324.47 28 323.961 28.2107 323.586 28.5858C323.211 28.9609 323 29.4696 323 30C323 30.5304 323.211 31.0391 323.586 31.4142C323.961 31.7893 324.47 32 325 32Z" fill="#333333"/>
<path d="M321.667 56C321.667 56 321 56 321 55.3333C321 54.6667 321.667 52.6667 325 52.6667C328.333 52.6667 329 54.6667 329 55.3333C329 56 328.333 56 328.333 56H321.667ZM325 52C325.53 52 326.039 51.7893 326.414 51.4142C326.789 51.0391 327 50.5304 327 50C327 49.4696 326.789 48.9609 326.414 48.5858C326.039 48.2107 325.53 48 325 48C324.47 48 323.961 48.2107 323.586 48.5858C323.211 48.9609 323 49.4696 323 50C323 50.5304 323.211 51.0391 323.586 51.4142C323.961 51.7893 324.47 52 325 52Z" fill="#333333"/>
<path d="M321.667 76C321.667 76 321 76 321 75.3333C321 74.6667 321.667 72.6667 325 72.6667C328.333 72.6667 329 74.6667 329 75.3333C329 76 328.333 76 328.333 76H321.667ZM325 72C325.53 72 326.039 71.7893 326.414 71.4142C326.789 71.0391 327 70.5304 327 70C327 69.4696 326.789 68.9609 326.414 68.5858C326.039 68.2107 325.53 68 325 68C324.47 68 323.961 68.2107 323.586 68.5858C323.211 68.9609 323 69.4696 323 70C323 70.5304 323.211 71.0391 323.586 71.4142C323.961 71.7893 324.47 72 325 72Z" fill="#333333"/>
</g>
<defs>
<clipPath id="clip0">
<rect width="374" height="84" fill="white"/>
</clipPath>
</defs>
</svg>
