<svg width="374" height="84" viewBox="0 0 374 84" fill="none" xmlns="http://www.w3.org/2000/svg">
<path d="M374 84H0V4.59569C0 2.05887 2.05888 0 4.59572 0H369.404C371.941 0 374 2.05887 374 4.59569V84Z" fill="#193D5D"/>
<path d="M374 84.0001H26.0027V18.8332C26.0027 16.6089 27.8042 14.8074 30.0285 14.8074H374V84.0001Z" fill="#1F4B71"/>
<path d="M374 14.8074H195.842V84.0001H374V14.8074Z" fill="white"/>
<path d="M68.0287 48.0261H72.2857V48.7741H68.8977V51.0951H72.0877V51.8321H68.8977V54.1861H72.2857V54.9451H68.0287V48.0261ZM76.3615 50.4241C75.5328 50.4241 75.1038 51.0767 75.0745 52.3821V54.9451H74.2055V49.6761H75.0745V50.6881C75.3385 49.9547 75.8041 49.5881 76.4715 49.5881C76.6841 49.5881 76.8858 49.6211 77.0765 49.6871L77.0325 50.5341C76.8125 50.4607 76.5888 50.4241 76.3615 50.4241ZM80.5509 50.4241C79.7223 50.4241 79.2933 51.0767 79.2639 52.3821V54.9451H78.3949V49.6761H79.2639V50.6881C79.5279 49.9547 79.9936 49.5881 80.6609 49.5881C80.8736 49.5881 81.0753 49.6211 81.2659 49.6871L81.2219 50.5341C81.0019 50.4607 80.7783 50.4241 80.5509 50.4241ZM84.4874 49.5551C85.2207 49.5551 85.811 49.7934 86.2584 50.2701C86.713 50.7467 86.9404 51.4287 86.9404 52.3161C86.9404 53.1961 86.713 53.8744 86.2584 54.3511C85.811 54.8277 85.2207 55.0661 84.4874 55.0661C83.754 55.0661 83.16 54.8277 82.7054 54.3511C82.258 53.8744 82.0344 53.1961 82.0344 52.3161C82.0344 51.4287 82.258 50.7467 82.7054 50.2701C83.16 49.7934 83.754 49.5551 84.4874 49.5551ZM86.0604 52.3161C86.0604 51.6854 85.9284 51.1941 85.6644 50.8421C85.4004 50.4827 85.0117 50.3031 84.4984 50.3031C83.9924 50.3031 83.6037 50.4827 83.3324 50.8421C83.061 51.1941 82.9254 51.6854 82.9254 52.3161C82.9254 52.9394 83.0537 53.4307 83.3104 53.7901C83.567 54.1421 83.9484 54.3181 84.4544 54.3181C84.9677 54.3181 85.3637 54.1421 85.6424 53.7901C85.921 53.4307 86.0604 52.9394 86.0604 52.3161ZM90.7453 50.4241C89.9166 50.4241 89.4876 51.0767 89.4583 52.3821V54.9451H88.5893V49.6761H89.4583V50.6881C89.7223 49.9547 90.1879 49.5881 90.8553 49.5881C91.0679 49.5881 91.2696 49.6211 91.4603 49.6871L91.4163 50.5341C91.1963 50.4607 90.9726 50.4241 90.7453 50.4241ZM71.6367 60.9271V65.5251H72.8357V66.2731H71.6367V67.9451H70.7897V66.2731H67.2147V65.6021L70.8337 60.9271H71.6367ZM68.2487 65.6021H70.8117V62.3021L68.2487 65.6021ZM76.3512 60.9051C77.1872 60.9051 77.8472 61.2131 78.3312 61.8291C78.8152 62.4451 79.0572 63.3324 79.0572 64.4911C79.0572 65.6424 78.8152 66.5261 78.3312 67.1421C77.8472 67.7581 77.1872 68.0661 76.3512 68.0661C75.5152 68.0661 74.8516 67.7617 74.3602 67.1531C73.8762 66.5444 73.6342 65.6571 73.6342 64.4911C73.6342 63.3177 73.8762 62.4267 74.3602 61.8181C74.8516 61.2094 75.5152 60.9051 76.3512 60.9051ZM78.1552 64.4911C78.1552 63.5891 78.0012 62.8997 77.6932 62.4231C77.3852 61.9391 76.9342 61.6971 76.3402 61.6971C75.7536 61.6971 75.3062 61.9391 74.9982 62.4231C74.6902 62.8997 74.5362 63.5891 74.5362 64.4911C74.5362 65.3857 74.6902 66.0751 74.9982 66.5591C75.3062 67.0357 75.7536 67.2741 76.3402 67.2741C76.9342 67.2741 77.3852 67.0357 77.6932 66.5591C78.0012 66.0751 78.1552 65.3857 78.1552 64.4911ZM84.2795 62.7751C84.1548 62.0564 83.7625 61.6971 83.1025 61.6971C82.4425 61.6971 81.9328 61.9684 81.5735 62.5111C81.2215 63.0537 81.0455 63.7944 81.0455 64.7331C81.0455 65.1217 81.0638 65.4444 81.1005 65.7011C81.1445 65.0264 81.3498 64.5387 81.7165 64.2381C82.0905 63.9301 82.5672 63.7761 83.1465 63.7761C83.7258 63.7761 84.2245 63.9814 84.6425 64.3921C85.0605 64.7954 85.2695 65.3161 85.2695 65.9541C85.2695 66.5847 85.0532 67.0981 84.6205 67.4941C84.1878 67.8827 83.6195 68.0771 82.9155 68.0771C82.0942 68.0771 81.4305 67.7471 80.9245 67.0871C80.4185 66.4271 80.1655 65.5617 80.1655 64.4911C80.1655 63.4131 80.4222 62.5477 80.9355 61.8951C81.4488 61.2351 82.1492 60.9051 83.0365 60.9051C83.6525 60.9051 84.1548 61.0774 84.5435 61.4221C84.9322 61.7667 85.1558 62.2177 85.2145 62.7751H84.2795ZM82.9155 64.5461C82.5048 64.5461 82.1602 64.6781 81.8815 64.9421C81.6102 65.1987 81.4745 65.5287 81.4745 65.9321C81.4745 66.3354 81.6102 66.6617 81.8815 66.9111C82.1528 67.1531 82.4975 67.2741 82.9155 67.2741C83.3335 67.2741 83.6782 67.1531 83.9495 66.9111C84.2282 66.6691 84.3675 66.3354 84.3675 65.9101C84.3675 65.4847 84.2282 65.1511 83.9495 64.9091C83.6782 64.6671 83.3335 64.5461 82.9155 64.5461Z" fill="white"/>
<path d="M297.352 31.8113H205.346C205.089 31.8113 204.886 31.609 204.886 31.3517V27.4913C204.886 27.2339 205.089 27.0317 205.346 27.0317H297.362C297.619 27.0317 297.821 27.2339 297.821 27.4913V31.3517C297.812 31.609 297.61 31.8113 297.352 31.8113Z" fill="#00AEEF"/>
<path d="M297.812 60.1025H204.886V55.7826C204.886 55.5252 205.089 55.323 205.346 55.323H297.821V60.1025H297.812Z" fill="#D1D3D4"/>
<path d="M316.728 41.2417H212.479V36.9217C212.479 36.6644 212.681 36.4622 212.938 36.4622H316.728V41.2417Z" fill="#D1D3D4"/>
<path d="M313.768 50.6721H209.519V46.3521C209.519 46.0948 209.721 45.8926 209.979 45.8926H313.768V50.6721Z" fill="#D1D3D4"/>
<path d="M318.364 69.5327H214.115V65.2127C214.115 64.9554 214.317 64.7532 214.574 64.7532H318.364V69.5327Z" fill="#D1D3D4"/>
</svg>
