<svg width="407" height="92" viewBox="0 0 407 92" fill="none" xmlns="http://www.w3.org/2000/svg">
<g clip-path="url(#clip0)">
<path d="M407.27 91.28H0.360001V4.89001C0.360001 2.13001 2.6 -0.109985 5.36 -0.109985H402.26C405.02 -0.109985 407.26 2.13001 407.26 4.89001V91.28H407.27Z" fill="#52B68D"/>
<path d="M407.12 91.22H28.51V20.32C28.51 17.9 30.47 15.94 32.89 15.94H407.13V91.22H407.12Z" fill="white"/>
<path opacity="0.2" d="M168.55 85.33V43.09C168.55 41.71 169.44 40.59 170.55 40.59H174.05C175.15 40.59 176.05 41.71 176.05 43.09V85.34C176.05 86.72 175.16 87.84 174.05 87.84H170.54C169.45 87.84 168.55 86.72 168.55 85.33Z" fill="#37599C"/>
<path d="M168.55 85.92V53.5C168.55 52.44 169.44 51.58 170.55 51.58H174.05C175.15 51.58 176.05 52.44 176.05 53.5V85.91C176.05 86.97 175.16 87.83 174.05 87.83H170.54C169.45 87.84 168.55 86.98 168.55 85.92Z" fill="#37599C"/>
<path opacity="0.2" d="M207.03 85.64V48.53C207.03 47.32 207.92 46.33 209.03 46.33H212.53C213.63 46.33 214.53 47.31 214.53 48.53V85.64C214.53 86.85 213.64 87.84 212.53 87.84H209.02C207.92 87.84 207.03 86.85 207.03 85.64Z" fill="#37599C"/>
<path d="M207.03 86.15V57.68C207.03 56.75 207.92 55.99 209.03 55.99H212.53C213.63 55.99 214.53 56.74 214.53 57.68V86.15C214.53 87.08 213.64 87.84 212.53 87.84H209.02C207.92 87.84 207.03 87.08 207.03 86.15Z" fill="#37599C"/>
<path opacity="0.2" d="M282.71 85.64V48.53C282.71 47.32 283.6 46.33 284.71 46.33H288.21C289.31 46.33 290.21 47.31 290.21 48.53V85.64C290.21 86.85 289.32 87.84 288.21 87.84H284.7C283.6 87.84 282.71 86.85 282.71 85.64Z" fill="#37599C"/>
<path d="M282.71 86.15V57.68C282.71 56.75 283.6 55.99 284.71 55.99H288.21C289.31 55.99 290.21 56.74 290.21 57.68V86.15C290.21 87.08 289.32 87.84 288.21 87.84H284.7C283.6 87.84 282.71 87.08 282.71 86.15Z" fill="#37599C"/>
<path opacity="0.2" d="M367.18 85.64V48.53C367.18 47.32 368.07 46.33 369.18 46.33H372.68C373.78 46.33 374.68 47.31 374.68 48.53V85.64C374.68 86.85 373.79 87.84 372.68 87.84H369.17C368.08 87.84 367.18 86.85 367.18 85.64Z" fill="#37599C"/>
<path d="M367.18 86.15V57.68C367.18 56.75 368.07 55.99 369.18 55.99H372.68C373.78 55.99 374.68 56.74 374.68 57.68V86.15C374.68 87.08 373.79 87.84 372.68 87.84H369.17C368.08 87.84 367.18 87.08 367.18 86.15Z" fill="#37599C"/>
<path opacity="0.2" d="M245.31 84.86V34.65C245.31 33.01 246.2 31.68 247.31 31.68H250.81C251.91 31.68 252.81 33.01 252.81 34.65V84.86C252.81 86.5 251.92 87.83 250.81 87.83H247.3C246.21 87.84 245.31 86.5 245.31 84.86Z" fill="#37599C"/>
<path d="M245.31 85.55V47.03C245.31 45.77 246.2 44.75 247.31 44.75H250.81C251.91 44.75 252.81 45.77 252.81 47.03V85.56C252.81 86.82 251.92 87.84 250.81 87.84H247.3C246.21 87.84 245.31 86.81 245.31 85.55Z" fill="#37599C"/>
<path opacity="0.2" d="M321.89 84.46V27.54C321.89 25.68 322.78 24.17 323.89 24.17H327.39C328.49 24.17 329.39 25.68 329.39 27.54V84.46C329.39 86.32 328.5 87.83 327.39 87.83H323.88C322.79 87.84 321.89 86.33 321.89 84.46Z" fill="#37599C"/>
<path d="M321.89 85.02V37.46C321.89 35.9 322.78 34.64 323.89 34.64H327.39C328.49 34.64 329.39 35.9 329.39 37.46V85.02C329.39 86.58 328.5 87.84 327.39 87.84H323.88C322.79 87.84 321.89 86.58 321.89 85.02Z" fill="#37599C"/>
<path opacity="0.2" d="M118.4 41.17H53.93C51.82 41.17 50.11 39.38 50.11 37.17V30.16C50.11 27.95 51.82 26.16 53.93 26.16H118.39C120.5 26.16 122.21 27.95 122.21 30.16V37.18C122.22 39.39 120.51 41.17 118.4 41.17Z" fill="#37599C"/>
<path d="M65.8255 30.1454H67.1269L68.9999 35.8523H67.9007L67.505 34.6212H65.3858L64.9813 35.8523H63.8822L65.8255 30.1454ZM65.6496 33.8386H67.25L66.4586 31.3853L65.6496 33.8386ZM70.0109 29.8201H71.0485V35.8523H70.0109V29.8201ZM72.6815 29.8201H73.7191V35.8523H72.6815V29.8201ZM78.6138 30.1454V32.5284H81.1023V30.1454H82.1399V35.8523H81.1023V33.4341H78.6138V35.8523H77.5762V30.1454H78.6138ZM83.8727 31.57H84.9103V35.8523H83.8727V31.57ZM83.7496 30.1982C83.7496 30.0106 83.8053 29.8641 83.9167 29.7585C84.028 29.6472 84.1863 29.5915 84.3915 29.5915C84.5908 29.5915 84.7462 29.6472 84.8575 29.7585C84.9748 29.8641 85.0334 30.0106 85.0334 30.1982C85.0334 30.3858 84.9748 30.5353 84.8575 30.6467C84.7462 30.7522 84.5908 30.8049 84.3915 30.8049C84.1863 30.8049 84.028 30.7522 83.9167 30.6467C83.8053 30.5353 83.7496 30.3858 83.7496 30.1982ZM87.2504 34.5509C87.2621 34.9554 87.5582 35.1576 88.1385 35.1576C88.3613 35.1576 88.543 35.1107 88.6837 35.0169C88.8303 34.9173 88.9036 34.803 88.9036 34.674C88.9036 34.545 88.8596 34.4454 88.7717 34.375C88.6837 34.3047 88.546 34.2402 88.3584 34.1816L87.4263 33.8474C86.7345 33.6071 86.3887 33.2143 86.3887 32.6691C86.3887 32.3057 86.5499 32.0155 86.8723 31.7986C87.2006 31.5758 87.6373 31.4644 88.1825 31.4644C88.7336 31.4644 89.1556 31.5846 89.4487 31.825C89.7477 32.0653 89.9031 32.3672 89.9148 32.7307H88.9387C88.927 32.59 88.8596 32.4786 88.7365 32.3965C88.6134 32.3145 88.4375 32.2734 88.2089 32.2734C87.9803 32.2734 87.8015 32.3203 87.6725 32.4141C87.5494 32.502 87.4878 32.6046 87.4878 32.7219C87.4878 32.9271 87.6608 33.0795 88.0066 33.1791L89.0179 33.5572C89.352 33.6686 89.607 33.8122 89.7829 33.9881C89.9646 34.1581 90.0555 34.3809 90.0555 34.6564C90.0555 35.0081 89.8884 35.313 89.5543 35.5709C89.2084 35.8406 88.7511 35.9754 88.1825 35.9754C87.6139 35.9754 87.1566 35.8523 86.8108 35.6061C86.4649 35.354 86.289 35.0023 86.2832 34.5509H87.2504ZM93.7165 35.7468C93.3296 35.8992 93.0248 35.9754 92.802 35.9754C92.5793 35.9754 92.3829 35.949 92.2129 35.8963C92.0487 35.8435 91.9022 35.7644 91.7732 35.6588C91.5035 35.4185 91.3687 35.0873 91.3687 34.6652V32.2734H90.7708V31.5788H91.3687V30.4532H92.4063V31.5788H93.567V32.2734H92.4063V34.63C92.4063 34.9818 92.5734 35.1576 92.9075 35.1576C93.0775 35.1576 93.2974 35.1107 93.567 35.0169L93.7165 35.7468ZM96.4559 31.4644C96.7432 31.4644 97.0128 31.5113 97.2649 31.6051C97.517 31.6931 97.7339 31.8308 97.9156 32.0184C98.3201 32.4288 98.5223 32.9974 98.5223 33.7243C98.5223 34.4395 98.3201 35.0023 97.9156 35.4126C97.5521 35.7878 97.0656 35.9754 96.4559 35.9754C95.8462 35.9754 95.3538 35.7878 94.9786 35.4126C94.5741 35.0081 94.3719 34.4454 94.3719 33.7243C94.3719 32.9915 94.5741 32.4229 94.9786 32.0184C95.348 31.6491 95.8404 31.4644 96.4559 31.4644ZM97.4847 33.7155C97.4847 33.2641 97.3968 32.9271 97.2209 32.7043C97.0451 32.4757 96.7988 32.3614 96.4823 32.3614C96.1716 32.3614 95.9166 32.4757 95.7173 32.7043C95.518 32.9271 95.4183 33.2641 95.4183 33.7155C95.4183 34.1669 95.5062 34.5069 95.6821 34.7355C95.8638 34.9583 96.11 35.0697 96.4207 35.0697C96.7314 35.0697 96.9864 34.9583 97.1857 34.7355C97.3851 34.5069 97.4847 34.1669 97.4847 33.7155ZM100.795 32.4229C101.053 31.8074 101.439 31.4996 101.955 31.4996C102.055 31.4996 102.181 31.5201 102.333 31.5612L102.316 32.5988C102.152 32.5636 101.99 32.546 101.832 32.546C101.14 32.546 100.795 33.0238 100.795 33.9793V35.8523H99.757V31.57H100.795V32.4229ZM103.943 31.5788L104.972 34.6564L105.868 31.5788H106.924L105.288 36.6261C105.118 37.1361 104.91 37.5025 104.664 37.7253C104.423 37.948 104.116 38.0594 103.74 38.0594C103.359 38.0594 102.978 37.9656 102.597 37.778V36.8635C102.902 37.057 103.21 37.1537 103.521 37.1537C103.726 37.1537 103.893 37.0716 104.022 36.9075C104.157 36.7433 104.265 36.5294 104.347 36.2656L104.479 35.8523L102.764 31.5788H103.943Z" fill="#37599C"/>
<path d="M63.7415 55.2592H68.0414V55.8572H66.2388V60.7902H65.5441V55.8572H63.7415V55.2592ZM69.7989 56.4815C70.3852 56.4815 70.8571 56.672 71.2147 57.053C71.5781 57.4341 71.7599 57.9793 71.7599 58.6886C71.7599 59.3921 71.5781 59.9343 71.2147 60.3154C70.8571 60.6964 70.3852 60.8869 69.7989 60.8869C69.2127 60.8869 68.7379 60.6964 68.3744 60.3154C68.0168 59.9343 67.838 59.3921 67.838 58.6886C67.838 57.9793 68.0168 57.4341 68.3744 57.053C68.7379 56.672 69.2127 56.4815 69.7989 56.4815ZM71.0564 58.6886C71.0564 58.1844 70.9509 57.7917 70.7398 57.5103C70.5288 57.223 70.2181 57.0794 69.8077 57.0794C69.4033 57.0794 69.0926 57.223 68.8757 57.5103C68.6588 57.7917 68.5503 58.1844 68.5503 58.6886C68.5503 59.1869 68.6529 59.5796 68.8581 59.8669C69.0632 60.1483 69.3681 60.289 69.7726 60.289C70.1829 60.289 70.4995 60.1483 70.7222 59.8669C70.945 59.5796 71.0564 59.1869 71.0564 58.6886ZM73.7375 57.2289C74.013 56.7306 74.4233 56.4815 74.9685 56.4815C75.5196 56.4815 75.9768 56.6837 76.3403 57.0882C76.7096 57.4927 76.8942 58.0262 76.8942 58.6886C76.8942 59.351 76.7096 59.8845 76.3403 60.289C75.971 60.6876 75.5166 60.8869 74.9773 60.8869C74.438 60.8869 74.0394 60.6847 73.7814 60.2802V62.8566H73.0868V56.587H73.6583L73.7375 57.2289ZM74.9421 60.2714C75.2704 60.2714 75.5577 60.1307 75.8039 59.8493C76.056 59.5679 76.182 59.1839 76.182 58.6974C76.182 58.205 76.0618 57.8151 75.8215 57.5279C75.587 57.2406 75.2997 57.097 74.9597 57.097C74.6197 57.097 74.3413 57.2055 74.1244 57.4224C73.9075 57.6334 73.7931 57.9206 73.7814 58.2841V59.0843C73.7814 59.4536 73.8928 59.7438 74.1156 59.9548C74.3383 60.1659 74.6139 60.2714 74.9421 60.2714ZM83.3488 56.6046C83.2491 56.0653 82.8535 55.7956 82.1617 55.7956C81.7924 55.7956 81.5081 55.8777 81.3088 56.0418C81.1094 56.2001 81.0098 56.3935 81.0098 56.6222C81.0098 56.8449 81.0713 57.0149 81.1944 57.1322C81.3176 57.2494 81.5169 57.352 81.7924 57.4399L82.9443 57.8356C83.3371 57.9705 83.6478 58.1551 83.8764 58.3896C84.1109 58.6241 84.2281 58.9553 84.2281 59.3833C84.2281 59.8053 84.0464 60.1629 83.683 60.456C83.3195 60.7433 82.8329 60.8869 82.2233 60.8869C81.6136 60.8869 81.1124 60.7345 80.7196 60.4297C80.3327 60.119 80.1334 59.6852 80.1217 59.1283H80.7987C80.7987 59.4917 80.9248 59.7702 81.1769 59.9636C81.4348 60.1571 81.7631 60.2538 82.1617 60.2538C82.5662 60.2538 82.8857 60.1659 83.1202 59.99C83.3547 59.8083 83.4719 59.5972 83.4719 59.3569C83.4719 59.1107 83.3986 58.9172 83.2521 58.7765C83.1114 58.6358 82.9003 58.5186 82.619 58.4248L81.6429 58.0643C81.1857 57.9119 80.8398 57.7301 80.6053 57.5191C80.3708 57.308 80.2536 57.0003 80.2536 56.5958C80.2536 56.1854 80.4177 55.8454 80.746 55.5758C81.0743 55.3002 81.5345 55.1625 82.1265 55.1625C82.7186 55.1625 83.17 55.2944 83.4807 55.5582C83.7973 55.8161 83.979 56.1649 84.0259 56.6046H83.3488ZM87.9254 60.6671C87.4213 60.9016 86.9611 60.9514 86.5449 60.8166C86.2459 60.7228 86.0349 60.5264 85.9118 60.2274C85.8473 60.0809 85.8151 59.905 85.8151 59.6998V57.1146H85.138V56.587H85.8151V55.4175H86.5009V56.587H87.8199V57.1146H86.5009V59.691C86.5009 60.119 86.7002 60.3329 87.0989 60.3329C87.3158 60.3329 87.5591 60.2802 87.8287 60.1747L87.9254 60.6671ZM91.636 58.0643C91.636 57.6832 91.5569 57.4106 91.3986 57.2465C91.2403 57.0824 91.0088 57.0003 90.7039 57.0003C90.4049 57.0003 90.1617 57.0618 89.9741 57.1849C89.7923 57.3022 89.7015 57.4898 89.7015 57.7477H88.9365C88.9365 57.1029 89.2823 56.7042 89.9741 56.5518C90.1851 56.5049 90.4137 56.4815 90.66 56.4815C91.1817 56.4815 91.5891 56.6134 91.8822 56.8772C92.1753 57.141 92.3219 57.5425 92.3219 58.0819V60.7902H91.7239L91.6536 60.0867C91.3957 60.6202 90.9296 60.8869 90.2555 60.8869C89.8041 60.8869 89.4406 60.7609 89.1651 60.5088C88.8954 60.2567 88.7606 59.9431 88.7606 59.5679C88.7606 59.1927 88.9101 58.8996 89.2091 58.6886C89.5139 58.4776 89.892 58.372 90.3434 58.372C90.7948 58.372 91.2257 58.4482 91.636 58.6007V58.0643ZM91.636 59.0403C91.2198 58.9231 90.8563 58.8645 90.5456 58.8645C90.2349 58.8645 89.9829 58.9201 89.7894 59.0315C89.596 59.1429 89.4992 59.3188 89.4992 59.5591C89.4992 60.0867 89.7982 60.3505 90.3962 60.3505C90.7362 60.3505 91.0263 60.2304 91.2667 59.99C91.5129 59.7438 91.636 59.4272 91.636 59.0403ZM96.152 60.6671C95.6478 60.9016 95.1877 60.9514 94.7714 60.8166C94.4725 60.7228 94.2614 60.5264 94.1383 60.2274C94.0738 60.0809 94.0416 59.905 94.0416 59.6998V57.1146H93.3645V56.587H94.0416V55.4175H94.7275V56.587H96.0465V57.1146H94.7275V59.691C94.7275 60.119 94.9268 60.3329 95.3254 60.3329C95.5423 60.3329 95.7856 60.2802 96.0553 60.1747L96.152 60.6671ZM97.0399 57.6158C97.0399 57.2699 97.1865 56.9944 97.4796 56.7892C97.7785 56.5841 98.1801 56.4815 98.6843 56.4815C99.1884 56.4815 99.5812 56.587 99.8626 56.798C100.15 57.0091 100.299 57.2758 100.311 57.5982H99.6339C99.5812 57.2172 99.2587 57.0267 98.6667 57.0267C98.3794 57.0267 98.1567 57.0911 97.9984 57.2201C97.846 57.3491 97.7697 57.4898 97.7697 57.6422C97.7697 57.7887 97.8284 57.9148 97.9456 58.0203C98.0629 58.12 98.2504 58.2079 98.5084 58.2841L99.3525 58.5655C99.7101 58.6769 99.9827 58.8205 100.17 58.9964C100.364 59.1664 100.46 59.4038 100.46 59.7086C100.46 60.0076 100.305 60.2802 99.9945 60.5264C99.6838 60.7667 99.25 60.8869 98.693 60.8869C98.1361 60.8869 97.7023 60.7638 97.3916 60.5176C97.0809 60.2655 96.9168 59.9431 96.8992 59.5503H97.5675C97.5792 59.8141 97.6847 60.0135 97.8841 60.1483C98.0892 60.2772 98.3442 60.3417 98.6491 60.3417C98.9539 60.3417 99.206 60.2772 99.4053 60.1483C99.6046 60.0193 99.7043 59.8669 99.7043 59.691C99.7043 59.5093 99.6457 59.3715 99.5284 59.2777C99.4112 59.1839 99.2206 59.1019 98.9568 59.0315L98.1391 58.7589C97.4063 58.542 97.0399 58.161 97.0399 57.6158ZM102.003 60.5879C101.856 60.5879 101.733 60.541 101.633 60.4473C101.539 60.3476 101.493 60.2304 101.493 60.0955C101.493 59.9548 101.539 59.8376 101.633 59.7438C101.733 59.6441 101.856 59.5943 102.003 59.5943C102.155 59.5943 102.281 59.6441 102.381 59.7438C102.48 59.8376 102.53 59.9548 102.53 60.0955C102.53 60.2304 102.48 60.3476 102.381 60.4473C102.281 60.541 102.155 60.5879 102.003 60.5879ZM102.003 57.8972C101.856 57.8972 101.733 57.8503 101.633 57.7565C101.539 57.6568 101.493 57.5396 101.493 57.4048C101.493 57.2641 101.539 57.1468 101.633 57.053C101.733 56.9534 101.856 56.9036 102.003 56.9036C102.155 56.9036 102.281 56.9534 102.381 57.053C102.48 57.1468 102.53 57.2641 102.53 57.4048C102.53 57.5396 102.48 57.6568 102.381 57.7565C102.281 57.8503 102.155 57.8972 102.003 57.8972Z" fill="#52B68D"/>
<path d="M65.1867 67.8886L66.6707 70.8706L68.1407 67.8886H68.9177V72.2916H68.3647V68.6726L66.8527 71.7386H66.4817L64.9487 68.6236V72.2916H64.3957V67.8886H65.1867ZM71.4843 71.9206C71.9463 71.9206 72.21 71.7176 72.2753 71.3116H72.8423C72.791 71.6476 72.6416 71.9089 72.3943 72.0956C72.1516 72.2776 71.8483 72.3686 71.4843 72.3686C71.0363 72.3686 70.6723 72.2099 70.3923 71.8926C70.1123 71.5706 69.9723 71.1436 69.9723 70.6116C69.9723 70.0796 70.1123 69.6549 70.3923 69.3376C70.677 69.0203 71.0526 68.8616 71.5193 68.8616C71.9906 68.8616 72.3406 69.0436 72.5693 69.4076C72.8026 69.7716 72.8843 70.2149 72.8143 70.7376H70.5253C70.5253 71.0829 70.6093 71.3676 70.7773 71.5916C70.9453 71.8109 71.181 71.9206 71.4843 71.9206ZM71.8903 69.3866C71.783 69.3306 71.6523 69.3026 71.4983 69.3026C71.2136 69.3026 70.9873 69.4006 70.8193 69.5966C70.656 69.7879 70.5603 70.0283 70.5323 70.3176H72.3173C72.3173 69.8509 72.175 69.5406 71.8903 69.3866ZM73.7568 69.7646C73.7568 69.4893 73.8735 69.2699 74.1068 69.1066C74.3448 68.9433 74.6645 68.8616 75.0658 68.8616C75.4672 68.8616 75.7798 68.9456 76.0038 69.1136C76.2325 69.2816 76.3515 69.4939 76.3608 69.7506H75.8218C75.7798 69.4473 75.5232 69.2956 75.0518 69.2956C74.8232 69.2956 74.6458 69.3469 74.5198 69.4496C74.3985 69.5523 74.3378 69.6643 74.3378 69.7856C74.3378 69.9023 74.3845 70.0026 74.4778 70.0866C74.5712 70.1659 74.7205 70.2359 74.9258 70.2966L75.5978 70.5206C75.8825 70.6093 76.0995 70.7236 76.2488 70.8636C76.4028 70.9989 76.4798 71.1879 76.4798 71.4306C76.4798 71.6686 76.3562 71.8856 76.1088 72.0816C75.8615 72.2729 75.5162 72.3686 75.0728 72.3686C74.6295 72.3686 74.2842 72.2706 74.0368 72.0746C73.7895 71.8739 73.6588 71.6173 73.6448 71.3046H74.1768C74.1862 71.5146 74.2702 71.6733 74.4288 71.7806C74.5922 71.8833 74.7952 71.9346 75.0378 71.9346C75.2805 71.9346 75.4812 71.8833 75.6398 71.7806C75.7985 71.6779 75.8778 71.5566 75.8778 71.4166C75.8778 71.2719 75.8312 71.1623 75.7378 71.0876C75.6445 71.0129 75.4928 70.9476 75.2828 70.8916L74.6318 70.6746C74.0485 70.5019 73.7568 70.1986 73.7568 69.7646ZM77.4414 69.7646C77.4414 69.4893 77.5581 69.2699 77.7914 69.1066C78.0294 68.9433 78.3491 68.8616 78.7504 68.8616C79.1517 68.8616 79.4644 68.9456 79.6884 69.1136C79.9171 69.2816 80.0361 69.4939 80.0454 69.7506H79.5064C79.4644 69.4473 79.2077 69.2956 78.7364 69.2956C78.5077 69.2956 78.3304 69.3469 78.2044 69.4496C78.0831 69.5523 78.0224 69.6643 78.0224 69.7856C78.0224 69.9023 78.0691 70.0026 78.1624 70.0866C78.2557 70.1659 78.4051 70.2359 78.6104 70.2966L79.2824 70.5206C79.5671 70.6093 79.7841 70.7236 79.9334 70.8636C80.0874 70.9989 80.1644 71.1879 80.1644 71.4306C80.1644 71.6686 80.0407 71.8856 79.7934 72.0816C79.5461 72.2729 79.2007 72.3686 78.7574 72.3686C78.3141 72.3686 77.9687 72.2706 77.7214 72.0746C77.4741 71.8739 77.3434 71.6173 77.3294 71.3046H77.8614C77.8707 71.5146 77.9547 71.6733 78.1134 71.7806C78.2767 71.8833 78.4797 71.9346 78.7224 71.9346C78.9651 71.9346 79.1657 71.8833 79.3244 71.7806C79.4831 71.6779 79.5624 71.5566 79.5624 71.4166C79.5624 71.2719 79.5157 71.1623 79.4224 71.0876C79.3291 71.0129 79.1774 70.9476 78.9674 70.8916L78.3164 70.6746C77.7331 70.5019 77.4414 70.1986 77.4414 69.7646ZM83.373 70.1216C83.373 69.8183 83.31 69.6013 83.184 69.4706C83.058 69.3399 82.8736 69.2746 82.631 69.2746C82.393 69.2746 82.1993 69.3236 82.05 69.4216C81.9053 69.5149 81.833 69.6643 81.833 69.8696H81.224C81.224 69.3563 81.4993 69.0389 82.05 68.9176C82.218 68.8803 82.4 68.8616 82.596 68.8616C83.0113 68.8616 83.3356 68.9666 83.569 69.1766C83.8023 69.3866 83.919 69.7063 83.919 70.1356V72.2916H83.443L83.387 71.7316C83.1816 72.1563 82.8106 72.3686 82.274 72.3686C81.9146 72.3686 81.6253 72.2683 81.406 72.0676C81.1913 71.8669 81.084 71.6173 81.084 71.3186C81.084 71.0199 81.203 70.7866 81.441 70.6186C81.6836 70.4506 81.9846 70.3666 82.344 70.3666C82.7033 70.3666 83.0463 70.4273 83.373 70.5486V70.1216ZM83.373 70.8986C83.0416 70.8053 82.7523 70.7586 82.505 70.7586C82.2576 70.7586 82.057 70.8029 81.903 70.8916C81.749 70.9803 81.672 71.1203 81.672 71.3116C81.672 71.7316 81.91 71.9416 82.386 71.9416C82.6566 71.9416 82.8876 71.8459 83.079 71.6546C83.275 71.4586 83.373 71.2066 83.373 70.8986ZM85.358 72.1866C85.078 72.0513 84.938 71.8436 84.938 71.5636C84.938 71.4189 84.9916 71.2929 85.099 71.1856C85.211 71.0736 85.3486 70.9989 85.512 70.9616C85.26 70.7376 85.134 70.4436 85.134 70.0796C85.134 69.7156 85.2623 69.4216 85.519 69.1976C85.7803 68.9736 86.0883 68.8616 86.443 68.8616C86.7976 68.8616 87.0986 68.9456 87.346 69.1136C87.3786 68.8663 87.4766 68.6679 87.64 68.5186C87.808 68.3693 88.0273 68.2946 88.298 68.2946L88.249 68.8406C87.8383 68.8406 87.6236 69.0133 87.605 69.3586C87.7683 69.5593 87.85 69.7996 87.85 70.0796C87.85 70.4389 87.7193 70.7353 87.458 70.9686C87.2013 71.1973 86.8793 71.3116 86.492 71.3116C86.226 71.3116 85.9903 71.2579 85.785 71.1506C85.6916 71.1693 85.6076 71.2136 85.533 71.2836C85.4583 71.3489 85.421 71.4399 85.421 71.5566C85.421 71.8039 85.6263 71.9276 86.037 71.9276H87.339C87.6516 71.9276 87.899 71.9953 88.081 72.1306C88.263 72.2613 88.354 72.4456 88.354 72.6836C88.354 73.0383 88.1743 73.3486 87.815 73.6146C87.4603 73.8806 87.01 74.0136 86.464 74.0136C85.918 74.0136 85.4886 73.9109 85.176 73.7056C84.8633 73.5049 84.707 73.2506 84.707 72.9426C84.707 72.7419 84.7653 72.5786 84.882 72.4526C85.0033 72.3266 85.162 72.2379 85.358 72.1866ZM85.253 72.9216C85.253 73.0989 85.3486 73.2506 85.54 73.3766C85.736 73.5073 86.03 73.5726 86.422 73.5726C86.8186 73.5726 87.1476 73.4863 87.409 73.3136C87.675 73.1456 87.808 72.9473 87.808 72.7186C87.808 72.6113 87.7683 72.5179 87.689 72.4386C87.6143 72.3639 87.4976 72.3266 87.339 72.3266H85.988C85.75 72.3359 85.568 72.3919 85.442 72.4946C85.316 72.6019 85.253 72.7443 85.253 72.9216ZM87.311 70.0796C87.311 69.8369 87.2386 69.6409 87.094 69.4916C86.9493 69.3376 86.7486 69.2606 86.492 69.2606C86.24 69.2606 86.0416 69.3376 85.897 69.4916C85.7523 69.6409 85.68 69.8369 85.68 70.0796C85.68 70.3223 85.7523 70.5229 85.897 70.6816C86.0463 70.8356 86.247 70.9126 86.499 70.9126C86.751 70.9126 86.9493 70.8333 87.094 70.6746C87.2386 70.5159 87.311 70.3176 87.311 70.0796ZM90.331 71.9206C90.793 71.9206 91.0566 71.7176 91.122 71.3116H91.689C91.6376 71.6476 91.4883 71.9089 91.241 72.0956C90.9983 72.2776 90.695 72.3686 90.331 72.3686C89.883 72.3686 89.519 72.2099 89.239 71.8926C88.959 71.5706 88.819 71.1436 88.819 70.6116C88.819 70.0796 88.959 69.6549 89.239 69.3376C89.5236 69.0203 89.8993 68.8616 90.366 68.8616C90.8373 68.8616 91.1873 69.0436 91.416 69.4076C91.6493 69.7716 91.731 70.2149 91.661 70.7376H89.372C89.372 71.0829 89.456 71.3676 89.624 71.5916C89.792 71.8109 90.0276 71.9206 90.331 71.9206ZM90.737 69.3866C90.6296 69.3306 90.499 69.3026 90.345 69.3026C90.0603 69.3026 89.834 69.4006 89.666 69.5966C89.5026 69.7879 89.407 70.0283 89.379 70.3176H91.164C91.164 69.8509 91.0216 69.5406 90.737 69.3866ZM92.6035 69.7646C92.6035 69.4893 92.7202 69.2699 92.9535 69.1066C93.1915 68.9433 93.5112 68.8616 93.9125 68.8616C94.3139 68.8616 94.6265 68.9456 94.8505 69.1136C95.0792 69.2816 95.1982 69.4939 95.2075 69.7506H94.6685C94.6265 69.4473 94.3699 69.2956 93.8985 69.2956C93.6699 69.2956 93.4925 69.3469 93.3665 69.4496C93.2452 69.5523 93.1845 69.6643 93.1845 69.7856C93.1845 69.9023 93.2312 70.0026 93.3245 70.0866C93.4179 70.1659 93.5672 70.2359 93.7725 70.2966L94.4445 70.5206C94.7292 70.6093 94.9462 70.7236 95.0955 70.8636C95.2495 70.9989 95.3265 71.1879 95.3265 71.4306C95.3265 71.6686 95.2029 71.8856 94.9555 72.0816C94.7082 72.2729 94.3629 72.3686 93.9195 72.3686C93.4762 72.3686 93.1309 72.2706 92.8835 72.0746C92.6362 71.8739 92.5055 71.6173 92.4915 71.3046H93.0235C93.0329 71.5146 93.1169 71.6733 93.2755 71.7806C93.4389 71.8833 93.6419 71.9346 93.8845 71.9346C94.1272 71.9346 94.3279 71.8833 94.4865 71.7806C94.6452 71.6779 94.7245 71.5566 94.7245 71.4166C94.7245 71.2719 94.6779 71.1623 94.5845 71.0876C94.4912 71.0129 94.3395 70.9476 94.1295 70.8916L93.4785 70.6746C92.8952 70.5019 92.6035 70.1986 92.6035 69.7646ZM98.1241 68.9456L98.9361 71.6126L99.7341 69.1066H100.196L100.987 71.6406L101.806 68.9456H102.352L101.26 72.2916H100.721L99.9511 69.9466L99.1951 72.2916H98.6631L97.5501 68.9456H98.1241ZM103.238 68.9386H103.791V72.2916H103.238V68.9386ZM103.511 68.1546C103.399 68.1546 103.311 68.1243 103.245 68.0636C103.185 67.9983 103.154 67.9143 103.154 67.8116C103.154 67.7043 103.185 67.6203 103.245 67.5596C103.311 67.4943 103.399 67.4616 103.511 67.4616C103.623 67.4616 103.712 67.4943 103.777 67.5596C103.847 67.6203 103.882 67.7043 103.882 67.8116C103.882 67.9143 103.847 67.9983 103.777 68.0636C103.712 68.1243 103.623 68.1546 103.511 68.1546ZM107.045 72.1936C106.644 72.3803 106.277 72.4199 105.946 72.3126C105.708 72.2379 105.54 72.0816 105.442 71.8436C105.391 71.7269 105.365 71.5869 105.365 71.4236V69.3656H104.826V68.9456H105.365V68.0146H105.911V68.9456H106.961V69.3656H105.911V71.4166C105.911 71.7573 106.07 71.9276 106.387 71.9276C106.56 71.9276 106.753 71.8856 106.968 71.8016L107.045 72.1936ZM108.48 69.5616C108.704 69.0949 109.075 68.8616 109.593 68.8616C109.99 68.8616 110.298 68.9923 110.517 69.2536C110.741 69.5149 110.853 69.8719 110.853 70.3246V72.2916H110.307V70.3246C110.307 70.0026 110.23 69.7599 110.076 69.5966C109.927 69.4333 109.71 69.3516 109.425 69.3516C109.14 69.3516 108.912 69.4729 108.739 69.7156C108.566 69.9536 108.48 70.2849 108.48 70.7096V72.2916H107.927V67.5246H108.48V69.5616ZM114.352 69.5896C114.571 69.1043 114.947 68.8616 115.479 68.8616C115.875 68.8616 116.183 68.9923 116.403 69.2536C116.627 69.5149 116.739 69.8719 116.739 70.3246V72.2916H116.193V70.3246C116.193 70.0026 116.116 69.7599 115.962 69.5966C115.812 69.4333 115.598 69.3516 115.318 69.3516C115.038 69.3516 114.811 69.4659 114.639 69.6946C114.466 69.9233 114.375 70.2406 114.366 70.6466V72.2916H113.813V68.9456H114.289L114.352 69.5896ZM120.312 71.6266C120.084 72.1119 119.713 72.3546 119.199 72.3546C118.821 72.3546 118.516 72.2496 118.282 72.0396C118.054 71.8296 117.939 71.5053 117.939 71.0666V68.9386H118.492V71.0246C118.492 71.5893 118.754 71.8716 119.276 71.8716C119.58 71.8716 119.825 71.7549 120.011 71.5216C120.203 71.2883 120.303 70.9896 120.312 70.6256V68.9386H120.865V72.2916H120.312V71.6266ZM122.814 69.5896C123.034 69.1043 123.409 68.8616 123.941 68.8616C124.231 68.8616 124.473 68.9339 124.669 69.0786C124.865 69.2186 125.008 69.4146 125.096 69.6666C125.306 69.1299 125.696 68.8616 126.265 68.8616C126.667 68.8616 126.977 68.9923 127.196 69.2536C127.416 69.5149 127.525 69.8719 127.525 70.3246V72.2916H126.979V70.3246C126.979 70.0026 126.902 69.7599 126.748 69.5966C126.599 69.4333 126.382 69.3516 126.097 69.3516C125.813 69.3516 125.591 69.4683 125.432 69.7016C125.278 69.9349 125.201 70.2569 125.201 70.6676V72.2916H124.655V70.3246C124.655 70.0026 124.578 69.7599 124.424 69.5966C124.275 69.4333 124.06 69.3516 123.78 69.3516C123.5 69.3516 123.274 69.4659 123.101 69.6946C122.929 69.9233 122.838 70.2406 122.828 70.6466V72.2916H122.275V68.9456H122.751L122.814 69.5896ZM129.377 69.4426C129.601 69.0553 129.928 68.8616 130.357 68.8616C130.787 68.8616 131.144 69.0226 131.428 69.3446C131.713 69.6619 131.855 70.0843 131.855 70.6116C131.855 71.1343 131.711 71.5589 131.421 71.8856C131.132 72.2076 130.78 72.3686 130.364 72.3686C130.14 72.3686 129.937 72.3126 129.755 72.2006C129.578 72.0886 129.438 71.9229 129.335 71.7036L129.209 72.2916H128.824V67.5246H129.377V69.4426ZM130.322 69.3516C130.056 69.3516 129.835 69.4379 129.657 69.6106C129.48 69.7786 129.387 70.0143 129.377 70.3176V70.8636C129.377 71.1716 129.468 71.4189 129.65 71.6056C129.837 71.7876 130.061 71.8786 130.322 71.8786C130.584 71.8786 130.81 71.7643 131.001 71.5356C131.193 71.3023 131.288 70.9943 131.288 70.6116C131.288 70.2289 131.193 69.9233 131.001 69.6946C130.815 69.4659 130.588 69.3516 130.322 69.3516ZM134.067 71.9206C134.529 71.9206 134.793 71.7176 134.858 71.3116H135.425C135.374 71.6476 135.225 71.9089 134.977 72.0956C134.735 72.2776 134.431 72.3686 134.067 72.3686C133.619 72.3686 133.255 72.2099 132.975 71.8926C132.695 71.5706 132.555 71.1436 132.555 70.6116C132.555 70.0796 132.695 69.6549 132.975 69.3376C133.26 69.0203 133.636 68.8616 134.102 68.8616C134.574 68.8616 134.924 69.0436 135.152 69.4076C135.386 69.7716 135.467 70.2149 135.397 70.7376H133.108C133.108 71.0829 133.192 71.3676 133.36 71.5916C133.528 71.8109 133.764 71.9206 134.067 71.9206ZM134.473 69.3866C134.366 69.3306 134.235 69.3026 134.081 69.3026C133.797 69.3026 133.57 69.4006 133.402 69.5966C133.239 69.7879 133.143 70.0283 133.115 70.3176H134.9C134.9 69.8509 134.758 69.5406 134.473 69.3866ZM137.88 69.4146C137.353 69.4146 137.08 69.8299 137.061 70.6606V72.2916H136.508V68.9386H137.061V69.5826C137.229 69.1159 137.525 68.8826 137.95 68.8826C138.085 68.8826 138.214 68.9036 138.335 68.9456L138.307 69.4846C138.167 69.4379 138.025 69.4146 137.88 69.4146ZM139.006 69.7646C139.006 69.4893 139.123 69.2699 139.356 69.1066C139.594 68.9433 139.914 68.8616 140.315 68.8616C140.716 68.8616 141.029 68.9456 141.253 69.1136C141.482 69.2816 141.601 69.4939 141.61 69.7506H141.071C141.029 69.4473 140.772 69.2956 140.301 69.2956C140.072 69.2956 139.895 69.3469 139.769 69.4496C139.648 69.5523 139.587 69.6643 139.587 69.7856C139.587 69.9023 139.634 70.0026 139.727 70.0866C139.82 70.1659 139.97 70.2359 140.175 70.2966L140.847 70.5206C141.132 70.6093 141.349 70.7236 141.498 70.8636C141.652 70.9989 141.729 71.1879 141.729 71.4306C141.729 71.6686 141.605 71.8856 141.358 72.0816C141.111 72.2729 140.765 72.3686 140.322 72.3686C139.879 72.3686 139.533 72.2706 139.286 72.0746C139.039 71.8739 138.908 71.6173 138.894 71.3046H139.426C139.435 71.5146 139.519 71.6733 139.678 71.7806C139.841 71.8833 140.044 71.9346 140.287 71.9346C140.53 71.9346 140.73 71.8833 140.889 71.7806C141.048 71.6779 141.127 71.5566 141.127 71.4166C141.127 71.2719 141.08 71.1623 140.987 71.0876C140.894 71.0129 140.742 70.9476 140.532 70.8916L139.881 70.6746C139.298 70.5019 139.006 70.1986 139.006 69.7646Z" fill="#414042"/>
<path d="M168.55 31.67L190.33 40.58L223.09 36.13L249.06 24.17L284.67 31.67L305.19 29.35L325.64 18.7L351.38 29.64L386.51 39.17" stroke="#52B68D" stroke-width="0.25" stroke-miterlimit="10"/>
</g>
<defs>
<clipPath id="clip0">
<rect width="406.9" height="91.39" fill="white"/>
</clipPath>
</defs>
</svg>
