<svg width="407" height="92" viewBox="0 0 407 92" fill="none" xmlns="http://www.w3.org/2000/svg">
<g clip-path="url(#clip0)">
<path d="M407.27 91.28H0.359985V4.89001C0.359985 2.13001 2.59999 -0.109985 5.35999 -0.109985H402.26C405.02 -0.109985 407.26 2.13001 407.26 4.89001V91.28H407.27Z" fill="#01814A"/>
<path d="M407.12 91.22H28.51V20.32C28.51 17.9 30.47 15.94 32.89 15.94H407.13V91.22H407.12Z" fill="white"/>
<path d="M274.46 30.94V48.05" stroke="black" stroke-miterlimit="10"/>
<path d="M98.0876 35.7798H99.1728V44.4203H98.0876V35.7798ZM102.982 39.1178C103.412 38.1654 104.149 37.6892 105.193 37.6892C105.972 37.6892 106.576 37.9456 107.007 38.4585C107.446 38.9713 107.666 39.6719 107.666 40.5602V44.4203H106.595V40.5602C106.595 39.9283 106.443 39.4521 106.141 39.1316C105.848 38.8111 105.427 38.6508 104.877 38.6508C104.328 38.6508 103.884 38.8752 103.545 39.3239C103.206 39.7726 103.028 40.3954 103.009 41.1921V44.4203H101.924V37.854H102.858L102.982 39.1178ZM111.231 38.8568C111.662 38.0784 112.303 37.6892 113.154 37.6892C114.015 37.6892 114.73 38.0052 115.297 38.6371C115.874 39.269 116.163 40.1023 116.163 41.1372C116.163 42.172 115.874 43.0054 115.297 43.6373C114.72 44.26 114.011 44.5714 113.168 44.5714C112.326 44.5714 111.703 44.2554 111.3 43.6235V47.6485H110.215V37.854H111.108L111.231 38.8568ZM113.113 43.6098C113.626 43.6098 114.075 43.39 114.459 42.9504C114.853 42.5109 115.05 41.911 115.05 41.1509C115.05 40.3816 114.862 39.7726 114.487 39.3239C114.121 38.8752 113.672 38.6508 113.141 38.6508C112.61 38.6508 112.175 38.8202 111.836 39.1591C111.497 39.4887 111.318 39.9375 111.3 40.5053V41.7553C111.3 42.3323 111.474 42.7856 111.822 43.1153C112.17 43.445 112.6 43.6098 113.113 43.6098ZM122.836 43.1153C122.387 44.0677 121.659 44.5439 120.651 44.5439C119.91 44.5439 119.31 44.3379 118.852 43.9258C118.403 43.5137 118.179 42.8772 118.179 42.0163V37.8403H119.264V41.9339C119.264 43.042 119.777 43.5961 120.802 43.5961C121.398 43.5961 121.879 43.3671 122.245 42.9092C122.62 42.4513 122.817 41.8652 122.836 41.1509V37.8403H123.921V44.4203H122.836V43.1153ZM130.136 44.228C129.348 44.5943 128.629 44.6721 127.979 44.4615C127.512 44.315 127.182 44.0082 126.99 43.5411C126.889 43.3122 126.839 43.0374 126.839 42.7169V38.6783H125.781V37.854H126.839V36.027H127.911V37.854H129.971V38.6783H127.911V42.7032C127.911 43.3717 128.222 43.706 128.845 43.706C129.183 43.706 129.564 43.6235 129.985 43.4587L130.136 44.228ZM138.189 35.6287C139.307 35.6287 140.209 36.0133 140.895 36.7826C141.591 37.5427 141.939 38.6554 141.939 40.1206C141.939 41.5767 141.596 42.6849 140.909 43.445C140.222 44.1959 139.316 44.5714 138.189 44.5714C137.063 44.5714 136.156 44.1913 135.469 43.4312C134.792 42.662 134.453 41.5539 134.453 40.1069C134.453 38.6508 134.792 37.5427 135.469 36.7826C136.156 36.0133 137.063 35.6287 138.189 35.6287ZM138.189 36.604C137.383 36.604 136.747 36.9062 136.28 37.5106C135.813 38.1151 135.579 38.9851 135.579 40.1206C135.579 41.2562 135.813 42.1171 136.28 42.7032C136.747 43.2893 137.383 43.5823 138.189 43.5823C138.995 43.5823 139.632 43.2893 140.099 42.7032C140.575 42.1171 140.813 41.2562 140.813 40.1206C140.813 38.9851 140.575 38.1151 140.099 37.5106C139.632 36.9062 138.995 36.604 138.189 36.604ZM142.715 35.7798H149.433V36.7139H146.617V44.4203H145.531V36.7139H142.715V35.7798ZM153.663 35.7798C154.616 35.7798 155.339 36.0225 155.834 36.5078C156.337 36.984 156.589 37.6297 156.589 38.4447C156.589 39.2598 156.337 39.9054 155.834 40.3816C155.339 40.8487 154.616 41.0822 153.663 41.0822H151.96V44.4203H150.875V35.7798H153.663ZM153.663 40.1481C154.259 40.1481 154.707 39.997 155.01 39.6948C155.321 39.3926 155.477 38.9805 155.477 38.4585C155.477 37.9273 155.321 37.506 155.01 37.1947C154.707 36.8742 154.259 36.7139 153.663 36.7139H151.96V40.1481H153.663ZM158.687 44.1043C158.458 44.1043 158.266 44.0311 158.11 43.8845C157.964 43.7289 157.89 43.5457 157.89 43.3351C157.89 43.1153 157.964 42.9321 158.11 42.7856C158.266 42.6299 158.458 42.5521 158.687 42.5521C158.925 42.5521 159.122 42.6299 159.278 42.7856C159.433 42.9321 159.511 43.1153 159.511 43.3351C159.511 43.5457 159.433 43.7289 159.278 43.8845C159.122 44.0311 158.925 44.1043 158.687 44.1043ZM158.687 39.9008C158.458 39.9008 158.266 39.8276 158.11 39.6811C157.964 39.5254 157.89 39.3422 157.89 39.1316C157.89 38.9118 157.964 38.7286 158.11 38.5821C158.266 38.4264 158.458 38.3486 158.687 38.3486C158.925 38.3486 159.122 38.4264 159.278 38.5821C159.433 38.7286 159.511 38.9118 159.511 39.1316C159.511 39.3422 159.433 39.5254 159.278 39.6811C159.122 39.8276 158.925 39.9008 158.687 39.9008Z" fill="#58595B"/>
<path d="M210.54 39.74L208.11 38.93L208.77 37.39L210.94 38.49L210.68 35.88H212.43L212.17 38.49L214.34 37.35L215 38.91L212.61 39.72L214.5 41.52L213.21 42.64L211.59 40.43L209.92 42.64L208.67 41.52L210.54 39.74Z" fill="#414042"/>
<path d="M219.51 39.74L217.08 38.93L217.74 37.39L219.91 38.49L219.65 35.88H221.4L221.14 38.49L223.31 37.35L223.97 38.91L221.58 39.72L223.47 41.52L222.18 42.64L220.56 40.43L218.89 42.64L217.64 41.52L219.51 39.74Z" fill="#414042"/>
<path d="M228.47 39.74L226.04 38.93L226.7 37.39L228.87 38.49L228.61 35.88H230.36L230.1 38.49L232.27 37.35L232.93 38.91L230.54 39.72L232.43 41.52L231.14 42.64L229.52 40.43L227.85 42.64L226.6 41.52L228.47 39.74Z" fill="#414042"/>
<path d="M237.44 39.74L235.01 38.93L235.67 37.39L237.84 38.49L237.58 35.88H239.33L239.07 38.49L241.24 37.35L241.9 38.91L239.51 39.72L241.4 41.52L240.11 42.64L238.49 40.43L236.82 42.64L235.57 41.52L237.44 39.74Z" fill="#414042"/>
<path d="M246.35 39.74L243.92 38.93L244.58 37.39L246.75 38.49L246.49 35.88H248.24L247.98 38.49L250.15 37.35L250.81 38.91L248.42 39.72L250.31 41.52L249 42.63L247.38 40.42L245.71 42.63L244.46 41.51L246.35 39.74Z" fill="#414042"/>
<path d="M255.355 41.0843H260.26V42.5121H253.795V41.0447C253.795 40.0135 254.161 39.2644 254.892 38.7973C255.139 38.6387 255.426 38.4977 255.752 38.3743L257.51 37.7001C257.898 37.5503 258.18 37.3652 258.356 37.1448C258.541 36.9157 258.634 36.6337 258.634 36.2988C258.634 35.9639 258.515 35.6863 258.277 35.4659C258.039 35.2368 257.699 35.1222 257.259 35.1222C256.818 35.1222 256.452 35.228 256.161 35.4395C255.879 35.651 255.716 35.9639 255.672 36.3781H253.941C253.958 35.5408 254.28 34.8843 254.906 34.4083C255.478 33.9765 256.25 33.7606 257.219 33.7606C258.109 33.7606 258.845 33.9985 259.427 34.4744C260.017 34.968 260.313 35.5717 260.313 36.2856C260.313 36.9994 260.132 37.5723 259.77 38.0041C259.418 38.4272 258.867 38.7841 258.118 39.0749L256.333 39.7624C255.99 39.8946 255.738 40.0444 255.58 40.2118C255.43 40.3705 255.355 40.5776 255.355 40.8332V41.0843ZM267.193 33.8399V39.2732H268.687V40.6084H267.193V42.5121H265.646V40.6084H261.297V39.4319L265.686 33.8399H267.193ZM263.148 39.4319H265.726V36.1534L263.148 39.4319Z" fill="#414042"/>
<path d="M305.2 53.58H180.56C177.8 53.58 175.56 51.34 175.56 48.58V32.57C175.56 29.81 177.8 27.57 180.56 27.57H305.2C307.96 27.57 310.2 29.81 310.2 32.57V48.58C310.2 51.34 307.96 53.58 305.2 53.58Z" stroke="#414042" stroke-width="0.25" stroke-miterlimit="10"/>
<path d="M60.79 61.37H382.11" stroke="#414042" stroke-width="0.1" stroke-miterlimit="10"/>
<path d="M157.31 76.426L247.59 76.426L247.59 70.996L157.31 70.996L157.31 76.426Z" fill="#F0EFEF"/>
<path d="M157.18 83.4849L267.72 83.4849L267.72 78.0549L157.18 78.0549L157.18 83.4849Z" fill="#F0EFEF"/>
</g>
<defs>
<clipPath id="clip0">
<rect width="406.9" height="91.39" fill="white"/>
</clipPath>
</defs>
</svg>
