<?xml version="1.0" encoding="utf-8"?>
<!-- Generator: Adobe Illustrator 24.1.2, SVG Export Plug-In . SVG Version: 6.00 Build 0)  -->
<svg version="1.1" id="Layer_1" xmlns="http://www.w3.org/2000/svg" xmlns:xlink="http://www.w3.org/1999/xlink" x="0px" y="0px"
	 viewBox="0 0 406.9 91.39" style="enable-background:new 0 0 406.9 91.39;" xml:space="preserve">
<style type="text/css">
	.st0{fill:#3861A3;}
	.st1{fill:#FFFFFF;}
	.st2{fill:#FFCF01;}
	.st3{fill:#F19228;}
	.st4{fill:#FFDD46;}
	.st5{fill:#52B68D;}
	.st6{font-family:'Metropolis-Black';}
	.st7{font-size:11.0633px;}
	.st8{fill:#F1F2F2;}
	.st9{fill:none;stroke:#BCBEC0;stroke-linecap:round;stroke-miterlimit:10;}
	.st10{fill:#526D83;}
	.st11{fill:#FFFFFA;}
	.st12{fill:#FCB216;}
</style>
<path class="st0" d="M406.9,91.39H0V5c0-2.76,2.24-5,5-5h396.9c2.76,0,5,2.24,5,5V91.39z"/>
<path class="st1" d="M406.9,91.39H28.29v-70.9c0-2.42,1.96-4.38,4.38-4.38H406.9V91.39z"/>
<g>
	<g>
		<g>
			<g>
				<path class="st2" d="M195.77,41.59l0.33,30.2c0.01,0.9-0.71,1.63-1.61,1.64l-47.74,0.52c-0.9,0.01-1.63-0.71-1.64-1.61
					l-0.33-30.2c0-0.2,0.03-0.4,0.1-0.58c0.22-0.61,0.81-1.05,1.5-1.06l47.74-0.52c0.69-0.01,1.29,0.42,1.53,1.03
					C195.73,41.19,195.77,41.39,195.77,41.59z"/>
				<path class="st3" d="M147.28,71.71l21.4-13.61c1.08-0.69,2.46-0.71,3.56-0.05l22.06,13.15l-21.65-14.77
					c-1.21-0.88-2.86-0.86-4.05,0.04L147.28,71.71z"/>
				<path class="st4" d="M195.65,41.19l-25.18,18.62l-25.58-18.07c0.22-0.72,0.81-1.23,1.5-1.24l47.74-0.52
					C194.82,39.98,195.41,40.48,195.65,41.19z"/>
				<path class="st3" d="M146.48,42.87l22.2,15.62c1.1,0.78,2.47,0.77,3.56-0.02l21.74-15.9l-21.29,17.78
					c-1.19,1.06-2.83,1.08-4.05,0.04L146.48,42.87z"/>
			</g>
		</g>
		<g>
			
				<ellipse transform="matrix(0.2335 -0.9724 0.9724 0.2335 113.4409 220.7691)" class="st5" cx="196.74" cy="38.43" rx="9.76" ry="9.76"/>
			<text transform="matrix(1 0 0 1 193.9813 42.5648)" class="st1 st6 st7">1</text>
		</g>
	</g>
	<rect x="77.89" y="39.99" class="st8" width="58.56" height="6.63"/>
	<rect x="92.18" y="49.99" class="st8" width="44.27" height="6.63"/>
	<rect x="102.13" y="59.99" class="st8" width="34.32" height="6.63"/>
</g>
<g>
	<path class="st9" d="M304.35,34.03c0,0-66.39,1.75-95.8,21.49"/>
	<polyline class="st9" points="214.46,56.86 208.05,55.99 208.16,49.53 	"/>
</g>
<g>
	<path class="st9" d="M304.84,80.59c0,0-66.39,1.38-96.71-16.96"/>
	<polyline class="st9" points="213.96,62.02 207.6,63.19 208.02,69.64 	"/>
</g>
<g>
	<path id="XMLID_650_" class="st10" d="M330.47,67.36h-8c-0.69,0-1.24,0.56-1.24,1.24v16.21c0,0.69,0.56,1.24,1.24,1.24h8
		c0.69,0,1.24-0.56,1.24-1.24V68.6C331.71,67.91,331.16,67.36,330.47,67.36z"/>
	<path id="XMLID_649_" class="st11" d="M322.26,83.52V68.83c0-0.01,0.01-0.02,0.02-0.02h8.38c0.01,0,0.02,0.01,0.02,0.02v14.68
		c0,0.01-0.01,0.02-0.02,0.02h-8.38C322.27,83.54,322.26,83.53,322.26,83.52z"/>
	<path id="XMLID_723_" class="st11" d="M327.35,84.84c0-0.48-0.39-0.88-0.88-0.88c-0.48,0-0.88,0.39-0.88,0.88
		c0,0.48,0.39,0.88,0.88,0.88C326.96,85.72,327.35,85.33,327.35,84.84z"/>
	<path id="XMLID_791_" class="st11" d="M327.72,67.96h-2.48c-0.07,0-0.13,0.06-0.13,0.13v0.03c0,0.07,0.06,0.13,0.13,0.13h2.48
		c0.07,0,0.13-0.06,0.13-0.13v-0.03C327.85,68.02,327.79,67.96,327.72,67.96z"/>
	<polygon id="XMLID_822_" class="st12" points="329.1,77.54 328.12,79.66 330.13,78.23 	"/>
	<circle id="XMLID_823_" class="st12" cx="331.37" cy="74.16" r="4.6"/>
	<path id="XMLID_824_" class="st1" d="M329.88,74.16c0-0.21-0.17-0.37-0.37-0.37c-0.21,0-0.37,0.17-0.37,0.37
		c0,0.21,0.17,0.37,0.37,0.37C329.71,74.53,329.88,74.36,329.88,74.16z"/>
	<path id="XMLID_825_" class="st1" d="M331.74,74.16c0-0.21-0.17-0.37-0.37-0.37c-0.21,0-0.37,0.17-0.37,0.37
		c0,0.21,0.17,0.37,0.37,0.37C331.57,74.53,331.74,74.36,331.74,74.16z"/>
	<circle id="XMLID_826_" class="st1" cx="333.24" cy="74.16" r="0.37"/>
</g>
<g>
	<path id="XMLID_9_" class="st10" d="M330.47,24.74h-8c-0.69,0-1.24,0.56-1.24,1.24v16.21c0,0.69,0.56,1.24,1.24,1.24h8
		c0.69,0,1.24-0.56,1.24-1.24V25.98C331.71,25.29,331.16,24.74,330.47,24.74z"/>
	<path id="XMLID_8_" class="st11" d="M322.26,40.9V26.21c0-0.01,0.01-0.02,0.02-0.02h8.38c0.01,0,0.02,0.01,0.02,0.02V40.9
		c0,0.01-0.01,0.02-0.02,0.02h-8.38C322.27,40.92,322.26,40.91,322.26,40.9z"/>
	<path id="XMLID_7_" class="st11" d="M327.35,42.22c0-0.48-0.39-0.88-0.88-0.88c-0.48,0-0.88,0.39-0.88,0.88s0.39,0.88,0.88,0.88
		C326.96,43.1,327.35,42.71,327.35,42.22z"/>
	<path id="XMLID_6_" class="st11" d="M327.72,25.34h-2.48c-0.07,0-0.13,0.06-0.13,0.13v0.03c0,0.07,0.06,0.13,0.13,0.13h2.48
		c0.07,0,0.13-0.06,0.13-0.13v-0.03C327.85,25.4,327.79,25.34,327.72,25.34z"/>
	<polygon id="XMLID_5_" class="st12" points="329.1,34.92 328.12,37.04 330.13,35.61 	"/>
	<circle id="XMLID_4_" class="st12" cx="331.37" cy="31.54" r="4.6"/>
	<path id="XMLID_3_" class="st1" d="M329.88,31.54c0-0.21-0.17-0.37-0.37-0.37c-0.21,0-0.37,0.17-0.37,0.37
		c0,0.21,0.17,0.37,0.37,0.37C329.71,31.91,329.88,31.74,329.88,31.54z"/>
	<path id="XMLID_2_" class="st1" d="M331.74,31.54c0-0.21-0.17-0.37-0.37-0.37c-0.21,0-0.37,0.17-0.37,0.37
		c0,0.21,0.17,0.37,0.37,0.37C331.57,31.91,331.74,31.74,331.74,31.54z"/>
	<circle id="XMLID_1_" class="st1" cx="333.24" cy="31.54" r="0.37"/>
</g>
</svg>
