<svg width="374" height="84" viewBox="0 0 374 84" fill="none" xmlns="http://www.w3.org/2000/svg">
<g clip-path="url(#clip0)">
<path d="M374.34 83.8989H0.331055V4.49461C0.331055 1.95779 2.38994 -0.101074 4.92678 -0.101074H369.735C372.272 -0.101074 374.331 1.95779 374.331 4.49461V83.8989H374.34Z" fill="#01814A"/>
<path d="M374.202 83.8438H26.2051V18.6769C26.2051 16.4526 28.0066 14.6511 30.2309 14.6511H374.212V83.8438H374.202Z" fill="white"/>
<path d="M129.048 76.3541L129.836 77.9368L130.616 76.3541H131.029V78.691H130.735V76.7702L129.933 78.3975H129.736L128.922 76.7442V78.691H128.629V76.3541H129.048ZM132.417 76.8705C132.665 76.8705 132.864 76.951 133.015 77.112C133.169 77.273 133.246 77.5034 133.246 77.8031C133.246 78.1003 133.169 78.3294 133.015 78.4904C132.864 78.6514 132.665 78.7319 132.417 78.7319C132.169 78.7319 131.969 78.6514 131.815 78.4904C131.664 78.3294 131.588 78.1003 131.588 77.8031C131.588 77.5034 131.664 77.273 131.815 77.112C131.969 76.951 132.169 76.8705 132.417 76.8705ZM132.948 77.8031C132.948 77.5901 132.904 77.4241 132.815 77.3052C132.725 77.1839 132.594 77.1232 132.421 77.1232C132.25 77.1232 132.119 77.1839 132.027 77.3052C131.935 77.4241 131.889 77.5901 131.889 77.8031C131.889 78.0136 131.933 78.1796 132.019 78.3009C132.106 78.4198 132.235 78.4793 132.406 78.4793C132.579 78.4793 132.713 78.4198 132.807 78.3009C132.901 78.1796 132.948 78.0136 132.948 77.8031ZM128.911 81.2569C129.027 80.9993 129.227 80.8705 129.509 80.8705C129.72 80.8705 129.883 80.9399 130 81.0786C130.118 81.2173 130.178 81.4068 130.178 81.647V82.691H129.888V81.647C129.888 81.4761 129.847 81.3473 129.766 81.2606C129.686 81.174 129.572 81.1306 129.424 81.1306C129.275 81.1306 129.155 81.1913 129.063 81.3127C128.972 81.434 128.923 81.6025 128.918 81.8179V82.691H128.625V80.9151H128.878L128.911 81.2569Z" fill="#787878"/>
<path d="M162.309 76.3541H164.126V76.6068H163.364V78.691H163.071V76.6068H162.309V76.3541ZM165.473 78.3381C165.352 78.5957 165.155 78.7245 164.882 78.7245C164.682 78.7245 164.519 78.6687 164.396 78.5573C164.274 78.4458 164.214 78.2737 164.214 78.0409V76.9114H164.507V78.0186C164.507 78.3183 164.646 78.4681 164.923 78.4681C165.084 78.4681 165.214 78.4062 165.313 78.2824C165.415 78.1585 165.468 78 165.473 77.8068V76.9114H165.767V78.691H165.473V78.3381ZM163.275 82.4941C163.52 82.4941 163.66 82.3864 163.695 82.1709H163.996C163.968 82.3492 163.889 82.4879 163.758 82.587C163.629 82.6836 163.468 82.7319 163.275 82.7319C163.037 82.7319 162.844 82.6477 162.695 82.4793C162.547 82.3084 162.472 82.0817 162.472 81.7994C162.472 81.517 162.547 81.2916 162.695 81.1232C162.846 80.9548 163.046 80.8705 163.293 80.8705C163.544 80.8705 163.729 80.9671 163.851 81.1603C163.975 81.3535 164.018 81.5888 163.981 81.8662H162.766C162.766 82.0495 162.81 82.2006 162.9 82.3195C162.989 82.4359 163.114 82.4941 163.275 82.4941ZM163.49 81.1492C163.433 81.1195 163.364 81.1046 163.282 81.1046C163.131 81.1046 163.011 81.1566 162.922 81.2606C162.835 81.3622 162.784 81.4898 162.77 81.6433H163.717C163.717 81.3956 163.641 81.2309 163.49 81.1492Z" fill="#787878"/>
<path d="M195.274 76.3541L195.843 78.2972L196.419 76.5956H196.616L197.188 78.2972L197.842 76.3541H198.165L197.34 78.691H197.032L196.523 77.1938L195.995 78.691H195.687L194.948 76.3541H195.274ZM199.084 78.4941C199.329 78.4941 199.469 78.3864 199.504 78.1709H199.805C199.777 78.3492 199.698 78.4879 199.567 78.587C199.438 78.6836 199.277 78.7319 199.084 78.7319C198.846 78.7319 198.653 78.6477 198.504 78.4793C198.356 78.3084 198.281 78.0817 198.281 77.7994C198.281 77.517 198.356 77.2916 198.504 77.1232C198.655 76.9548 198.855 76.8705 199.102 76.8705C199.353 76.8705 199.538 76.9671 199.66 77.1603C199.784 77.3535 199.827 77.5888 199.79 77.8662H198.575C198.575 78.0495 198.619 78.2006 198.709 78.3195C198.798 78.4359 198.923 78.4941 199.084 78.4941ZM199.299 77.1492C199.242 77.1195 199.173 77.1046 199.091 77.1046C198.94 77.1046 198.82 77.1566 198.731 77.2606C198.644 77.3622 198.593 77.4898 198.579 77.6433H199.526C199.526 77.3956 199.45 77.2309 199.299 77.1492ZM201.546 77.1789V76.1609H201.836V78.691H201.598L201.561 78.3938C201.504 78.5053 201.428 78.5895 201.334 78.6465C201.24 78.7034 201.137 78.7319 201.026 78.7319C200.8 78.7319 200.611 78.6452 200.457 78.4718C200.306 78.2985 200.231 78.0731 200.231 77.7957C200.231 77.5158 200.305 77.2916 200.454 77.1232C200.605 76.9548 200.794 76.8705 201.022 76.8705C201.252 76.8705 201.427 76.9733 201.546 77.1789ZM201.041 77.1306C200.897 77.1306 200.776 77.1913 200.676 77.3127C200.58 77.434 200.532 77.5963 200.532 77.7994C200.532 78.0025 200.581 78.1659 200.68 78.2898C200.779 78.4112 200.898 78.4718 201.037 78.4718C201.176 78.4718 201.293 78.426 201.39 78.3344C201.489 78.2403 201.541 78.1152 201.546 77.9591V77.6693C201.546 77.5034 201.498 77.3721 201.401 77.2755C201.304 77.1789 201.184 77.1306 201.041 77.1306Z" fill="#787878"/>
<path d="M230.399 76.3541H232.216V76.6068H231.454V78.691H231.16V76.6068H230.399V76.3541ZM232.906 77.2421C233.025 76.9944 233.222 76.8705 233.497 76.8705C233.708 76.8705 233.871 76.9399 233.988 77.0786C234.107 77.2173 234.166 77.4068 234.166 77.647V78.691H233.876V77.647C233.876 77.4761 233.835 77.3473 233.754 77.2606C233.674 77.174 233.559 77.1306 233.408 77.1306C233.257 77.1306 233.136 77.195 233.044 77.3238C232.952 77.4501 232.906 77.626 232.906 77.8514V78.691H232.613V76.1609H232.906V77.2421ZM236.063 78.3381C235.941 78.5957 235.744 78.7245 235.472 78.7245C235.271 78.7245 235.109 78.6687 234.985 78.5573C234.864 78.4458 234.803 78.2737 234.803 78.0409V76.9114H235.097V78.0186C235.097 78.3183 235.235 78.4681 235.513 78.4681C235.674 78.4681 235.804 78.4062 235.903 78.2824C236.004 78.1585 236.058 78 236.063 77.8068V76.9114H236.356V78.691H236.063V78.3381ZM231.476 81.1641C231.196 81.1641 231.051 81.3845 231.042 81.8254V82.691H230.748V80.9114H231.042V81.2532C231.131 81.0055 231.288 80.8817 231.513 80.8817C231.585 80.8817 231.653 80.8928 231.718 80.9151L231.703 81.2012C231.629 81.1764 231.553 81.1641 231.476 81.1641Z" fill="#787878"/>
<path d="M268.516 76.3541H269.935V76.6068H268.809V77.3833H269.857V77.6359H268.809V78.691H268.516V76.3541ZM271.189 77.1641C270.909 77.1641 270.764 77.3845 270.754 77.8254V78.691H270.461V76.9114H270.754V77.2532C270.843 77.0055 271 76.8817 271.226 76.8817C271.298 76.8817 271.366 76.8928 271.43 76.9151L271.415 77.2012C271.341 77.1764 271.265 77.1641 271.189 77.1641ZM271.898 76.9114H272.191V78.691H271.898V76.9114ZM272.043 76.4953C271.983 76.4953 271.936 76.4792 271.902 76.447C271.869 76.4123 271.853 76.3677 271.853 76.3132C271.853 76.2563 271.869 76.2117 271.902 76.1795C271.936 76.1448 271.983 76.1275 272.043 76.1275C272.102 76.1275 272.149 76.1448 272.184 76.1795C272.221 76.2117 272.24 76.2563 272.24 76.3132C272.24 76.3677 272.221 76.4123 272.184 76.447C272.149 76.4792 272.102 76.4953 272.043 76.4953Z" fill="#787878"/>
<path d="M307.77 76.9226C307.727 76.6947 307.56 76.5807 307.268 76.5807C307.112 76.5807 306.992 76.6154 306.908 76.6848C306.823 76.7517 306.781 76.8334 306.781 76.93C306.781 77.0241 306.807 77.0959 306.859 77.1455C306.911 77.195 306.996 77.2384 307.112 77.2755L307.599 77.4427C307.765 77.4997 307.896 77.5777 307.992 77.6768C308.092 77.7758 308.141 77.9158 308.141 78.0966C308.141 78.2749 308.064 78.426 307.911 78.5499C307.757 78.6712 307.552 78.7319 307.294 78.7319C307.036 78.7319 306.825 78.6675 306.659 78.5387C306.495 78.4074 306.411 78.2242 306.406 77.9888H306.692C306.692 78.1424 306.745 78.2601 306.852 78.3418C306.961 78.4235 307.1 78.4644 307.268 78.4644C307.439 78.4644 307.574 78.4273 307.673 78.3529C307.772 78.2762 307.822 78.187 307.822 78.0854C307.822 77.9814 307.791 77.8997 307.729 77.8402C307.669 77.7808 307.58 77.7313 307.461 77.6916L307.049 77.5393C306.856 77.4749 306.709 77.3981 306.61 77.3089C306.511 77.2198 306.462 77.0897 306.462 76.9188C306.462 76.7455 306.531 76.6018 306.67 76.4879C306.809 76.3715 307.003 76.3132 307.253 76.3132C307.503 76.3132 307.694 76.369 307.825 76.4804C307.959 76.5894 308.036 76.7368 308.056 76.9226H307.77ZM309.874 77.5393C309.874 77.3783 309.841 77.2631 309.774 77.1938C309.707 77.1244 309.609 77.0897 309.48 77.0897C309.354 77.0897 309.251 77.1158 309.172 77.1678C309.095 77.2173 309.057 77.2966 309.057 77.4055H308.734C308.734 77.1331 308.88 76.9647 309.172 76.9003C309.261 76.8805 309.358 76.8705 309.462 76.8705C309.682 76.8705 309.854 76.9263 309.978 77.0377C310.102 77.1492 310.164 77.3189 310.164 77.5467V78.691H309.911L309.882 78.3938C309.773 78.6192 309.576 78.7319 309.291 78.7319C309.1 78.7319 308.947 78.6787 308.83 78.5722C308.716 78.4656 308.659 78.3331 308.659 78.1746C308.659 78.0161 308.722 77.8923 308.849 77.8031C308.978 77.7139 309.137 77.6693 309.328 77.6693C309.519 77.6693 309.701 77.7015 309.874 77.7659V77.5393ZM309.874 77.9517C309.698 77.9022 309.545 77.8774 309.413 77.8774C309.282 77.8774 309.176 77.9009 309.094 77.948C309.012 77.995 308.971 78.0693 308.971 78.1709C308.971 78.3938 309.098 78.5053 309.35 78.5053C309.494 78.5053 309.617 78.4545 309.718 78.3529C309.822 78.2489 309.874 78.1152 309.874 77.9517ZM307.454 82.639C307.241 82.7381 307.046 82.7592 306.87 82.7022C306.744 82.6626 306.655 82.5796 306.603 82.4533C306.576 82.3913 306.562 82.317 306.562 82.2303V81.138H306.276V80.9151H306.562V80.421H306.852V80.9151H307.409V81.138H306.852V82.2266C306.852 82.4074 306.936 82.4978 307.104 82.4978C307.196 82.4978 307.299 82.4756 307.413 82.431L307.454 82.639Z" fill="#787878"/>
<path d="M344.451 76.9226C344.409 76.6947 344.242 76.5807 343.949 76.5807C343.793 76.5807 343.673 76.6154 343.589 76.6848C343.505 76.7517 343.463 76.8334 343.463 76.93C343.463 77.0241 343.489 77.0959 343.541 77.1455C343.593 77.195 343.677 77.2384 343.793 77.2755L344.28 77.4427C344.446 77.4997 344.577 77.5777 344.674 77.6768C344.773 77.7758 344.822 77.9158 344.822 78.0966C344.822 78.2749 344.746 78.426 344.592 78.5499C344.439 78.6712 344.233 78.7319 343.975 78.7319C343.718 78.7319 343.506 78.6675 343.34 78.5387C343.177 78.4074 343.092 78.2242 343.087 77.9888H343.373C343.373 78.1424 343.427 78.2601 343.533 78.3418C343.642 78.4235 343.781 78.4644 343.949 78.4644C344.12 78.4644 344.255 78.4273 344.354 78.3529C344.453 78.2762 344.503 78.187 344.503 78.0854C344.503 77.9814 344.472 77.8997 344.41 77.8402C344.351 77.7808 344.261 77.7313 344.143 77.6916L343.73 77.5393C343.537 77.4749 343.391 77.3981 343.292 77.3089C343.193 77.2198 343.143 77.0897 343.143 76.9188C343.143 76.7455 343.212 76.6018 343.351 76.4879C343.49 76.3715 343.684 76.3132 343.934 76.3132C344.185 76.3132 344.375 76.369 344.507 76.4804C344.64 76.5894 344.717 76.7368 344.737 76.9226H344.451ZM346.663 78.3381C346.542 78.5957 346.345 78.7245 346.073 78.7245C345.872 78.7245 345.71 78.6687 345.586 78.5573C345.464 78.4458 345.404 78.2737 345.404 78.0409V76.9114H345.697V78.0186C345.697 78.3183 345.836 78.4681 346.113 78.4681C346.274 78.4681 346.404 78.4062 346.504 78.2824C346.605 78.1585 346.658 78 346.663 77.8068V76.9114H346.957V78.691H346.663V78.3381ZM343.489 81.2569C343.605 80.9993 343.804 80.8705 344.087 80.8705C344.297 80.8705 344.461 80.9399 344.577 81.0786C344.696 81.2173 344.756 81.4068 344.756 81.647V82.691H344.466V81.647C344.466 81.4761 344.425 81.3473 344.343 81.2606C344.264 81.174 344.15 81.1306 344.001 81.1306C343.853 81.1306 343.733 81.1913 343.641 81.3127C343.549 81.434 343.501 81.6025 343.496 81.8179V82.691H343.203V80.9151H343.455L343.489 81.2569Z" fill="#787878"/>
<path d="M123.561 68.2001C129.278 59.3488 150.914 40.9937 191.77 38.4477C242.829 35.2582 259.787 24.4216 299.485 34.7251C339.183 45.0287 343.089 50.9847 355.58 50.9847C368.071 50.9847 373.412 48.2916 373.283 47.0508" stroke="#36C3DE" stroke-linecap="round"/>
<path d="M123.561 68.4114C129.278 59.505 150.914 41.0579 191.77 38.4935C242.829 35.2857 259.787 24.3847 299.485 34.7526C339.183 45.1205 343.089 51.1041 355.58 51.1041C367.786 51.1041 373.163 48.5213 373.283 47.2345V47.1518C373.283 47.1793 373.283 47.2069 373.283 47.2345V73.5402H123.561V68.4114Z" fill="url(#paint0_linear)"/>
<path d="M114.48 58.9994H114.158V56.9314C114.158 56.7567 114.167 56.6005 114.176 56.4442C114.149 56.4718 114.121 56.4994 114.084 56.5361C114.048 56.5637 113.891 56.6924 113.616 56.9222L113.441 56.6924L114.213 56.095H114.489V58.9994H114.48ZM117.513 57.5472C117.513 58.0527 117.43 58.4204 117.274 58.6685C117.117 58.9167 116.879 59.0362 116.548 59.0362C116.235 59.0362 115.996 58.9075 115.831 58.6594C115.665 58.402 115.583 58.0343 115.583 57.5472C115.583 57.0417 115.665 56.6648 115.822 56.4167C115.978 56.1685 116.217 56.049 116.538 56.049C116.851 56.049 117.09 56.1777 117.255 56.435C117.43 56.6924 117.513 57.0601 117.513 57.5472ZM115.923 57.5472C115.923 57.97 115.969 58.2733 116.07 58.4755C116.171 58.6685 116.327 58.7605 116.548 58.7605C116.768 58.7605 116.924 58.6594 117.026 58.4663C117.127 58.2733 117.173 57.9608 117.173 57.5472C117.173 57.1336 117.127 56.8211 117.026 56.6281C116.924 56.435 116.768 56.3339 116.548 56.3339C116.327 56.3339 116.171 56.4258 116.07 56.6189C115.969 56.8119 115.923 57.1244 115.923 57.5472ZM119.838 57.5472C119.838 58.0527 119.755 58.4204 119.599 58.6685C119.443 58.9167 119.204 59.0362 118.873 59.0362C118.561 59.0362 118.322 58.9075 118.156 58.6594C117.991 58.402 117.908 58.0343 117.908 57.5472C117.908 57.0417 117.991 56.6648 118.147 56.4167C118.303 56.1685 118.542 56.049 118.864 56.049C119.176 56.049 119.415 56.1777 119.581 56.435C119.755 56.6924 119.838 57.0601 119.838 57.5472ZM118.248 57.5472C118.248 57.97 118.294 58.2733 118.395 58.4755C118.496 58.6685 118.652 58.7605 118.873 58.7605C119.094 58.7605 119.25 58.6594 119.351 58.4663C119.452 58.2733 119.498 57.9608 119.498 57.5472C119.498 57.1336 119.452 56.8211 119.351 56.6281C119.25 56.435 119.094 56.3339 118.873 56.3339C118.652 56.3339 118.496 56.4258 118.395 56.6189C118.303 56.8119 118.248 57.1244 118.248 57.5472ZM120.721 57.8873C120.776 57.8046 120.868 57.7035 120.978 57.5656L121.686 56.8211H122.081L121.199 57.7494L122.145 58.9994H121.75L120.978 57.97L120.73 58.1814V58.9994H120.408V55.9111H120.73V57.5472C120.73 57.6207 120.721 57.731 120.711 57.8873H120.721Z" fill="#CFCFCE"/>
<path d="M115.104 50.525H113.193V50.2401L113.956 49.468C114.185 49.229 114.342 49.0636 114.415 48.9625C114.489 48.8613 114.544 48.7602 114.581 48.6683C114.617 48.5764 114.636 48.4661 114.636 48.3558C114.636 48.1996 114.59 48.0801 114.498 47.9882C114.406 47.8963 114.277 47.8503 114.103 47.8503C113.983 47.8503 113.864 47.8687 113.762 47.9054C113.652 47.9422 113.533 48.0157 113.404 48.126L113.229 47.9054C113.496 47.6848 113.79 47.5746 114.103 47.5746C114.378 47.5746 114.59 47.6481 114.746 47.786C114.902 47.9238 114.976 48.1168 114.976 48.3466C114.976 48.5305 114.921 48.7143 114.82 48.8889C114.718 49.0727 114.525 49.2933 114.24 49.5691L113.606 50.1941V50.2125H115.104V50.525ZM117.448 49.0636C117.448 49.5691 117.366 49.9367 117.209 50.1849C117.053 50.4331 116.814 50.5526 116.483 50.5526C116.171 50.5526 115.932 50.4239 115.766 50.1757C115.601 49.9184 115.518 49.5507 115.518 49.0636C115.518 48.558 115.601 48.1812 115.757 47.933C115.913 47.6849 116.152 47.5654 116.474 47.5654C116.786 47.5654 117.025 47.694 117.191 47.9514C117.366 48.2088 117.448 48.5764 117.448 49.0636ZM115.858 49.0636C115.858 49.4864 115.904 49.7897 116.005 49.9919C116.106 50.1849 116.263 50.2768 116.483 50.2768C116.704 50.2768 116.86 50.1757 116.961 49.9827C117.062 49.7897 117.108 49.4772 117.108 49.0636C117.108 48.6499 117.062 48.3374 116.961 48.1444C116.86 47.9514 116.704 47.8503 116.483 47.8503C116.263 47.8503 116.106 47.9422 116.005 48.1352C115.913 48.3374 115.858 48.6408 115.858 49.0636ZM119.774 49.0636C119.774 49.5691 119.691 49.9367 119.535 50.1849C119.378 50.4331 119.139 50.5526 118.809 50.5526C118.496 50.5526 118.257 50.4239 118.092 50.1757C117.926 49.9184 117.844 49.5507 117.844 49.0636C117.844 48.558 117.926 48.1812 118.082 47.933C118.239 47.6849 118.478 47.5654 118.799 47.5654C119.112 47.5654 119.351 47.694 119.516 47.9514C119.691 48.2088 119.774 48.5764 119.774 49.0636ZM118.193 49.0636C118.193 49.4864 118.239 49.7897 118.34 49.9919C118.441 50.1849 118.597 50.2768 118.818 50.2768C119.038 50.2768 119.195 50.1757 119.296 49.9827C119.397 49.7897 119.443 49.4772 119.443 49.0636C119.443 48.6499 119.397 48.3374 119.296 48.1444C119.195 47.9514 119.038 47.8503 118.818 47.8503C118.597 47.8503 118.441 47.9422 118.34 48.1352C118.239 48.3374 118.193 48.6408 118.193 49.0636ZM120.656 49.4036C120.711 49.3209 120.803 49.2198 120.913 49.0819L121.621 48.3374H122.016L121.134 49.2658L122.081 50.5158H121.686L120.913 49.4864L120.665 49.6978V50.5158H120.344V47.4275H120.665V49.0636C120.665 49.1371 120.656 49.2474 120.647 49.4036H120.656Z" fill="#CFCFCE"/>
<path d="M115.169 39.4403C115.169 39.6241 115.114 39.7804 115.013 39.8999C114.912 40.0194 114.764 40.0929 114.571 40.1389V40.1572C114.801 40.1848 114.976 40.2584 115.086 40.3778C115.196 40.4973 115.252 40.6536 115.252 40.8466C115.252 41.1223 115.16 41.3337 114.967 41.49C114.774 41.6371 114.498 41.7106 114.149 41.7106C113.992 41.7106 113.854 41.7014 113.726 41.6738C113.597 41.6554 113.478 41.6095 113.358 41.5543V41.2418C113.487 41.3062 113.616 41.3521 113.763 41.3889C113.91 41.4165 114.038 41.4348 114.167 41.4348C114.673 41.4348 114.921 41.2418 114.921 40.8466C114.921 40.4973 114.645 40.3227 114.093 40.3227H113.809V40.0378H114.103C114.332 40.0378 114.507 39.9918 114.645 39.8907C114.774 39.7896 114.847 39.6517 114.847 39.4771C114.847 39.3392 114.801 39.2197 114.7 39.1462C114.599 39.0635 114.47 39.0267 114.305 39.0267C114.176 39.0267 114.057 39.0451 113.946 39.0819C113.836 39.1186 113.707 39.183 113.56 39.2749L113.395 39.0543C113.514 38.9624 113.652 38.8888 113.809 38.8337C113.965 38.7785 114.13 38.751 114.305 38.751C114.59 38.751 114.81 38.8153 114.967 38.944C115.095 39.0359 115.169 39.2105 115.169 39.4403ZM117.623 40.2032C117.623 40.7087 117.54 41.0764 117.384 41.3246C117.228 41.5727 116.989 41.6922 116.658 41.6922C116.345 41.6922 116.106 41.5635 115.941 41.3154C115.776 41.058 115.693 40.6903 115.693 40.2032C115.693 39.6977 115.776 39.3208 115.932 39.0727C116.088 38.8245 116.327 38.705 116.649 38.705C116.961 38.705 117.2 38.8337 117.366 39.091C117.54 39.3484 117.623 39.7161 117.623 40.2032ZM116.033 40.2032C116.033 40.626 116.079 40.9293 116.18 41.1315C116.281 41.3246 116.437 41.4165 116.658 41.4165C116.878 41.4165 117.035 41.3154 117.136 41.1223C117.237 40.9293 117.283 40.6168 117.283 40.2032C117.283 39.7896 117.237 39.4771 117.136 39.2841C117.035 39.091 116.878 38.9899 116.658 38.9899C116.437 38.9899 116.281 39.0819 116.18 39.2749C116.088 39.4771 116.033 39.7804 116.033 40.2032ZM119.948 40.2032C119.948 40.7087 119.866 41.0764 119.709 41.3246C119.553 41.5727 119.314 41.6922 118.983 41.6922C118.671 41.6922 118.432 41.5635 118.266 41.3154C118.101 41.058 118.018 40.6903 118.018 40.2032C118.018 39.6977 118.101 39.3208 118.257 39.0727C118.413 38.8245 118.652 38.705 118.974 38.705C119.287 38.705 119.526 38.8337 119.691 39.091C119.866 39.3484 119.948 39.7161 119.948 40.2032ZM118.367 40.2032C118.367 40.626 118.413 40.9293 118.515 41.1315C118.616 41.3246 118.772 41.4165 118.993 41.4165C119.213 41.4165 119.369 41.3154 119.47 41.1223C119.572 40.9293 119.618 40.6168 119.618 40.2032C119.618 39.7896 119.572 39.4771 119.47 39.2841C119.369 39.091 119.213 38.9899 118.993 38.9899C118.772 38.9899 118.616 39.0819 118.515 39.2749C118.413 39.4771 118.367 39.7804 118.367 40.2032ZM120.831 40.5433C120.886 40.4606 120.978 40.3595 121.088 40.2216L121.796 39.4771H122.191L121.309 40.4054L122.255 41.6554H121.86L121.088 40.626L120.84 40.8374V41.6554H120.518V38.5671H120.84V40.2032C120.84 40.2767 120.831 40.387 120.822 40.5433H120.831Z" fill="#CFCFCE"/>
<g opacity="0.4">
<g opacity="0.4">
<path opacity="0.4" d="M123.561 40.7546H124.48" stroke="#A9A8A9" stroke-width="0.3" stroke-miterlimit="10"/>
<path opacity="0.4" d="M126.318 40.7546H371.445" stroke="#A9A8A9" stroke-width="0.3" stroke-miterlimit="10" stroke-dasharray="2 2"/>
<path opacity="0.4" d="M372.364 40.7546H373.283" stroke="#A9A8A9" stroke-width="0.3" stroke-miterlimit="10"/>
</g>
</g>
<g opacity="0.4">
<g opacity="0.4">
<path opacity="0.4" d="M132.173 73.5401V72.621" stroke="#A9A8A9" stroke-width="0.3" stroke-miterlimit="10"/>
<path opacity="0.4" d="M132.173 70.8194V28.3276" stroke="#A9A8A9" stroke-width="0.3" stroke-miterlimit="10" stroke-dasharray="1.97 1.97"/>
<path opacity="0.4" d="M132.173 27.427V26.5078" stroke="#A9A8A9" stroke-width="0.3" stroke-miterlimit="10"/>
</g>
</g>
<g opacity="0.4">
<g opacity="0.4">
<path opacity="0.4" d="M165.207 73.5401V72.621" stroke="#A9A8A9" stroke-width="0.3" stroke-miterlimit="10"/>
<path opacity="0.4" d="M165.207 70.8194V28.3276" stroke="#A9A8A9" stroke-width="0.3" stroke-miterlimit="10" stroke-dasharray="1.97 1.97"/>
<path opacity="0.4" d="M165.207 27.427V26.5078" stroke="#A9A8A9" stroke-width="0.3" stroke-miterlimit="10"/>
</g>
</g>
<g opacity="0.4">
<g opacity="0.4">
<path opacity="0.4" d="M197.313 73.5401V72.621" stroke="#A9A8A9" stroke-width="0.3" stroke-miterlimit="10"/>
<path opacity="0.4" d="M197.313 70.8194V28.3276" stroke="#A9A8A9" stroke-width="0.3" stroke-miterlimit="10" stroke-dasharray="1.97 1.97"/>
<path opacity="0.4" d="M197.313 27.427V26.5078" stroke="#A9A8A9" stroke-width="0.3" stroke-miterlimit="10"/>
</g>
</g>
<g opacity="0.4">
<g opacity="0.4">
<path opacity="0.4" d="M234.014 73.5401V72.621" stroke="#A9A8A9" stroke-width="0.3" stroke-miterlimit="10"/>
<path opacity="0.4" d="M234.014 70.8194V28.3276" stroke="#A9A8A9" stroke-width="0.3" stroke-miterlimit="10" stroke-dasharray="1.97 1.97"/>
<path opacity="0.4" d="M234.014 27.427V26.5078" stroke="#A9A8A9" stroke-width="0.3" stroke-miterlimit="10"/>
</g>
</g>
<g opacity="0.4">
<g opacity="0.4">
<path opacity="0.4" d="M270.716 73.5401V72.621" stroke="#A9A8A9" stroke-width="0.3" stroke-miterlimit="10"/>
<path opacity="0.4" d="M270.716 70.8194V28.3276" stroke="#A9A8A9" stroke-width="0.3" stroke-miterlimit="10" stroke-dasharray="1.97 1.97"/>
<path opacity="0.4" d="M270.716 27.427V26.5078" stroke="#A9A8A9" stroke-width="0.3" stroke-miterlimit="10"/>
</g>
</g>
<g opacity="0.4">
<g opacity="0.4">
<path opacity="0.4" d="M308.336 73.5401V72.621" stroke="#A9A8A9" stroke-width="0.3" stroke-miterlimit="10"/>
<path opacity="0.4" d="M308.336 70.8194V28.3276" stroke="#A9A8A9" stroke-width="0.3" stroke-miterlimit="10" stroke-dasharray="1.97 1.97"/>
<path opacity="0.4" d="M308.336 27.427V26.5078" stroke="#A9A8A9" stroke-width="0.3" stroke-miterlimit="10"/>
</g>
</g>
<g opacity="0.4">
<g opacity="0.4">
<path opacity="0.4" d="M345.966 73.5401V72.621" stroke="#A9A8A9" stroke-width="0.3" stroke-miterlimit="10"/>
<path opacity="0.4" d="M345.966 70.8194V28.3276" stroke="#A9A8A9" stroke-width="0.3" stroke-miterlimit="10" stroke-dasharray="1.97 1.97"/>
<path opacity="0.4" d="M345.966 27.427V26.5078" stroke="#A9A8A9" stroke-width="0.3" stroke-miterlimit="10"/>
</g>
</g>
<g opacity="0.4">
<g opacity="0.4">
<path opacity="0.4" d="M123.561 49.2935H124.48" stroke="#A9A8A9" stroke-width="0.3" stroke-miterlimit="10"/>
<path opacity="0.4" d="M126.318 49.2935H371.445" stroke="#A9A8A9" stroke-width="0.3" stroke-miterlimit="10" stroke-dasharray="2 2"/>
<path opacity="0.4" d="M372.364 49.2935H373.283" stroke="#A9A8A9" stroke-width="0.3" stroke-miterlimit="10"/>
</g>
</g>
<g opacity="0.4">
<g opacity="0.4">
<path opacity="0.4" d="M123.561 57.823H124.48" stroke="#A9A8A9" stroke-width="0.3" stroke-miterlimit="10"/>
<path opacity="0.4" d="M126.318 57.823H371.445" stroke="#A9A8A9" stroke-width="0.3" stroke-miterlimit="10" stroke-dasharray="2 2"/>
<path opacity="0.4" d="M372.364 57.823H373.283" stroke="#A9A8A9" stroke-width="0.3" stroke-miterlimit="10"/>
</g>
</g>
<g opacity="0.4">
<g opacity="0.4">
<path opacity="0.4" d="M123.561 66.3618H124.48" stroke="#A9A8A9" stroke-width="0.3" stroke-miterlimit="10"/>
<path opacity="0.4" d="M126.318 66.3618H371.445" stroke="#A9A8A9" stroke-width="0.3" stroke-miterlimit="10" stroke-dasharray="2 2"/>
<path opacity="0.4" d="M372.364 66.3618H373.283" stroke="#A9A8A9" stroke-width="0.3" stroke-miterlimit="10"/>
</g>
</g>
<path opacity="0.2" d="M266.175 33.8609C268.206 33.8609 269.852 32.2149 269.852 30.1844C269.852 28.1539 268.206 26.5078 266.175 26.5078C264.145 26.5078 262.499 28.1539 262.499 30.1844C262.499 32.2149 264.145 33.8609 266.175 33.8609Z" fill="#3861A3"/>
<path d="M266.175 32.7856C267.612 32.7856 268.776 31.621 268.776 30.1844C268.776 28.7478 267.612 27.5833 266.175 27.5833C264.739 27.5833 263.574 28.7478 263.574 30.1844C263.574 31.621 264.739 32.7856 266.175 32.7856Z" fill="white"/>
<path d="M266.175 32.2526C267.317 32.2526 268.243 31.3267 268.243 30.1845C268.243 29.0424 267.317 28.1165 266.175 28.1165C265.033 28.1165 264.107 29.0424 264.107 30.1845C264.107 31.3267 265.033 32.2526 266.175 32.2526Z" fill="#3861A3"/>
<path d="M58.3941 51.2409H36.0405C34.91 51.2409 34 50.331 34 49.2005V47.0405C34 45.9099 34.91 45 36.0405 45H58.3941C59.5247 45 60.4346 45.9099 60.4346 47.0405V49.2005C60.4346 50.3218 59.5247 51.2409 58.3941 51.2409Z" fill="#56B68D"/>
<path d="M37.3707 35.4189V37.0909H37.8067V37.3629H37.3707V37.9709H37.0627V37.3629H35.7627V37.1189L37.0787 35.4189H37.3707ZM36.1387 37.1189H37.0707V35.9189L36.1387 37.1189ZM38.4651 37.6789H39.9251V37.9709H38.1491V37.5989C38.1491 37.3029 38.2611 37.0856 38.4851 36.9469C38.5571 36.9016 38.6371 36.8616 38.7251 36.8269L39.2211 36.6269C39.4771 36.5256 39.6051 36.3589 39.6051 36.1269C39.6051 35.9989 39.5611 35.8949 39.4731 35.8149C39.3851 35.7323 39.2611 35.6909 39.1011 35.6909C38.9437 35.6909 38.8144 35.7243 38.7131 35.7909C38.6144 35.8576 38.5571 35.9576 38.5411 36.0909H38.1931C38.2064 35.8723 38.2944 35.7043 38.4571 35.5869C38.6197 35.4696 38.8277 35.4109 39.0811 35.4109C39.3371 35.4109 39.5451 35.4803 39.7051 35.6189C39.8651 35.7576 39.9451 35.9296 39.9451 36.1349C39.9451 36.3376 39.8917 36.4989 39.7851 36.6189C39.6811 36.7389 39.5371 36.8349 39.3531 36.9069L38.8451 37.1109C38.7171 37.1643 38.6211 37.2256 38.5571 37.2949C38.4957 37.3616 38.4651 37.4496 38.4651 37.5589V37.6789ZM40.6334 37.9909C40.572 37.9856 40.5214 37.9656 40.4814 37.9309C40.4414 37.8963 40.4214 37.8496 40.4214 37.7909C40.4214 37.7323 40.4414 37.6829 40.4814 37.6429C40.524 37.6029 40.5827 37.5829 40.6574 37.5829C40.7347 37.5829 40.7987 37.6136 40.8494 37.6749C40.9 37.7336 40.9254 37.8083 40.9254 37.8989C40.9254 37.9896 40.896 38.0816 40.8374 38.1749C40.7787 38.2709 40.6894 38.3483 40.5694 38.4069L40.3334 38.2909C40.4987 38.2109 40.5987 38.1109 40.6334 37.9909ZM43.0732 36.0989C43.0732 36.3656 42.9266 36.5509 42.6332 36.6549C42.7932 36.7003 42.9226 36.7749 43.0212 36.8789C43.1199 36.9829 43.1692 37.1163 43.1692 37.2789C43.1692 37.5003 43.0852 37.6789 42.9172 37.8149C42.7492 37.9483 42.5279 38.0149 42.2532 38.0149C41.9786 38.0149 41.7439 37.9443 41.5492 37.8029C41.3572 37.6589 41.2612 37.4576 41.2612 37.1989H41.5892C41.5946 37.3696 41.6572 37.5003 41.7772 37.5909C41.8999 37.6816 42.0546 37.7269 42.2412 37.7269C42.4279 37.7269 42.5719 37.6829 42.6732 37.5949C42.7772 37.5043 42.8292 37.3936 42.8292 37.2629C42.8292 37.1296 42.7799 37.0216 42.6812 36.9389C42.5826 36.8536 42.4226 36.8109 42.2012 36.8109H41.9132V36.5589H42.1092C42.3012 36.5589 42.4532 36.5216 42.5652 36.4469C42.6772 36.3696 42.7332 36.2669 42.7332 36.1389C42.7332 36.0109 42.6879 35.9056 42.5972 35.8229C42.5066 35.7403 42.3866 35.6989 42.2372 35.6989C42.0879 35.6989 41.9626 35.7256 41.8612 35.7789C41.7626 35.8296 41.6959 35.9256 41.6612 36.0669H41.3332C41.3626 35.8456 41.4546 35.6816 41.6092 35.5749C41.7639 35.4656 41.9626 35.4109 42.2052 35.4109C42.4506 35.4109 42.6559 35.4763 42.8212 35.6069C42.9892 35.7349 43.0732 35.8989 43.0732 36.0989ZM44.6085 35.4109C44.9125 35.4109 45.1525 35.5229 45.3285 35.7469C45.5045 35.9709 45.5925 36.2936 45.5925 36.7149C45.5925 37.1336 45.5045 37.4549 45.3285 37.6789C45.1525 37.9029 44.9125 38.0149 44.6085 38.0149C44.3045 38.0149 44.0632 37.9043 43.8845 37.6829C43.7085 37.4616 43.6205 37.1389 43.6205 36.7149C43.6205 36.2883 43.7085 35.9643 43.8845 35.7429C44.0632 35.5216 44.3045 35.4109 44.6085 35.4109ZM45.2645 36.7149C45.2645 36.3869 45.2085 36.1363 45.0965 35.9629C44.9845 35.7869 44.8205 35.6989 44.6045 35.6989C44.3912 35.6989 44.2285 35.7869 44.1165 35.9629C44.0045 36.1363 43.9485 36.3869 43.9485 36.7149C43.9485 37.0403 44.0045 37.2909 44.1165 37.4669C44.2285 37.6403 44.3912 37.7269 44.6045 37.7269C44.8205 37.7269 44.9845 37.6403 45.0965 37.4669C45.2085 37.2909 45.2645 37.0403 45.2645 36.7149ZM46.9835 35.4109C47.2875 35.4109 47.5275 35.5229 47.7035 35.7469C47.8795 35.9709 47.9675 36.2936 47.9675 36.7149C47.9675 37.1336 47.8795 37.4549 47.7035 37.6789C47.5275 37.9029 47.2875 38.0149 46.9835 38.0149C46.6795 38.0149 46.4382 37.9043 46.2595 37.6829C46.0835 37.4616 45.9955 37.1389 45.9955 36.7149C45.9955 36.2883 46.0835 35.9643 46.2595 35.7429C46.4382 35.5216 46.6795 35.4109 46.9835 35.4109ZM47.6395 36.7149C47.6395 36.3869 47.5835 36.1363 47.4715 35.9629C47.3595 35.7869 47.1955 35.6989 46.9795 35.6989C46.7662 35.6989 46.6035 35.7869 46.4915 35.9629C46.3795 36.1363 46.3235 36.3869 46.3235 36.7149C46.3235 37.0403 46.3795 37.2909 46.4915 37.4669C46.6035 37.6403 46.7662 37.7269 46.9795 37.7269C47.1955 37.7269 47.3595 37.6403 47.4715 37.4669C47.5835 37.2909 47.6395 37.0403 47.6395 36.7149ZM49.8276 36.4269C49.953 36.1496 50.1676 36.0109 50.4716 36.0109C50.637 36.0109 50.7756 36.0523 50.8876 36.1349C50.9996 36.2149 51.081 36.3269 51.1316 36.4709C51.2516 36.1643 51.4743 36.0109 51.7996 36.0109C52.029 36.0109 52.2063 36.0856 52.3316 36.2349C52.457 36.3843 52.5196 36.5883 52.5196 36.8469V37.9709H52.2076V36.8469C52.2076 36.6629 52.1636 36.5243 52.0756 36.4309C51.9903 36.3376 51.8663 36.2909 51.7036 36.2909C51.541 36.2909 51.4143 36.3576 51.3236 36.4909C51.2356 36.6243 51.1916 36.8083 51.1916 37.0429V37.9709H50.8796V36.8469C50.8796 36.6629 50.8356 36.5243 50.7476 36.4309C50.6623 36.3376 50.5396 36.2909 50.3796 36.2909C50.2196 36.2909 50.0903 36.3563 49.9916 36.4869C49.893 36.6176 49.841 36.7989 49.8356 37.0309V37.9709H49.5196V36.0589H49.7916L49.8276 36.4269ZM53.1619 36.5269C53.1619 36.3696 53.2286 36.2443 53.3619 36.1509C53.4979 36.0576 53.6806 36.0109 53.9099 36.0109C54.1392 36.0109 54.3179 36.0589 54.4459 36.1549C54.5766 36.2509 54.6446 36.3723 54.6499 36.5189H54.3419C54.3179 36.3456 54.1712 36.2589 53.9019 36.2589C53.7712 36.2589 53.6699 36.2883 53.5979 36.3469C53.5286 36.4056 53.4939 36.4696 53.4939 36.5389C53.4939 36.6056 53.5206 36.6629 53.5739 36.7109C53.6272 36.7563 53.7126 36.7963 53.8299 36.8309L54.2139 36.9589C54.3766 37.0096 54.5006 37.0749 54.5859 37.1549C54.6739 37.2323 54.7179 37.3403 54.7179 37.4789C54.7179 37.6149 54.6472 37.7389 54.5059 37.8509C54.3646 37.9603 54.1672 38.0149 53.9139 38.0149C53.6606 38.0149 53.4632 37.9589 53.3219 37.8469C53.1806 37.7323 53.1059 37.5856 53.0979 37.4069H53.4019C53.4072 37.5269 53.4552 37.6176 53.5459 37.6789C53.6392 37.7376 53.7552 37.7669 53.8939 37.7669C54.0326 37.7669 54.1472 37.7376 54.2379 37.6789C54.3286 37.6203 54.3739 37.5509 54.3739 37.4709C54.3739 37.3883 54.3472 37.3256 54.2939 37.2829C54.2406 37.2403 54.1539 37.2029 54.0339 37.1709L53.6619 37.0469C53.3286 36.9483 53.1619 36.7749 53.1619 36.5269ZM55.4474 37.9109C55.2874 37.8336 55.2074 37.7149 55.2074 37.5549C55.2074 37.4723 55.238 37.4003 55.2994 37.3389C55.3634 37.2749 55.442 37.2323 55.5354 37.2109C55.3914 37.0829 55.3194 36.9149 55.3194 36.7069C55.3194 36.4989 55.3927 36.3309 55.5394 36.2029C55.6887 36.0749 55.8647 36.0109 56.0674 36.0109C56.27 36.0109 56.442 36.0589 56.5834 36.1549C56.602 36.0136 56.658 35.9003 56.7514 35.8149C56.8474 35.7296 56.9727 35.6869 57.1274 35.6869L57.0994 35.9989C56.8647 35.9989 56.742 36.0976 56.7314 36.2949C56.8247 36.4096 56.8714 36.5469 56.8714 36.7069C56.8714 36.9123 56.7967 37.0816 56.6474 37.2149C56.5007 37.3456 56.3167 37.4109 56.0954 37.4109C55.9434 37.4109 55.8087 37.3803 55.6914 37.3189C55.638 37.3296 55.59 37.3549 55.5474 37.3949C55.5047 37.4323 55.4834 37.4843 55.4834 37.5509C55.4834 37.6923 55.6007 37.7629 55.8354 37.7629H56.5794C56.758 37.7629 56.8994 37.8016 57.0034 37.8789C57.1074 37.9536 57.1594 38.0589 57.1594 38.1949C57.1594 38.3976 57.0567 38.5749 56.8514 38.7269C56.6487 38.8789 56.3914 38.9549 56.0794 38.9549C55.7674 38.9549 55.522 38.8963 55.3434 38.7789C55.1647 38.6643 55.0754 38.5189 55.0754 38.3429C55.0754 38.2283 55.1087 38.1349 55.1754 38.0629C55.2447 37.9909 55.3354 37.9403 55.4474 37.9109ZM55.3874 38.3309C55.3874 38.4323 55.442 38.5189 55.5514 38.5909C55.6634 38.6656 55.8314 38.7029 56.0554 38.7029C56.282 38.7029 56.47 38.6536 56.6194 38.5549C56.7714 38.4589 56.8474 38.3456 56.8474 38.2149C56.8474 38.1536 56.8247 38.1003 56.7794 38.0549C56.7367 38.0123 56.67 37.9909 56.5794 37.9909H55.8074C55.6714 37.9963 55.5674 38.0283 55.4954 38.0869C55.4234 38.1483 55.3874 38.2296 55.3874 38.3309ZM56.5634 36.7069C56.5634 36.5683 56.522 36.4563 56.4394 36.3709C56.3567 36.2829 56.242 36.2389 56.0954 36.2389C55.9514 36.2389 55.838 36.2829 55.7554 36.3709C55.6727 36.4563 55.6314 36.5683 55.6314 36.7069C55.6314 36.8456 55.6727 36.9603 55.7554 37.0509C55.8407 37.1389 55.9554 37.1829 56.0994 37.1829C56.2434 37.1829 56.3567 37.1376 56.4394 37.0469C56.522 36.9563 56.5634 36.8429 56.5634 36.7069ZM57.5291 36.5269C57.5291 36.3696 57.5958 36.2443 57.7291 36.1509C57.8651 36.0576 58.0478 36.0109 58.2771 36.0109C58.5064 36.0109 58.6851 36.0589 58.8131 36.1549C58.9438 36.2509 59.0118 36.3723 59.0171 36.5189H58.7091C58.6851 36.3456 58.5384 36.2589 58.2691 36.2589C58.1384 36.2589 58.0371 36.2883 57.9651 36.3469C57.8958 36.4056 57.8611 36.4696 57.8611 36.5389C57.8611 36.6056 57.8878 36.6629 57.9411 36.7109C57.9944 36.7563 58.0798 36.7963 58.1971 36.8309L58.5811 36.9589C58.7438 37.0096 58.8678 37.0749 58.9531 37.1549C59.0411 37.2323 59.0851 37.3403 59.0851 37.4789C59.0851 37.6149 59.0144 37.7389 58.8731 37.8509C58.7318 37.9603 58.5344 38.0149 58.2811 38.0149C58.0278 38.0149 57.8304 37.9589 57.6891 37.8469C57.5478 37.7323 57.4731 37.5856 57.4651 37.4069H57.7691C57.7744 37.5269 57.8224 37.6176 57.9131 37.6789C58.0064 37.7376 58.1224 37.7669 58.2611 37.7669C58.3998 37.7669 58.5144 37.7376 58.6051 37.6789C58.6958 37.6203 58.7411 37.5509 58.7411 37.4709C58.7411 37.3883 58.7144 37.3256 58.6611 37.2829C58.6078 37.2403 58.5211 37.2029 58.4011 37.1709L58.0291 37.0469C57.6958 36.9483 57.5291 36.7749 57.5291 36.5269ZM60.5877 36.5269C60.5877 36.3696 60.6544 36.2443 60.7877 36.1509C60.9237 36.0576 61.1064 36.0109 61.3357 36.0109C61.565 36.0109 61.7437 36.0589 61.8717 36.1549C62.0024 36.2509 62.0704 36.3723 62.0757 36.5189H61.7677C61.7437 36.3456 61.597 36.2589 61.3277 36.2589C61.197 36.2589 61.0957 36.2883 61.0237 36.3469C60.9544 36.4056 60.9197 36.4696 60.9197 36.5389C60.9197 36.6056 60.9464 36.6629 60.9997 36.7109C61.053 36.7563 61.1384 36.7963 61.2557 36.8309L61.6397 36.9589C61.8024 37.0096 61.9264 37.0749 62.0117 37.1549C62.0997 37.2323 62.1437 37.3403 62.1437 37.4789C62.1437 37.6149 62.073 37.7389 61.9317 37.8509C61.7904 37.9603 61.593 38.0149 61.3397 38.0149C61.0864 38.0149 60.889 37.9589 60.7477 37.8469C60.6064 37.7323 60.5317 37.5856 60.5237 37.4069H60.8277C60.833 37.5269 60.881 37.6176 60.9717 37.6789C61.065 37.7376 61.181 37.7669 61.3197 37.7669C61.4584 37.7669 61.573 37.7376 61.6637 37.6789C61.7544 37.6203 61.7997 37.5509 61.7997 37.4709C61.7997 37.3883 61.773 37.3256 61.7197 37.2829C61.6664 37.2403 61.5797 37.2029 61.4597 37.1709L61.0877 37.0469C60.7544 36.9483 60.5877 36.7749 60.5877 36.5269ZM63.4532 37.7589C63.7172 37.7589 63.8678 37.6429 63.9052 37.4109H64.2292C64.1998 37.6029 64.1145 37.7523 63.9732 37.8589C63.8345 37.9629 63.6612 38.0149 63.4532 38.0149C63.1972 38.0149 62.9892 37.9243 62.8292 37.7429C62.6692 37.5589 62.5892 37.3149 62.5892 37.0109C62.5892 36.7069 62.6692 36.4643 62.8292 36.2829C62.9918 36.1016 63.2065 36.0109 63.4732 36.0109C63.7425 36.0109 63.9425 36.1149 64.0732 36.3229C64.2065 36.5309 64.2532 36.7843 64.2132 37.0829H62.9052C62.9052 37.2803 62.9532 37.4429 63.0492 37.5709C63.1452 37.6963 63.2798 37.7589 63.4532 37.7589ZM63.6852 36.3109C63.6238 36.2789 63.5492 36.2629 63.4612 36.2629C63.2985 36.2629 63.1692 36.3189 63.0732 36.4309C62.9798 36.5403 62.9252 36.6776 62.9092 36.8429H63.9292C63.9292 36.5763 63.8478 36.3989 63.6852 36.3109ZM65.1558 36.4269C65.2811 36.1496 65.4958 36.0109 65.7998 36.0109C66.0264 36.0109 66.2024 36.0856 66.3278 36.2349C66.4558 36.3843 66.5198 36.5883 66.5198 36.8469V37.9709H66.2078V36.8469C66.2078 36.6629 66.1638 36.5243 66.0758 36.4309C65.9904 36.3376 65.8678 36.2909 65.7078 36.2909C65.5478 36.2909 65.4184 36.3563 65.3198 36.4869C65.2211 36.6176 65.1691 36.7989 65.1638 37.0309V37.9709H64.8478V36.0589H65.1198L65.1558 36.4269ZM68.2619 37.9149C68.0326 38.0216 67.8232 38.0443 67.6339 37.9829C67.4979 37.9403 67.4019 37.8509 67.3459 37.7149C67.3166 37.6483 67.3019 37.5683 67.3019 37.4749V36.2989H66.9939V36.0589H67.3019V35.5269H67.6139V36.0589H68.2139V36.2989H67.6139V37.4709C67.6139 37.6656 67.7046 37.7629 67.8859 37.7629C67.9846 37.7629 68.0952 37.7389 68.2179 37.6909L68.2619 37.9149ZM69.7389 36.0549H70.0549V37.9709H69.7389V36.0549ZM69.8949 35.6069C69.8309 35.6069 69.7803 35.5896 69.7429 35.5549C69.7083 35.5176 69.6909 35.4696 69.6909 35.4109C69.6909 35.3496 69.7083 35.3016 69.7429 35.2669C69.7803 35.2296 69.8309 35.2109 69.8949 35.2109C69.9589 35.2109 70.0096 35.2296 70.0469 35.2669C70.0869 35.3016 70.1069 35.3496 70.1069 35.4109C70.1069 35.4696 70.0869 35.5176 70.0469 35.5549C70.0096 35.5896 69.9589 35.6069 69.8949 35.6069ZM71.2183 36.4269C71.3436 36.1496 71.5583 36.0109 71.8623 36.0109C72.0889 36.0109 72.2649 36.0856 72.3903 36.2349C72.5183 36.3843 72.5823 36.5883 72.5823 36.8469V37.9709H72.2703V36.8469C72.2703 36.6629 72.2263 36.5243 72.1383 36.4309C72.0529 36.3376 71.9303 36.2909 71.7703 36.2909C71.6103 36.2909 71.4809 36.3563 71.3823 36.4869C71.2836 36.6176 71.2316 36.7989 71.2263 37.0309V37.9709H70.9103V36.0589H71.1823L71.2183 36.4269ZM75.2775 37.9149C75.0482 38.0216 74.8389 38.0443 74.6495 37.9829C74.5135 37.9403 74.4175 37.8509 74.3615 37.7149C74.3322 37.6483 74.3175 37.5683 74.3175 37.4749V36.2989H74.0095V36.0589H74.3175V35.5269H74.6295V36.0589H75.2295V36.2989H74.6295V37.4709C74.6295 37.6656 74.7202 37.7629 74.9015 37.7629C75.0002 37.7629 75.1109 37.7389 75.2335 37.6909L75.2775 37.9149ZM76.0974 36.4109C76.2254 36.1443 76.4374 36.0109 76.7334 36.0109C76.9601 36.0109 77.1361 36.0856 77.2614 36.2349C77.3894 36.3843 77.4534 36.5883 77.4534 36.8469V37.9709H77.1414V36.8469C77.1414 36.6629 77.0974 36.5243 77.0094 36.4309C76.9241 36.3376 76.8001 36.2909 76.6374 36.2909C76.4748 36.2909 76.3441 36.3603 76.2454 36.4989C76.1468 36.6349 76.0974 36.8243 76.0974 37.0669V37.9709H75.7814V35.2469H76.0974V36.4109ZM78.8555 37.7589C79.1195 37.7589 79.2702 37.6429 79.3075 37.4109H79.6315C79.6022 37.6029 79.5168 37.7523 79.3755 37.8589C79.2368 37.9629 79.0635 38.0149 78.8555 38.0149C78.5995 38.0149 78.3915 37.9243 78.2315 37.7429C78.0715 37.5589 77.9915 37.3149 77.9915 37.0109C77.9915 36.7069 78.0715 36.4643 78.2315 36.2829C78.3942 36.1016 78.6088 36.0109 78.8755 36.0109C79.1448 36.0109 79.3448 36.1149 79.4755 36.3229C79.6088 36.5309 79.6555 36.7843 79.6155 37.0829H78.3075C78.3075 37.2803 78.3555 37.4429 78.4515 37.5709C78.5475 37.6963 78.6822 37.7589 78.8555 37.7589ZM79.0875 36.3109C79.0262 36.2789 78.9515 36.2629 78.8635 36.2629C78.7008 36.2629 78.5715 36.3189 78.4755 36.4309C78.3822 36.5403 78.3275 36.6776 78.3115 36.8429H79.3315C79.3315 36.5763 79.2502 36.3989 79.0875 36.3109ZM81.5032 36.3509C81.6286 36.1243 81.8152 36.0109 82.0632 36.0109C82.3139 36.0109 82.5219 36.1029 82.6872 36.2869C82.8552 36.4709 82.9392 36.7136 82.9392 37.0149C82.9392 37.3163 82.8552 37.5589 82.6872 37.7429C82.5192 37.9243 82.3126 38.0149 82.0672 38.0149C81.8219 38.0149 81.6406 37.9229 81.5232 37.7389V38.9109H81.2072V36.0589H81.4672L81.5032 36.3509ZM82.0512 37.7349C82.2006 37.7349 82.3312 37.6709 82.4432 37.5429C82.5579 37.4149 82.6152 37.2403 82.6152 37.0189C82.6152 36.7949 82.5606 36.6176 82.4512 36.4869C82.3446 36.3563 82.2139 36.2909 82.0592 36.2909C81.9046 36.2909 81.7779 36.3403 81.6792 36.4389C81.5806 36.5349 81.5286 36.6656 81.5232 36.8309V37.1949C81.5232 37.3629 81.5739 37.4949 81.6752 37.5909C81.7766 37.6869 81.9019 37.7349 82.0512 37.7349ZM84.7662 36.7309C84.7662 36.5576 84.7302 36.4336 84.6582 36.3589C84.5862 36.2843 84.4809 36.2469 84.3422 36.2469C84.2062 36.2469 84.0956 36.2749 84.0102 36.3309C83.9276 36.3843 83.8862 36.4696 83.8862 36.5869H83.5382C83.5382 36.2936 83.6956 36.1123 84.0102 36.0429C84.1062 36.0216 84.2102 36.0109 84.3222 36.0109C84.5596 36.0109 84.7449 36.0709 84.8782 36.1909C85.0116 36.3109 85.0782 36.4936 85.0782 36.7389V37.9709H84.8062L84.7742 37.6509C84.6569 37.8936 84.4449 38.0149 84.1382 38.0149C83.9329 38.0149 83.7676 37.9576 83.6422 37.8429C83.5196 37.7283 83.4582 37.5856 83.4582 37.4149C83.4582 37.2443 83.5262 37.1109 83.6622 37.0149C83.8009 36.9189 83.9729 36.8709 84.1782 36.8709C84.3836 36.8709 84.5796 36.9056 84.7662 36.9749V36.7309ZM84.7662 37.1749C84.5769 37.1216 84.4116 37.0949 84.2702 37.0949C84.1289 37.0949 84.0142 37.1203 83.9262 37.1709C83.8382 37.2216 83.7942 37.3016 83.7942 37.4109C83.7942 37.6509 83.9302 37.7709 84.2022 37.7709C84.3569 37.7709 84.4889 37.7163 84.5982 37.6069C84.7102 37.4949 84.7662 37.3509 84.7662 37.1749ZM85.7205 36.5269C85.7205 36.3696 85.7872 36.2443 85.9205 36.1509C86.0565 36.0576 86.2392 36.0109 86.4685 36.0109C86.6978 36.0109 86.8765 36.0589 87.0045 36.1549C87.1352 36.2509 87.2032 36.3723 87.2085 36.5189H86.9005C86.8765 36.3456 86.7298 36.2589 86.4605 36.2589C86.3298 36.2589 86.2285 36.2883 86.1565 36.3469C86.0872 36.4056 86.0525 36.4696 86.0525 36.5389C86.0525 36.6056 86.0792 36.6629 86.1325 36.7109C86.1858 36.7563 86.2712 36.7963 86.3885 36.8309L86.7725 36.9589C86.9352 37.0096 87.0592 37.0749 87.1445 37.1549C87.2325 37.2323 87.2765 37.3403 87.2765 37.4789C87.2765 37.6149 87.2058 37.7389 87.0645 37.8509C86.9232 37.9603 86.7258 38.0149 86.4725 38.0149C86.2192 38.0149 86.0218 37.9589 85.8805 37.8469C85.7392 37.7323 85.6645 37.5856 85.6565 37.4069H85.9605C85.9658 37.5269 86.0138 37.6176 86.1045 37.6789C86.1978 37.7376 86.3138 37.7669 86.4525 37.7669C86.5912 37.7669 86.7058 37.7376 86.7965 37.6789C86.8872 37.6203 86.9325 37.5509 86.9325 37.4709C86.9325 37.3883 86.9058 37.3256 86.8525 37.2829C86.7992 37.2403 86.7125 37.2029 86.5925 37.1709L86.2205 37.0469C85.8872 36.9483 85.7205 36.7749 85.7205 36.5269ZM88.926 37.9149C88.6966 38.0216 88.4873 38.0443 88.298 37.9829C88.162 37.9403 88.066 37.8509 88.01 37.7149C87.9806 37.6483 87.966 37.5683 87.966 37.4749V36.2989H87.658V36.0589H87.966V35.5269H88.278V36.0589H88.878V36.2989H88.278V37.4709C88.278 37.6656 88.3686 37.7629 88.55 37.7629C88.6486 37.7629 88.7593 37.7389 88.882 37.6909L88.926 37.9149ZM91.071 36.0109C91.3377 36.0109 91.5523 36.0976 91.715 36.2709C91.8803 36.4443 91.963 36.6923 91.963 37.0149C91.963 37.3349 91.8803 37.5816 91.715 37.7549C91.5523 37.9283 91.3377 38.0149 91.071 38.0149C90.8043 38.0149 90.5883 37.9283 90.423 37.7549C90.2603 37.5816 90.179 37.3349 90.179 37.0149C90.179 36.6923 90.2603 36.4443 90.423 36.2709C90.5883 36.0976 90.8043 36.0109 91.071 36.0109ZM91.643 37.0149C91.643 36.7856 91.595 36.6069 91.499 36.4789C91.403 36.3483 91.2617 36.2829 91.075 36.2829C90.891 36.2829 90.7497 36.3483 90.651 36.4789C90.5523 36.6069 90.503 36.7856 90.503 37.0149C90.503 37.2416 90.5497 37.4203 90.643 37.5509C90.7363 37.6789 90.875 37.7429 91.059 37.7429C91.2457 37.7429 91.3897 37.6789 91.491 37.5509C91.5923 37.4203 91.643 37.2416 91.643 37.0149ZM92.8706 36.4269C92.9959 36.1496 93.2106 36.0109 93.5146 36.0109C93.7413 36.0109 93.9173 36.0856 94.0426 36.2349C94.1706 36.3843 94.2346 36.5883 94.2346 36.8469V37.9709H93.9226V36.8469C93.9226 36.6629 93.8786 36.5243 93.7906 36.4309C93.7053 36.3376 93.5826 36.2909 93.4226 36.2909C93.2626 36.2909 93.1333 36.3563 93.0346 36.4869C92.9359 36.6176 92.8839 36.7989 92.8786 37.0309V37.9709H92.5626V36.0589H92.8346L92.8706 36.4269ZM95.6368 37.7589C95.9008 37.7589 96.0514 37.6429 96.0888 37.4109H96.4128C96.3834 37.6029 96.2981 37.7523 96.1568 37.8589C96.0181 37.9629 95.8448 38.0149 95.6368 38.0149C95.3808 38.0149 95.1728 37.9243 95.0128 37.7429C94.8528 37.5589 94.7728 37.3149 94.7728 37.0109C94.7728 36.7069 94.8528 36.4643 95.0128 36.2829C95.1754 36.1016 95.3901 36.0109 95.6568 36.0109C95.9261 36.0109 96.1261 36.1149 96.2568 36.3229C96.3901 36.5309 96.4368 36.7843 96.3968 37.0829H95.0888C95.0888 37.2803 95.1368 37.4429 95.2328 37.5709C95.3288 37.6963 95.4634 37.7589 95.6368 37.7589ZM95.8688 36.3109C95.8074 36.2789 95.7328 36.2629 95.6448 36.2629C95.4821 36.2629 95.3528 36.3189 95.2568 36.4309C95.1634 36.5403 95.1088 36.6776 95.0928 36.8429H96.1128C96.1128 36.5763 96.0314 36.3989 95.8688 36.3109ZM36.3667 41.4269C36.492 41.1496 36.7067 41.0109 37.0107 41.0109C37.176 41.0109 37.3147 41.0523 37.4267 41.1349C37.5387 41.2149 37.62 41.3269 37.6707 41.4709C37.7907 41.1643 38.0134 41.0109 38.3387 41.0109C38.568 41.0109 38.7454 41.0856 38.8707 41.2349C38.996 41.3843 39.0587 41.5883 39.0587 41.8469V42.9709H38.7467V41.8469C38.7467 41.6629 38.7027 41.5243 38.6147 41.4309C38.5294 41.3376 38.4054 41.2909 38.2427 41.2909C38.08 41.2909 37.9534 41.3576 37.8627 41.4909C37.7747 41.6243 37.7307 41.8083 37.7307 42.0429V42.9709H37.4187V41.8469C37.4187 41.6629 37.3747 41.5243 37.2867 41.4309C37.2014 41.3376 37.0787 41.2909 36.9187 41.2909C36.7587 41.2909 36.6294 41.3563 36.5307 41.4869C36.432 41.6176 36.38 41.7989 36.3747 42.0309V42.9709H36.0587V41.0589H36.3307L36.3667 41.4269ZM40.489 41.0109C40.7556 41.0109 40.9703 41.0976 41.133 41.2709C41.2983 41.4443 41.381 41.6923 41.381 42.0149C41.381 42.3349 41.2983 42.5816 41.133 42.7549C40.9703 42.9283 40.7556 43.0149 40.489 43.0149C40.2223 43.0149 40.0063 42.9283 39.841 42.7549C39.6783 42.5816 39.597 42.3349 39.597 42.0149C39.597 41.6923 39.6783 41.4443 39.841 41.2709C40.0063 41.0976 40.2223 41.0109 40.489 41.0109ZM41.061 42.0149C41.061 41.7856 41.013 41.6069 40.917 41.4789C40.821 41.3483 40.6796 41.2829 40.493 41.2829C40.309 41.2829 40.1676 41.3483 40.069 41.4789C39.9703 41.6069 39.921 41.7856 39.921 42.0149C39.921 42.2416 39.9676 42.4203 40.061 42.5509C40.1543 42.6789 40.293 42.7429 40.477 42.7429C40.6636 42.7429 40.8076 42.6789 40.909 42.5509C41.0103 42.4203 41.061 42.2416 41.061 42.0149ZM42.2886 41.4269C42.4139 41.1496 42.6286 41.0109 42.9326 41.0109C43.1592 41.0109 43.3352 41.0856 43.4606 41.2349C43.5886 41.3843 43.6526 41.5883 43.6526 41.8469V42.9709H43.3406V41.8469C43.3406 41.6629 43.2966 41.5243 43.2086 41.4309C43.1232 41.3376 43.0006 41.2909 42.8406 41.2909C42.6806 41.2909 42.5512 41.3563 42.4526 41.4869C42.3539 41.6176 42.3019 41.7989 42.2966 42.0309V42.9709H41.9806V41.0589H42.2526L42.2886 41.4269ZM45.3947 42.9149C45.1654 43.0216 44.9561 43.0443 44.7667 42.9829C44.6307 42.9403 44.5347 42.8509 44.4787 42.7149C44.4494 42.6483 44.4347 42.5683 44.4347 42.4749V41.2989H44.1267V41.0589H44.4347V40.5269H44.7467V41.0589H45.3467V41.2989H44.7467V42.4709C44.7467 42.6656 44.8374 42.7629 45.0187 42.7629C45.1174 42.7629 45.2281 42.7389 45.3507 42.6909L45.3947 42.9149ZM46.2146 41.4109C46.3426 41.1443 46.5546 41.0109 46.8506 41.0109C47.0773 41.0109 47.2533 41.0856 47.3786 41.2349C47.5066 41.3843 47.5706 41.5883 47.5706 41.8469V42.9709H47.2586V41.8469C47.2586 41.6629 47.2146 41.5243 47.1266 41.4309C47.0413 41.3376 46.9173 41.2909 46.7546 41.2909C46.592 41.2909 46.4613 41.3603 46.3626 41.4989C46.264 41.6349 46.2146 41.8243 46.2146 42.0669V42.9709H45.8986V40.2469H46.2146V41.4109Z" fill="#3861A3"/>
<path d="M42.572 48.708H44.032V49H42.256V48.628C42.256 48.332 42.368 48.1147 42.592 47.976C42.664 47.9307 42.744 47.8907 42.832 47.856L43.328 47.656C43.584 47.5547 43.712 47.388 43.712 47.156C43.712 47.028 43.668 46.924 43.58 46.844C43.492 46.7613 43.368 46.72 43.208 46.72C43.0507 46.72 42.9213 46.7533 42.82 46.82C42.7213 46.8867 42.664 46.9867 42.648 47.12H42.3C42.3133 46.9013 42.4013 46.7333 42.564 46.616C42.7267 46.4987 42.9347 46.44 43.188 46.44C43.444 46.44 43.652 46.5093 43.812 46.648C43.972 46.7867 44.052 46.9587 44.052 47.164C44.052 47.3667 43.9987 47.528 43.892 47.648C43.788 47.768 43.644 47.864 43.46 47.936L42.952 48.14C42.824 48.1933 42.728 48.2547 42.664 48.324C42.6027 48.3907 42.572 48.4787 42.572 48.588V48.708ZM45.5123 46.44C45.8163 46.44 46.0563 46.552 46.2323 46.776C46.4083 47 46.4963 47.3227 46.4963 47.744C46.4963 48.1627 46.4083 48.484 46.2323 48.708C46.0563 48.932 45.8163 49.044 45.5123 49.044C45.2083 49.044 44.967 48.9333 44.7883 48.712C44.6123 48.4907 44.5243 48.168 44.5243 47.744C44.5243 47.3173 44.6123 46.9933 44.7883 46.772C44.967 46.5507 45.2083 46.44 45.5123 46.44ZM46.1683 47.744C46.1683 47.416 46.1123 47.1653 46.0003 46.992C45.8883 46.816 45.7243 46.728 45.5083 46.728C45.295 46.728 45.1323 46.816 45.0203 46.992C44.9083 47.1653 44.8523 47.416 44.8523 47.744C44.8523 48.0693 44.9083 48.32 45.0203 48.496C45.1323 48.6693 45.295 48.756 45.5083 48.756C45.7243 48.756 45.8883 48.6693 46.0003 48.496C46.1123 48.32 46.1683 48.0693 46.1683 47.744ZM42.752 51.44C42.8933 51.44 43.0147 51.4907 43.116 51.592C43.2173 51.6933 43.268 51.8347 43.268 52.016C43.268 52.1973 43.2173 52.3387 43.116 52.44C43.0173 52.5387 42.896 52.588 42.752 52.588C42.608 52.588 42.4867 52.5373 42.388 52.436C42.292 52.3347 42.244 52.1947 42.244 52.016C42.244 51.8373 42.2933 51.6973 42.392 51.596C42.4907 51.492 42.6107 51.44 42.752 51.44ZM43.012 52.016C43.012 51.8907 42.988 51.7987 42.94 51.74C42.892 51.6813 42.8293 51.652 42.752 51.652C42.6747 51.652 42.612 51.6813 42.564 51.74C42.516 51.7987 42.492 51.8907 42.492 52.016C42.492 52.1413 42.516 52.232 42.564 52.288C42.612 52.344 42.6747 52.372 42.752 52.372C42.8293 52.372 42.892 52.344 42.94 52.288C42.988 52.232 43.012 52.1413 43.012 52.016ZM44.136 51.484H44.464L42.772 54H42.448L44.136 51.484ZM44.152 52.896C44.296 52.896 44.4173 52.9467 44.516 53.048C44.6173 53.1467 44.668 53.288 44.668 53.472C44.668 53.6533 44.6173 53.7947 44.516 53.896C44.4173 53.9947 44.296 54.044 44.152 54.044C44.008 54.044 43.8867 53.9933 43.788 53.892C43.692 53.7907 43.644 53.6507 43.644 53.472C43.644 53.2907 43.692 53.1493 43.788 53.048C43.8867 52.9467 44.008 52.896 44.152 52.896ZM44.152 53.108C44.0747 53.108 44.012 53.1373 43.964 53.196C43.916 53.2547 43.892 53.3467 43.892 53.472C43.892 53.5973 43.916 53.688 43.964 53.744C44.012 53.8 44.0747 53.828 44.152 53.828C44.2293 53.828 44.292 53.8 44.34 53.744C44.388 53.688 44.412 53.5973 44.412 53.472C44.412 53.3467 44.388 53.2547 44.34 53.196C44.292 53.1373 44.2293 53.108 44.152 53.108Z" fill="white"/>
<path d="M49.5332 46.1655V48.3163" stroke="white" stroke-width="0.25" stroke-linecap="round"/>
<path d="M49 46.4596L49.5331 46L50.0478 46.4779" stroke="white" stroke-width="0.25" stroke-linecap="round" stroke-linejoin="round"/>
</g>
<defs>
<linearGradient id="paint0_linear" x1="248.42" y1="30.384" x2="248.42" y2="75.8954" gradientUnits="userSpaceOnUse">
<stop stop-color="#36C3DE" stop-opacity="0.15"/>
<stop offset="1" stop-color="#36C3DE" stop-opacity="0"/>
</linearGradient>
<clipPath id="clip0">
<rect width="374" height="84" fill="white"/>
</clipPath>
</defs>
</svg>
