<svg width="407" height="92" viewBox="0 0 407 92" fill="none" xmlns="http://www.w3.org/2000/svg">
<g clip-path="url(#clip0)">
<path d="M407.27 91.28H0.359985V4.89001C0.359985 2.13001 2.59999 -0.109985 5.35999 -0.109985H402.26C405.02 -0.109985 407.26 2.13001 407.26 4.89001V91.28H407.27Z" fill="#50B68D"/>
<path d="M407.12 91.22H28.51V20.32C28.51 17.9 30.47 15.94 32.89 15.94H407.13V91.22H407.12Z" fill="white"/>
<path d="M73.8964 34.3932V37.9972H77.3984V39.1362H73.8964V42.7402H72.5534V39.1362H69.0514V37.9972H72.5534V34.3932H73.8964ZM80.1413 41.4992H86.3463V42.7402H78.7983V41.1592C78.7983 39.9012 79.2743 38.9775 80.2263 38.3882C80.5323 38.1955 80.8723 38.0255 81.2463 37.8782L83.3543 37.0282C84.4423 36.5975 84.9863 35.8892 84.9863 34.9032C84.9863 34.3592 84.7993 33.9172 84.4253 33.5772C84.0513 33.2258 83.5243 33.0502 82.8443 33.0502C82.1756 33.0502 81.6259 33.1918 81.1953 33.4752C80.7759 33.7585 80.5323 34.1835 80.4643 34.7502H78.9853C79.0419 33.8208 79.4159 33.1068 80.1073 32.6082C80.7986 32.1095 81.6826 31.8602 82.7593 31.8602C83.8473 31.8602 84.7313 32.1548 85.4113 32.7442C86.0913 33.3335 86.4313 34.0645 86.4313 34.9372C86.4313 35.7985 86.2046 36.4842 85.7513 36.9942C85.3093 37.5042 84.6973 37.9122 83.9153 38.2182L81.7563 39.0852C81.2123 39.3118 80.8043 39.5725 80.5323 39.8672C80.2716 40.1505 80.1413 40.5245 80.1413 40.9892V41.4992ZM96.1566 34.7842C96.1566 35.9175 95.5333 36.7052 94.2866 37.1472C94.9666 37.3398 95.5163 37.6572 95.9356 38.0992C96.3549 38.5412 96.5646 39.1078 96.5646 39.7992C96.5646 40.7398 96.2076 41.4992 95.4936 42.0772C94.7796 42.6438 93.8389 42.9272 92.6716 42.9272C91.5043 42.9272 90.5069 42.6268 89.6796 42.0262C88.8636 41.4142 88.4556 40.5585 88.4556 39.4592H89.8496C89.8723 40.1845 90.1386 40.7398 90.6486 41.1252C91.1699 41.5105 91.8273 41.7032 92.6206 41.7032C93.4139 41.7032 94.0259 41.5162 94.4566 41.1422C94.8986 40.7568 95.1196 40.2865 95.1196 39.7312C95.1196 39.1645 94.9099 38.7055 94.4906 38.3542C94.0713 37.9915 93.3913 37.8102 92.4506 37.8102H91.2266V36.7392H92.0596C92.8756 36.7392 93.5216 36.5805 93.9976 36.2632C94.4736 35.9345 94.7116 35.4982 94.7116 34.9542C94.7116 34.4102 94.5189 33.9625 94.1336 33.6112C93.7483 33.2598 93.2383 33.0842 92.6036 33.0842C91.9689 33.0842 91.4363 33.1975 91.0056 33.4242C90.5863 33.6395 90.3029 34.0475 90.1556 34.6482H88.7616C88.8863 33.7075 89.2773 33.0105 89.9346 32.5572C90.5919 32.0925 91.4363 31.8602 92.4676 31.8602C93.5103 31.8602 94.3829 32.1378 95.0856 32.6932C95.7996 33.2372 96.1566 33.9342 96.1566 34.7842ZM104.892 31.8942V39.0002H106.745V40.1562H104.892V42.7402H103.583V40.1562H98.0575V39.1192L103.651 31.8942H104.892ZM99.6555 39.1192H103.617V34.0192L99.6555 39.1192ZM110.529 37.3342C109.112 36.6882 108.404 35.8098 108.404 34.6992C108.404 33.8492 108.755 33.1635 109.458 32.6422C110.16 32.1208 111.09 31.8602 112.246 31.8602C113.413 31.8602 114.371 32.1378 115.119 32.6932C115.867 33.2485 116.241 33.9625 116.241 34.8352C116.241 35.4245 116.042 35.9515 115.646 36.4162C115.26 36.8808 114.688 37.1698 113.929 37.2832L114.218 37.3852C115 37.6798 115.6 38.0312 116.02 38.4392C116.439 38.8358 116.649 39.3798 116.649 40.0712C116.649 40.9325 116.263 41.6238 115.493 42.1452C114.733 42.6665 113.702 42.9272 112.399 42.9272C111.107 42.9272 110.058 42.6382 109.254 42.0602C108.449 41.4822 108.047 40.7568 108.047 39.8842C108.047 39.1815 108.273 38.6092 108.727 38.1672C109.191 37.7252 109.792 37.4475 110.529 37.3342ZM111.804 37.8272C111.09 37.9065 110.517 38.1332 110.087 38.5072C109.656 38.8698 109.441 39.3232 109.441 39.8672C109.441 40.4112 109.713 40.8532 110.257 41.1932C110.801 41.5332 111.509 41.7032 112.382 41.7032C113.266 41.7032 113.963 41.5558 114.473 41.2612C114.994 40.9665 115.255 40.6095 115.255 40.1902C115.255 39.7708 115.119 39.4365 114.847 39.1872C114.575 38.9265 114.201 38.7112 113.725 38.5412L111.804 37.8272ZM109.815 34.8692C109.815 35.1752 109.939 35.4415 110.189 35.6682C110.438 35.8835 110.795 36.0818 111.26 36.2632L112.501 36.7392C113.181 36.7165 113.742 36.5408 114.184 36.2122C114.626 35.8722 114.847 35.4358 114.847 34.9032C114.847 34.3592 114.614 33.9228 114.15 33.5942C113.685 33.2542 113.084 33.0842 112.348 33.0842C111.611 33.0842 111.005 33.2485 110.529 33.5772C110.053 33.8945 109.815 34.3252 109.815 34.8692ZM122.637 31.8602C123.929 31.8602 124.949 32.3362 125.697 33.2882C126.445 34.2402 126.819 35.6115 126.819 37.4022C126.819 39.1815 126.445 40.5472 125.697 41.4992C124.949 42.4512 123.929 42.9272 122.637 42.9272C121.345 42.9272 120.319 42.4568 119.56 41.5162C118.812 40.5755 118.438 39.2042 118.438 37.4022C118.438 35.5888 118.812 34.2118 119.56 33.2712C120.319 32.3305 121.345 31.8602 122.637 31.8602ZM125.425 37.4022C125.425 36.0082 125.187 34.9428 124.711 34.2062C124.235 33.4582 123.538 33.0842 122.62 33.0842C121.713 33.0842 121.022 33.4582 120.546 34.2062C120.07 34.9428 119.832 36.0082 119.832 37.4022C119.832 38.7848 120.07 39.8502 120.546 40.5982C121.022 41.3348 121.713 41.7032 122.62 41.7032C123.538 41.7032 124.235 41.3348 124.711 40.5982C125.187 39.8502 125.425 38.7848 125.425 37.4022ZM134.94 31.8942V39.0002H136.793V40.1562H134.94V42.7402H133.631V40.1562H128.106V39.1192L133.699 31.8942H134.94ZM129.704 39.1192H133.665V34.0192L129.704 39.1192ZM142.226 31.8602C143.518 31.8602 144.538 32.3362 145.286 33.2882C146.034 34.2402 146.408 35.6115 146.408 37.4022C146.408 39.1815 146.034 40.5472 145.286 41.4992C144.538 42.4512 143.518 42.9272 142.226 42.9272C140.934 42.9272 139.909 42.4568 139.149 41.5162C138.401 40.5755 138.027 39.2042 138.027 37.4022C138.027 35.5888 138.401 34.2118 139.149 33.2712C139.909 32.3305 140.934 31.8602 142.226 31.8602ZM145.014 37.4022C145.014 36.0082 144.776 34.9428 144.3 34.2062C143.824 33.4582 143.127 33.0842 142.209 33.0842C141.303 33.0842 140.611 33.4582 140.135 34.2062C139.659 34.9428 139.421 36.0082 139.421 37.4022C139.421 38.7848 139.659 39.8502 140.135 40.5982C140.611 41.3348 141.303 41.7032 142.209 41.7032C143.127 41.7032 143.824 41.3348 144.3 40.5982C144.776 39.8502 145.014 38.7848 145.014 37.4022ZM155.839 34.7842C155.839 35.9175 155.216 36.7052 153.969 37.1472C154.649 37.3398 155.199 37.6572 155.618 38.0992C156.038 38.5412 156.247 39.1078 156.247 39.7992C156.247 40.7398 155.89 41.4992 155.176 42.0772C154.462 42.6438 153.522 42.9272 152.354 42.9272C151.187 42.9272 150.19 42.6268 149.362 42.0262C148.546 41.4142 148.138 40.5585 148.138 39.4592H149.532C149.555 40.1845 149.821 40.7398 150.331 41.1252C150.853 41.5105 151.51 41.7032 152.303 41.7032C153.097 41.7032 153.709 41.5162 154.139 41.1422C154.581 40.7568 154.802 40.2865 154.802 39.7312C154.802 39.1645 154.593 38.7055 154.173 38.3542C153.754 37.9915 153.074 37.8102 152.133 37.8102H150.909V36.7392H151.742C152.558 36.7392 153.204 36.5805 153.68 36.2632C154.156 35.9345 154.394 35.4982 154.394 34.9542C154.394 34.4102 154.202 33.9625 153.816 33.6112C153.431 33.2598 152.921 33.0842 152.286 33.0842C151.652 33.0842 151.119 33.1975 150.688 33.4242C150.269 33.6395 149.986 34.0475 149.838 34.6482H148.444C148.569 33.7075 148.96 33.0105 149.617 32.5572C150.275 32.0925 151.119 31.8602 152.15 31.8602C153.193 31.8602 154.066 32.1378 154.768 32.6932C155.482 33.2372 155.839 33.9342 155.839 34.7842ZM164.557 39.2722C164.557 37.9235 163.679 37.2492 161.922 37.2492H159.049L159.508 32.0472H165.441V33.2712H160.8L160.511 36.3482C161.1 36.2462 161.661 36.1952 162.194 36.1952C163.361 36.1952 164.279 36.4558 164.948 36.9772C165.617 37.4872 165.951 38.2635 165.951 39.3062C165.951 40.3488 165.6 41.2158 164.897 41.9072C164.194 42.5872 163.288 42.9272 162.177 42.9272C161.066 42.9272 160.16 42.6495 159.457 42.0942C158.754 41.5275 158.403 40.7512 158.403 39.7652H159.746C159.746 40.6945 160.222 41.3008 161.174 41.5842C161.469 41.6635 161.792 41.7032 162.143 41.7032C162.868 41.7032 163.452 41.4765 163.894 41.0232C164.336 40.5585 164.557 39.9748 164.557 39.2722ZM174.135 34.7502C173.943 33.6395 173.336 33.0842 172.316 33.0842C171.296 33.0842 170.509 33.5035 169.953 34.3422C169.409 35.1808 169.137 36.3255 169.137 37.7762C169.137 38.3768 169.166 38.8755 169.222 39.2722C169.29 38.2295 169.608 37.4758 170.174 37.0112C170.752 36.5352 171.489 36.2972 172.384 36.2972C173.28 36.2972 174.05 36.6145 174.696 37.2492C175.342 37.8725 175.665 38.6772 175.665 39.6632C175.665 40.6378 175.331 41.4312 174.662 42.0432C173.994 42.6438 173.115 42.9442 172.027 42.9442C170.758 42.9442 169.732 42.4342 168.95 41.4142C168.168 40.3942 167.777 39.0568 167.777 37.4022C167.777 35.7362 168.174 34.3988 168.967 33.3902C169.761 32.3702 170.843 31.8602 172.214 31.8602C173.166 31.8602 173.943 32.1265 174.543 32.6592C175.144 33.1918 175.49 33.8888 175.58 34.7502H174.135ZM172.027 37.4872C171.393 37.4872 170.86 37.6912 170.429 38.0992C170.01 38.4958 169.8 39.0058 169.8 39.6292C169.8 40.2525 170.01 40.7568 170.429 41.1422C170.849 41.5162 171.381 41.7032 172.027 41.7032C172.673 41.7032 173.206 41.5162 173.625 41.1422C174.056 40.7682 174.271 40.2525 174.271 39.5952C174.271 38.9378 174.056 38.4222 173.625 38.0482C173.206 37.6742 172.673 37.4872 172.027 37.4872ZM184.34 32.0472V33.2882L179.444 42.7402H177.642L182.776 33.3392H177.064V32.0472H184.34ZM188.058 37.3342C186.641 36.6882 185.933 35.8098 185.933 34.6992C185.933 33.8492 186.284 33.1635 186.987 32.6422C187.69 32.1208 188.619 31.8602 189.775 31.8602C190.942 31.8602 191.9 32.1378 192.648 32.6932C193.396 33.2485 193.77 33.9625 193.77 34.8352C193.77 35.4245 193.572 35.9515 193.175 36.4162C192.79 36.8808 192.217 37.1698 191.458 37.2832L191.747 37.3852C192.529 37.6798 193.13 38.0312 193.549 38.4392C193.968 38.8358 194.178 39.3798 194.178 40.0712C194.178 40.9325 193.793 41.6238 193.022 42.1452C192.263 42.6665 191.231 42.9272 189.928 42.9272C188.636 42.9272 187.588 42.6382 186.783 42.0602C185.978 41.4822 185.576 40.7568 185.576 39.8842C185.576 39.1815 185.803 38.6092 186.256 38.1672C186.721 37.7252 187.321 37.4475 188.058 37.3342ZM189.333 37.8272C188.619 37.9065 188.047 38.1332 187.616 38.5072C187.185 38.8698 186.97 39.3232 186.97 39.8672C186.97 40.4112 187.242 40.8532 187.786 41.1932C188.33 41.5332 189.038 41.7032 189.911 41.7032C190.795 41.7032 191.492 41.5558 192.002 41.2612C192.523 40.9665 192.784 40.6095 192.784 40.1902C192.784 39.7708 192.648 39.4365 192.376 39.1872C192.104 38.9265 191.73 38.7112 191.254 38.5412L189.333 37.8272ZM187.344 34.8692C187.344 35.1752 187.469 35.4415 187.718 35.6682C187.967 35.8835 188.324 36.0818 188.789 36.2632L190.03 36.7392C190.71 36.7165 191.271 36.5408 191.713 36.2122C192.155 35.8722 192.376 35.4358 192.376 34.9032C192.376 34.3592 192.144 33.9228 191.679 33.5942C191.214 33.2542 190.614 33.0842 189.877 33.0842C189.14 33.0842 188.534 33.2485 188.058 33.5772C187.582 33.8945 187.344 34.3252 187.344 34.8692ZM195.933 32.8802C196.692 32.7782 197.355 32.4892 197.922 32.0132H199.01V42.7402H197.684V33.6112C197.117 33.9738 196.534 34.1722 195.933 34.2062V32.8802Z" fill="#58595B"/>
<path d="M206.079 33.5004L210.101 42.2211L214.122 33.5004H217.805V48.1629H215.116V37.0248L210.959 46.5588H209.22L204.927 36.7085V48.1629H202.261V33.5004H206.079ZM220.042 33.5004H231.79V35.8048H227.249V48.1629H224.583V35.8048H220.042V33.5004Z" fill="#E8C81D"/>
<path d="M62.83 49.37H225.17" stroke="#414042" stroke-width="0.1" stroke-miterlimit="10"/>
<path d="M216.31 21.22C205.18 21.22 196.16 30.24 196.16 41.37C196.16 52.5 205.18 61.52 216.31 61.52C227.44 61.52 236.46 52.5 236.46 41.37C236.46 30.24 227.44 21.22 216.31 21.22ZM216.31 58.99C206.58 58.99 198.69 51.1 198.69 41.37C198.69 31.64 206.58 23.75 216.31 23.75C226.04 23.75 233.93 31.64 233.93 41.37C233.93 51.1 226.04 58.99 216.31 58.99Z" fill="#334143"/>
<path opacity="0.54" d="M216.33 23.61C206.56 23.61 198.64 31.53 198.64 41.3C198.64 51.07 206.56 58.99 216.33 58.99C226.1 58.99 234.01 51.07 234.01 41.3C234.02 31.53 226.1 23.61 216.33 23.61ZM216.37 58.68C206.77 58.68 198.99 50.9 198.99 41.3C198.99 31.7 206.77 23.92 216.37 23.92C225.97 23.92 233.75 31.7 233.75 41.3C233.75 50.9 225.97 58.68 216.37 58.68Z" fill="#FDF6E1" stroke="#FDF6E1" stroke-width="10" stroke-miterlimit="10"/>
<mask id="mask0" mask-type="alpha" maskUnits="userSpaceOnUse" x="198" y="23" width="37" height="36">
<path d="M216.33 23.61C206.56 23.61 198.64 31.53 198.64 41.3C198.64 51.07 206.56 58.99 216.33 58.99C226.1 58.99 234.01 51.07 234.01 41.3C234.02 31.53 226.1 23.61 216.33 23.61ZM216.37 58.68C206.77 58.68 198.99 50.9 198.99 41.3C198.99 31.7 206.77 23.92 216.37 23.92C225.97 23.92 233.75 31.7 233.75 41.3C233.75 50.9 225.97 58.68 216.37 58.68Z" fill="url(#paint0_linear)"/>
</mask>
<g mask="url(#mask0)">
<path d="M216.33 23.61C206.56 23.61 198.64 31.53 198.64 41.3C198.64 51.07 206.56 58.99 216.33 58.99C226.1 58.99 234.01 51.07 234.01 41.3C234.02 31.53 226.1 23.61 216.33 23.61ZM216.37 58.68C206.77 58.68 198.99 50.9 198.99 41.3C198.99 31.7 206.77 23.92 216.37 23.92C225.97 23.92 233.75 31.7 233.75 41.3C233.75 50.9 225.97 58.68 216.37 58.68Z" fill="url(#paint1_linear)"/>
<path opacity="0.34" d="M233.72 41.22C233.72 50.85 225.92 58.65 216.29 58.65C206.66 58.65 198.86 50.85 198.86 41.22C198.86 31.59 206.66 23.79 216.29 23.79C225.92 23.79 233.72 31.59 233.72 41.22Z" fill="url(#paint2_linear)"/>
<path opacity="0.33" d="M217.28 58.24C226.067 58.24 233.19 51.1168 233.19 42.33C233.19 33.5431 226.067 26.42 217.28 26.42C208.493 26.42 201.37 33.5431 201.37 42.33C201.37 51.1168 208.493 58.24 217.28 58.24Z" fill="url(#paint3_radial)"/>
</g>
<path opacity="0.27" d="M206.48 29.75C205.94 30.19 204.81 31.21 203.73 32.81L205.37 33.75C206.72 31.88 208.06 30.88 208.06 30.88L206.48 29.75Z" fill="url(#paint4_linear)"/>
<path opacity="0.27" d="M203.37 33.36C203.27 33.53 203.16 33.7 203.06 33.88C201.6 36.46 200.21 40.73 201.63 46.59L203.26 46.49C201.6 41.15 203.2 36.98 204.98 34.3L203.37 33.36Z" fill="url(#paint5_linear)"/>
<path d="M230.919 54.8002L226.901 57.99L239.983 74.4685L244.001 71.2787L230.919 54.8002Z" fill="#334143"/>
<path d="M237.698 61.5074L232.388 65.7232L251.769 90.1355L257.079 85.9197L237.698 61.5074Z" fill="#4D77B5"/>
<path d="M236.113 64.1363L234.092 65.7405L252.131 88.4612L254.151 86.8569L236.113 64.1363Z" fill="#5181B7"/>
<path opacity="0.2" d="M158.08 76.43H75.58C72.88 76.43 70.69 74.43 70.69 71.96V64.12C70.69 61.65 72.88 59.65 75.58 59.65H158.09C160.79 59.65 162.98 61.65 162.98 64.12V71.97C162.97 74.43 160.78 76.43 158.08 76.43Z" fill="#37599C"/>
<path d="M85.0213 65.9087C84.9164 65.3514 84.523 65.0728 83.8411 65.0728C83.5067 65.0728 83.2444 65.1416 83.0543 65.2793C82.8707 65.4104 82.7789 65.5711 82.7789 65.7612C82.7789 65.9513 82.8379 66.1021 82.9559 66.2136C83.0805 66.3185 83.2707 66.4169 83.5264 66.5087L84.9131 67.0496C85.3852 67.2332 85.7491 67.4659 86.0048 67.7479C86.2605 68.0232 86.3883 68.3707 86.3883 68.7904C86.3883 69.3673 86.172 69.8263 85.7392 70.1672C85.3065 70.5016 84.6902 70.6688 83.8903 70.6688C83.1822 70.6688 82.6084 70.4951 82.1692 70.1476C81.6774 69.7673 81.4184 69.2296 81.3922 68.5346H82.5429C82.5429 69.0592 82.815 69.3903 83.3592 69.528C83.5231 69.5739 83.7395 69.5968 84.0083 69.5968C84.2771 69.5968 84.5263 69.5312 84.7557 69.4001C84.9852 69.2624 85.1 69.0821 85.1 68.8592C85.1 68.6297 85.0377 68.456 84.9131 68.3379C84.7885 68.2134 84.5853 68.0986 84.3033 67.9937L83.0346 67.4921C82.5429 67.302 82.1659 67.0791 81.9036 66.8234C81.6413 66.5677 81.5102 66.2136 81.5102 65.7612C81.5102 65.2301 81.7167 64.8105 82.1298 64.5023C82.5494 64.1811 83.1166 64.0204 83.8313 64.0204C84.5525 64.0204 85.1065 64.1876 85.4934 64.522C85.8867 64.8498 86.113 65.3121 86.172 65.9087H85.0213ZM91.2733 66.3218C91.4372 66.5316 91.5585 66.7742 91.6372 67.0496C91.7224 67.325 91.765 67.5774 91.765 67.8069C91.765 68.0363 91.7519 68.2429 91.7257 68.4265H88.6375C88.6506 68.8133 88.7457 69.128 88.9227 69.3706C89.0998 69.6132 89.3686 69.7345 89.7292 69.7345C90.2078 69.7345 90.493 69.5247 90.5848 69.1051H91.7552C91.6765 69.5837 91.4569 69.9607 91.0962 70.2361C90.7225 70.5246 90.2668 70.6688 89.7292 70.6688C89.0998 70.6688 88.572 70.4393 88.1458 69.9804C87.7065 69.5017 87.4868 68.8887 87.4868 68.1412C87.4868 67.3741 87.7065 66.7578 88.1458 66.2923C88.5654 65.8464 89.0932 65.6235 89.7292 65.6235C90.3914 65.6235 90.9061 65.8563 91.2733 66.3218ZM89.739 66.548C89.4112 66.548 89.1555 66.6562 88.9719 66.8725C88.7883 67.0824 88.6801 67.3545 88.6474 67.6888H90.6832C90.6832 67.1709 90.5193 66.8234 90.1914 66.6463C90.0669 66.5808 89.9161 66.548 89.739 66.548ZM94.728 67.738C95.1083 67.738 95.5476 67.8003 96.0459 67.9249V67.4528C96.0459 67.1184 95.977 66.8725 95.8394 66.7152C95.7082 66.5513 95.4886 66.4693 95.1804 66.4693C94.8788 66.4693 94.6461 66.5316 94.4821 66.6562C94.3182 66.7742 94.2363 66.9447 94.2363 67.1676H92.9676C92.9676 66.6234 93.1577 66.23 93.538 65.9874C93.9248 65.7448 94.4625 65.6235 95.1509 65.6235C96.1344 65.6235 96.7704 65.9677 97.0589 66.6562C97.1572 66.8922 97.2064 67.1709 97.2064 67.4921V70.5311H96.1934L96.1049 69.8919C95.7967 70.4098 95.3247 70.6688 94.6887 70.6688C94.0724 70.6688 93.5937 70.518 93.2528 70.2164C92.9381 69.9279 92.7807 69.564 92.7807 69.1247C92.7807 68.6789 92.9545 68.3379 93.302 68.1019C93.6495 67.8593 94.1248 67.738 94.728 67.738ZM96.0459 68.6625C95.6591 68.5576 95.2984 68.5051 94.9641 68.5051C94.3346 68.5051 94.0199 68.7149 94.0199 69.1346C94.0199 69.3116 94.092 69.4657 94.2363 69.5968C94.3805 69.7214 94.61 69.7837 94.9247 69.7837C95.246 69.7837 95.5083 69.6788 95.7115 69.469C95.9213 69.2526 96.0328 68.9838 96.0459 68.6625ZM100.058 66.6955C100.347 66.0071 100.78 65.6629 101.357 65.6629C101.468 65.6629 101.609 65.6858 101.779 65.7317L101.76 66.8922C101.576 66.8529 101.396 66.8332 101.219 66.8332C100.445 66.8332 100.058 67.3676 100.058 68.4363V70.5311H98.8979V65.7415H100.058V66.6955ZM104.809 65.6235C105.11 65.6235 105.379 65.676 105.615 65.7809C105.858 65.8792 106.061 66.0104 106.225 66.1743C106.553 66.489 106.746 66.8857 106.805 67.3643L105.635 67.3938C105.582 67.184 105.484 67.0102 105.34 66.8725C105.202 66.7349 105.042 66.666 104.858 66.666C104.674 66.666 104.517 66.6955 104.386 66.7545C104.255 66.807 104.14 66.8922 104.042 67.0102C103.819 67.2856 103.707 67.6659 103.707 68.1511C103.707 68.6363 103.812 69.0034 104.022 69.2526C104.232 69.4952 104.484 69.6165 104.779 69.6165C105.081 69.6165 105.297 69.5476 105.428 69.4099C105.566 69.2657 105.635 69.0723 105.635 68.8297H106.805C106.805 69.3542 106.632 69.7902 106.284 70.1377C105.93 70.4918 105.435 70.6688 104.799 70.6688C104.17 70.6688 103.642 70.4393 103.216 69.9804C102.763 69.4886 102.537 68.8756 102.537 68.1412C102.537 67.3676 102.763 66.748 103.216 66.2825C103.642 65.8432 104.173 65.6235 104.809 65.6235ZM109.365 66.5283C109.693 65.9251 110.171 65.6235 110.801 65.6235C111.43 65.6235 111.893 65.8169 112.188 66.2038C112.489 66.5906 112.64 67.102 112.64 67.738V70.5311H111.48V67.738C111.48 67.384 111.394 67.1184 111.224 66.9414C111.053 66.7578 110.814 66.666 110.506 66.666C110.198 66.666 109.932 66.8037 109.709 67.0791C109.493 67.3545 109.378 67.7675 109.365 68.3183V70.5311H108.205V63.7844H109.365V66.5283ZM118.069 64.1483L120.881 68.6723V64.1483H122.042V70.5311H120.862L117.961 65.8497V70.5311H116.8V64.1483H118.069ZM127.046 69.6657C126.744 70.3016 126.259 70.6196 125.59 70.6196C124.745 70.6196 124.187 70.2885 123.918 69.6263C123.82 69.3968 123.771 69.1182 123.771 68.7904V65.7415H124.931V68.6723C124.931 68.987 125.007 69.2231 125.158 69.3804C125.308 69.5312 125.492 69.6066 125.708 69.6066C125.931 69.6066 126.118 69.5771 126.269 69.5181C126.42 69.4526 126.551 69.3575 126.662 69.2329C126.905 68.951 127.033 68.574 127.046 68.1019V65.7415H128.206V70.5311H127.046V69.6657ZM134.284 66.6562C134.592 65.9677 135.133 65.6235 135.907 65.6235C136.477 65.6235 136.92 65.8169 137.234 66.2038C137.536 66.5709 137.687 67.0824 137.687 67.738V70.5311H136.517V67.738C136.517 67.384 136.431 67.1184 136.261 66.9414C136.09 66.7578 135.851 66.666 135.543 66.666C135.235 66.666 134.982 66.8004 134.786 67.0692C134.589 67.3381 134.484 67.7446 134.471 68.2888V70.5311H133.31V67.738C133.31 67.384 133.225 67.1184 133.055 66.9414C132.884 66.7578 132.645 66.666 132.337 66.666C132.029 66.666 131.763 66.8037 131.54 67.0791C131.324 67.3545 131.209 67.7675 131.196 68.3183V70.5311H130.035V65.7514H131.048L131.176 66.5775C131.491 65.9415 131.996 65.6235 132.691 65.6235C133.091 65.6235 133.422 65.7153 133.684 65.8989C133.953 66.0825 134.153 66.3349 134.284 66.6562ZM143.383 66.312C143.79 66.7709 143.993 67.3741 143.993 68.1216C143.993 68.869 143.78 69.4854 143.354 69.9705C142.941 70.4361 142.426 70.6688 141.81 70.6688C141.515 70.6688 141.243 70.5901 140.994 70.4328C140.751 70.2754 140.558 70.0328 140.413 69.705L140.128 70.5311H139.371V63.7844H140.531V66.3513C140.833 65.8661 141.282 65.6235 141.879 65.6235C142.482 65.6235 142.983 65.853 143.383 66.312ZM140.531 67.8462V68.4756C140.544 68.81 140.666 69.0854 140.895 69.3018C141.112 69.5116 141.374 69.6165 141.682 69.6165C141.997 69.6165 142.266 69.4821 142.488 69.2133C142.711 68.9379 142.823 68.5773 142.823 68.1314C142.823 67.6856 142.711 67.3315 142.488 67.0692C142.272 66.8004 142 66.666 141.672 66.666C141.344 66.666 141.072 66.7742 140.856 66.9906C140.639 67.2069 140.531 67.4921 140.531 67.8462ZM148.746 66.3218C148.91 66.5316 149.031 66.7742 149.11 67.0496C149.195 67.325 149.238 67.5774 149.238 67.8069C149.238 68.0363 149.225 68.2429 149.198 68.4265H146.11C146.123 68.8133 146.218 69.128 146.395 69.3706C146.572 69.6132 146.841 69.7345 147.202 69.7345C147.681 69.7345 147.966 69.5247 148.058 69.1051H149.228C149.149 69.5837 148.93 69.9607 148.569 70.2361C148.195 70.5246 147.74 70.6688 147.202 70.6688C146.572 70.6688 146.045 70.4393 145.618 69.9804C145.179 69.5017 144.96 68.8887 144.96 68.1412C144.96 67.3741 145.179 66.7578 145.618 66.2923C146.038 65.8464 146.566 65.6235 147.202 65.6235C147.864 65.6235 148.379 65.8563 148.746 66.3218ZM147.212 66.548C146.884 66.548 146.628 66.6562 146.445 66.8725C146.261 67.0824 146.153 67.3545 146.12 67.6888H148.156C148.156 67.1709 147.992 66.8234 147.664 66.6463C147.54 66.5808 147.389 66.548 147.212 66.548ZM151.788 66.6955C152.076 66.0071 152.509 65.6629 153.086 65.6629C153.197 65.6629 153.338 65.6858 153.509 65.7317L153.489 66.8922C153.305 66.8529 153.125 66.8332 152.948 66.8332C152.174 66.8332 151.788 67.3676 151.788 68.4363V70.5311H150.627V65.7415H151.788V66.6955Z" fill="#37599C"/>
</g>
<defs>
<linearGradient id="paint0_linear" x1="205.12" y1="54.5792" x2="235.925" y2="18.0833" gradientUnits="userSpaceOnUse">
<stop stop-color="white"/>
<stop offset="1"/>
</linearGradient>
<linearGradient id="paint1_linear" x1="205.12" y1="54.5792" x2="235.925" y2="18.0833" gradientUnits="userSpaceOnUse">
<stop stop-color="white"/>
<stop offset="1" stop-color="white"/>
</linearGradient>
<linearGradient id="paint2_linear" x1="218.582" y1="43.5336" x2="198.412" y2="23.1463" gradientUnits="userSpaceOnUse">
<stop offset="0.005618" stop-color="white"/>
<stop offset="0.1437" stop-color="#EFE9F3"/>
<stop offset="0.3587" stop-color="#DACCE4"/>
<stop offset="0.5742" stop-color="#CBB8DA"/>
<stop offset="0.7884" stop-color="#C2ACD3"/>
<stop offset="1" stop-color="#BFA8D1"/>
</linearGradient>
<radialGradient id="paint3_radial" cx="0" cy="0" r="1" gradientUnits="userSpaceOnUse" gradientTransform="translate(221.193 28.9494) scale(31.8715)">
<stop offset="0.005618" stop-color="white"/>
<stop offset="0.1012" stop-color="#FBF7F5"/>
<stop offset="0.2649" stop-color="#EFE2D9"/>
<stop offset="0.4767" stop-color="#DCC0AD"/>
<stop offset="0.7285" stop-color="#C1906F"/>
<stop offset="1" stop-color="#A15725"/>
</radialGradient>
<linearGradient id="paint4_linear" x1="206.266" y1="30.148" x2="205.635" y2="32.997" gradientUnits="userSpaceOnUse">
<stop offset="0.0242" stop-color="white"/>
<stop offset="1" stop-color="white"/>
</linearGradient>
<linearGradient id="paint5_linear" x1="203.99" y1="34.9213" x2="201.971" y2="44.0404" gradientUnits="userSpaceOnUse">
<stop offset="0.0242" stop-color="white"/>
<stop offset="1" stop-color="white"/>
</linearGradient>
<clipPath id="clip0">
<rect width="406.9" height="91.39" fill="white"/>
</clipPath>
</defs>
</svg>
