<svg width="16" height="16" viewBox="0 0 16 16" fill="none" xmlns="http://www.w3.org/2000/svg">
<path d="M8.56563 1.83433C8.41561 1.68435 8.21216 1.6001 8.00003 1.6001C7.7879 1.6001 7.58446 1.68435 7.43443 1.83433L1.83443 7.43433C1.68871 7.58521 1.60807 7.78729 1.60989 7.99705C1.61172 8.2068 1.69585 8.40745 1.84418 8.55578C1.9925 8.70411 2.19315 8.78824 2.40291 8.79007C2.61267 8.79189 2.81475 8.71125 2.96563 8.56553L3.20003 8.33113V13.5999C3.20003 13.8121 3.28432 14.0156 3.43435 14.1656C3.58438 14.3156 3.78786 14.3999 4.00003 14.3999H5.60003C5.81221 14.3999 6.01569 14.3156 6.16572 14.1656C6.31575 14.0156 6.40003 13.8121 6.40003 13.5999V11.9999C6.40003 11.7878 6.48432 11.5843 6.63435 11.4342C6.78438 11.2842 6.98786 11.1999 7.20003 11.1999H8.80003C9.01221 11.1999 9.21569 11.2842 9.36572 11.4342C9.51575 11.5843 9.60003 11.7878 9.60003 11.9999V13.5999C9.60003 13.8121 9.68432 14.0156 9.83435 14.1656C9.98438 14.3156 10.1879 14.3999 10.4 14.3999H12C12.2122 14.3999 12.4157 14.3156 12.5657 14.1656C12.7157 14.0156 12.8 13.8121 12.8 13.5999V8.33113L13.0344 8.56553C13.1853 8.71125 13.3874 8.79189 13.5972 8.79007C13.8069 8.78824 14.0076 8.70411 14.1559 8.55578C14.3042 8.40745 14.3884 8.2068 14.3902 7.99705C14.392 7.78729 14.3114 7.58521 14.1656 7.43433L8.56563 1.83433Z" fill="black"/>
</svg>
