<svg width="407" height="92" viewBox="0 0 407 92" fill="none" xmlns="http://www.w3.org/2000/svg">
<g clip-path="url(#clip0)">
<path d="M407.27 91.28H0.360001V4.89001C0.360001 2.13001 2.6 -0.109985 5.36 -0.109985H402.26C405.02 -0.109985 407.26 2.13001 407.26 4.89001V91.28H407.27Z" fill="#37599C"/>
<path d="M407.12 91.2199H28.51V20.3199C28.51 17.8999 30.47 15.9399 32.89 15.9399H407.13V91.2199H407.12Z" fill="white"/>
<path d="M166.61 78.44H62.5C60.21 78.44 58.35 76.58 58.35 74.29V30.54C58.35 28.25 60.21 26.39 62.5 26.39H166.61C168.9 26.39 170.76 28.25 170.76 30.54V74.29C170.76 76.58 168.9 78.44 166.61 78.44Z" fill="white" stroke="#414042" stroke-width="0.1" stroke-miterlimit="10"/>
<path d="M289.08 78.44H184.97C182.68 78.44 180.82 76.58 180.82 74.29V30.54C180.82 28.25 182.68 26.39 184.97 26.39H289.08C291.37 26.39 293.23 28.25 293.23 30.54V74.29C293.23 76.58 291.37 78.44 289.08 78.44Z" fill="white" stroke="#414042" stroke-width="0.1" stroke-miterlimit="10"/>
<path opacity="0.2" d="M381.44 59.0799H307.67C305.26 59.0799 303.3 57.2899 303.3 55.0799V48.0699C303.3 45.8599 305.25 44.0699 307.67 44.0699H381.44C383.85 44.0699 385.81 45.8599 385.81 48.0699V55.0899C385.8 57.2999 383.85 59.0799 381.44 59.0799Z" fill="#37599C"/>
<path d="M319.687 49.6292C319.593 49.1309 319.242 48.8818 318.632 48.8818C318.333 48.8818 318.098 48.9434 317.928 49.0665C317.764 49.1837 317.682 49.3273 317.682 49.4973C317.682 49.6673 317.735 49.8022 317.84 49.9018C317.952 49.9956 318.122 50.0836 318.35 50.1656L319.59 50.6493C320.012 50.8134 320.338 51.0215 320.566 51.2736C320.795 51.5198 320.909 51.8305 320.909 52.2057C320.909 52.7215 320.716 53.1319 320.329 53.4367C319.942 53.7357 319.391 53.8852 318.676 53.8852C318.043 53.8852 317.53 53.7298 317.137 53.4191C316.697 53.0791 316.466 52.5984 316.442 51.977H317.471C317.471 52.446 317.714 52.7421 318.201 52.8652C318.348 52.9062 318.541 52.9267 318.781 52.9267C319.022 52.9267 319.244 52.8681 319.45 52.7509C319.655 52.6277 319.757 52.4665 319.757 52.2672C319.757 52.062 319.702 51.9067 319.59 51.8012C319.479 51.6898 319.297 51.5872 319.045 51.4934L317.911 51.045C317.471 50.875 317.134 50.6756 316.9 50.447C316.665 50.2184 316.548 49.9018 316.548 49.4973C316.548 49.0225 316.733 48.6473 317.102 48.3718C317.477 48.0845 317.984 47.9409 318.623 47.9409C319.268 47.9409 319.763 48.0904 320.109 48.3894C320.461 48.6825 320.663 49.0958 320.716 49.6292H319.687ZM325.277 49.9986C325.423 50.1861 325.532 50.403 325.602 50.6493C325.679 50.8955 325.717 51.1212 325.717 51.3263C325.717 51.5315 325.705 51.7162 325.681 51.8803H322.92C322.932 52.2262 323.017 52.5076 323.175 52.7245C323.334 52.9414 323.574 53.0498 323.896 53.0498C324.324 53.0498 324.579 52.8622 324.661 52.4871H325.708C325.637 52.915 325.441 53.2521 325.119 53.4983C324.785 53.7562 324.377 53.8852 323.896 53.8852C323.334 53.8852 322.862 53.68 322.481 53.2697C322.088 52.8417 321.892 52.2936 321.892 51.6253C321.892 50.9394 322.088 50.3884 322.481 49.9722C322.856 49.5735 323.328 49.3742 323.896 49.3742C324.488 49.3742 324.949 49.5823 325.277 49.9986ZM323.905 50.2008C323.612 50.2008 323.383 50.2975 323.219 50.491C323.055 50.6786 322.958 50.9218 322.929 51.2208H324.749C324.749 50.7577 324.603 50.447 324.31 50.2887C324.198 50.2301 324.063 50.2008 323.905 50.2008ZM328.366 51.2648C328.706 51.2648 329.099 51.3205 329.544 51.4319V51.0098C329.544 50.7108 329.483 50.491 329.359 50.3503C329.242 50.2037 329.046 50.1305 328.77 50.1305C328.501 50.1305 328.293 50.1861 328.146 50.2975C327.999 50.403 327.926 50.5555 327.926 50.7548H326.792C326.792 50.2682 326.962 49.9165 327.302 49.6996C327.648 49.4827 328.128 49.3742 328.744 49.3742C329.623 49.3742 330.192 49.682 330.45 50.2975C330.538 50.5086 330.582 50.7577 330.582 51.045V53.7621H329.676L329.597 53.1905C329.321 53.6536 328.899 53.8852 328.331 53.8852C327.78 53.8852 327.352 53.7504 327.047 53.4807C326.765 53.2228 326.625 52.8974 326.625 52.5046C326.625 52.106 326.78 51.8012 327.091 51.5901C327.401 51.3732 327.826 51.2648 328.366 51.2648ZM329.544 52.0914C329.198 51.9976 328.876 51.9507 328.577 51.9507C328.014 51.9507 327.733 52.1383 327.733 52.5134C327.733 52.6717 327.797 52.8095 327.926 52.9267C328.055 53.0381 328.26 53.0938 328.542 53.0938C328.829 53.0938 329.063 53 329.245 52.8124C329.433 52.619 329.532 52.3786 329.544 52.0914ZM333.132 50.3327C333.39 49.7172 333.776 49.4094 334.292 49.4094C334.392 49.4094 334.518 49.4299 334.67 49.471L334.653 50.5086C334.489 50.4734 334.328 50.4558 334.169 50.4558C333.477 50.4558 333.132 50.9336 333.132 51.8891V53.7621H332.094V49.4797H333.132V50.3327ZM337.379 49.3742C337.649 49.3742 337.889 49.4211 338.1 49.5149C338.317 49.6029 338.499 49.7201 338.645 49.8667C338.938 50.148 339.111 50.5027 339.164 50.9306L338.118 50.957C338.071 50.7694 337.983 50.6141 337.854 50.491C337.731 50.3679 337.587 50.3063 337.423 50.3063C337.259 50.3063 337.118 50.3327 337.001 50.3855C336.884 50.4324 336.781 50.5086 336.693 50.6141C336.494 50.8603 336.394 51.2003 336.394 51.6341C336.394 52.0679 336.488 52.3962 336.675 52.619C336.863 52.8359 337.089 52.9443 337.353 52.9443C337.622 52.9443 337.816 52.8828 337.933 52.7596C338.056 52.6307 338.118 52.4577 338.118 52.2408H339.164C339.164 52.7098 339.009 53.0997 338.698 53.4104C338.381 53.7269 337.939 53.8852 337.37 53.8852C336.807 53.8852 336.335 53.68 335.954 53.2697C335.55 52.83 335.348 52.2819 335.348 51.6253C335.348 50.9336 335.55 50.3796 335.954 49.9634C336.335 49.5706 336.81 49.3742 337.379 49.3742ZM341.453 50.1832C341.746 49.6439 342.174 49.3742 342.736 49.3742C343.299 49.3742 343.713 49.5472 343.976 49.893C344.246 50.2389 344.381 50.6962 344.381 51.2648V53.7621H343.343V51.2648C343.343 50.9482 343.267 50.7108 343.115 50.5525C342.962 50.3884 342.748 50.3063 342.473 50.3063C342.197 50.3063 341.96 50.4294 341.76 50.6756C341.567 50.9218 341.464 51.2912 341.453 51.7836V53.7621H340.415V47.7299H341.453V50.1832ZM349.437 48.0552H350.738L352.611 53.7621H351.512L351.116 52.531H348.997L348.593 53.7621H347.493L349.437 48.0552ZM349.261 51.7484H350.861L350.07 49.2951L349.261 51.7484ZM353.991 52.0122C353.646 51.7191 353.473 51.3527 353.473 50.9131C353.473 50.4499 353.654 50.0748 354.018 49.7875C354.37 49.512 354.771 49.3742 355.223 49.3742C355.68 49.3742 356.061 49.4592 356.366 49.6292C356.401 49.2951 356.544 49.0254 356.797 48.8203C357.043 48.6151 357.333 48.5125 357.667 48.5125L357.614 49.5061C357.11 49.5061 356.849 49.6732 356.832 50.0073C357.049 50.277 357.157 50.5525 357.157 50.8339C357.157 51.1153 357.107 51.3527 357.008 51.5462C356.908 51.7338 356.773 51.892 356.603 52.021C356.251 52.3024 355.823 52.4431 355.319 52.4431C355.032 52.4431 354.771 52.3991 354.537 52.3112C354.302 52.3815 354.185 52.5222 354.185 52.7333C354.185 52.9971 354.408 53.129 354.853 53.129H356.287C357.26 53.129 357.746 53.469 357.746 54.149C357.746 54.3776 357.688 54.6004 357.57 54.8173C357.459 55.04 357.295 55.2364 357.078 55.4064C356.597 55.7816 355.993 55.9692 355.266 55.9692C354.563 55.9692 353.991 55.8256 353.552 55.5383C353.141 55.2628 352.936 54.9257 352.936 54.5271C352.936 54.2633 353.015 54.0523 353.174 53.894C353.338 53.7416 353.552 53.6448 353.816 53.6038C353.47 53.3928 353.297 53.1319 353.297 52.8212C353.297 52.616 353.361 52.446 353.49 52.3112C353.619 52.1705 353.786 52.0708 353.991 52.0122ZM354.783 53.8588C354.232 53.8823 353.956 54.0904 353.956 54.4831C353.956 54.6825 354.071 54.8407 354.299 54.958C354.534 55.0811 354.809 55.1426 355.126 55.1426C355.442 55.1426 355.689 55.1163 355.864 55.0635C356.046 55.0107 356.199 54.9404 356.322 54.8525C356.585 54.6766 356.717 54.4655 356.717 54.2193C356.717 54.1138 356.679 54.0259 356.603 53.9555C356.533 53.8911 356.427 53.8588 356.287 53.8588H354.783ZM356.128 50.9043C356.128 50.6639 356.061 50.4705 355.926 50.3239C355.797 50.1715 355.598 50.0953 355.328 50.0953C355.058 50.0953 354.853 50.1715 354.713 50.3239C354.572 50.4705 354.501 50.6639 354.501 50.9043C354.501 51.1388 354.572 51.3322 354.713 51.4846C354.853 51.637 355.058 51.7132 355.328 51.7132C355.598 51.7132 355.797 51.637 355.926 51.4846C356.061 51.3322 356.128 51.1388 356.128 50.9043ZM360.147 51.2648C360.487 51.2648 360.88 51.3205 361.325 51.4319V51.0098C361.325 50.7108 361.264 50.491 361.141 50.3503C361.023 50.2037 360.827 50.1305 360.552 50.1305C360.282 50.1305 360.074 50.1861 359.927 50.2975C359.781 50.403 359.707 50.5555 359.707 50.7548H358.573C358.573 50.2682 358.743 49.9165 359.083 49.6996C359.429 49.4827 359.91 49.3742 360.525 49.3742C361.404 49.3742 361.973 49.682 362.231 50.2975C362.319 50.5086 362.363 50.7577 362.363 51.045V53.7621H361.457L361.378 53.1905C361.103 53.6536 360.681 53.8852 360.112 53.8852C359.561 53.8852 359.133 53.7504 358.828 53.4807C358.547 53.2228 358.406 52.8974 358.406 52.5046C358.406 52.106 358.561 51.8012 358.872 51.5901C359.183 51.3732 359.608 51.2648 360.147 51.2648ZM361.325 52.0914C360.979 51.9976 360.657 51.9507 360.358 51.9507C359.795 51.9507 359.514 52.1383 359.514 52.5134C359.514 52.6717 359.578 52.8095 359.707 52.9267C359.836 53.0381 360.042 53.0938 360.323 53.0938C360.61 53.0938 360.845 53 361.026 52.8124C361.214 52.619 361.314 52.3786 361.325 52.0914ZM363.963 49.4797H365.001V53.7621H363.963V49.4797ZM363.84 48.108C363.84 47.9204 363.896 47.7738 364.007 47.6683C364.119 47.5569 364.277 47.5013 364.482 47.5013C364.681 47.5013 364.837 47.5569 364.948 47.6683C365.065 47.7738 365.124 47.9204 365.124 48.108C365.124 48.2956 365.065 48.4451 364.948 48.5565C364.837 48.662 364.681 48.7147 364.482 48.7147C364.277 48.7147 364.119 48.662 364.007 48.5565C363.896 48.4451 363.84 48.2956 363.84 48.108ZM367.781 50.2272C368.062 49.6585 368.513 49.3742 369.135 49.3742C369.662 49.3742 370.058 49.5472 370.322 49.893C370.592 50.2389 370.726 50.6962 370.726 51.2648V53.7621H369.689V51.2648C369.689 50.9482 369.613 50.7108 369.46 50.5525C369.308 50.3884 369.094 50.3063 368.818 50.3063C368.543 50.3063 368.305 50.4294 368.106 50.6756C367.912 50.9218 367.81 51.2912 367.798 51.7836V53.7621H366.761V49.4885H367.666L367.781 50.2272Z" fill="#37599C"/>
<path d="M77.9153 38.055V40.1366H79.938V40.7945H77.9153V42.8761H77.1396V40.7945H75.1169V40.1366H77.1396V38.055H77.9153ZM81.5222 42.1593H85.1061V42.8761H80.7465V41.9629C80.7465 41.2363 81.0215 40.7028 81.5713 40.3625C81.7481 40.2512 81.9445 40.153 82.1605 40.0679L83.378 39.5769C84.0064 39.3282 84.3206 38.9191 84.3206 38.3496C84.3206 38.0354 84.2126 37.7801 83.9966 37.5837C83.7806 37.3808 83.4762 37.2793 83.0834 37.2793C82.6972 37.2793 82.3798 37.3611 82.131 37.5248C81.8888 37.6884 81.7481 37.9339 81.7088 38.2612H80.8546C80.8873 37.7244 81.1033 37.3121 81.5026 37.024C81.9019 36.736 82.4125 36.592 83.0343 36.592C83.6628 36.592 84.1733 36.7622 84.5661 37.1026C84.9589 37.443 85.1552 37.8652 85.1552 38.3692C85.1552 38.8667 85.0243 39.2627 84.7625 39.5573C84.5072 39.8519 84.1537 40.0875 83.702 40.2643L82.455 40.765C82.1408 40.896 81.9052 41.0465 81.7481 41.2167C81.5975 41.3804 81.5222 41.5964 81.5222 41.8648V42.1593ZM90.7724 38.2809C90.7724 38.9354 90.4124 39.3904 89.6923 39.6457C90.0851 39.757 90.4026 39.9402 90.6448 40.1955C90.887 40.4508 91.0081 40.7781 91.0081 41.1774C91.0081 41.7207 90.8019 42.1593 90.3895 42.4932C89.9771 42.8205 89.4338 42.9841 88.7595 42.9841C88.0853 42.9841 87.5093 42.8106 87.0314 42.4637C86.5601 42.1102 86.3244 41.616 86.3244 40.9811H87.1296C87.1427 41.4 87.2965 41.7207 87.5911 41.9433C87.8922 42.1659 88.2719 42.2771 88.7301 42.2771C89.1883 42.2771 89.5418 42.1691 89.7905 41.9531C90.0458 41.7306 90.1735 41.4589 90.1735 41.1382C90.1735 40.8109 90.0524 40.5457 89.8102 40.3428C89.568 40.1334 89.1752 40.0286 88.6319 40.0286H87.9249V39.41H88.4061C88.8774 39.41 89.2505 39.3184 89.5254 39.1351C89.8003 38.9453 89.9378 38.6932 89.9378 38.379C89.9378 38.0648 89.8265 37.8063 89.604 37.6033C89.3814 37.4004 89.0868 37.299 88.7203 37.299C88.3537 37.299 88.046 37.3644 87.7973 37.4953C87.5551 37.6197 87.3914 37.8554 87.3063 38.2023H86.5012C86.5732 37.659 86.799 37.2564 87.1787 36.9946C87.5584 36.7262 88.046 36.592 88.6417 36.592C89.2439 36.592 89.748 36.7524 90.1538 37.0731C90.5662 37.3873 90.7724 37.7899 90.7724 38.2809ZM95.8176 36.6116V40.7159H96.8878V41.3836H95.8176V42.8761H95.0615V41.3836H91.8704V40.7847L95.1008 36.6116H95.8176ZM92.7933 40.7847H95.0811V37.839L92.7933 40.7847ZM99.0734 39.7537C98.2552 39.3806 97.8461 38.8733 97.8461 38.2318C97.8461 37.7408 98.049 37.3448 98.4549 37.0437C98.8607 36.7426 99.3975 36.592 100.065 36.592C100.739 36.592 101.293 36.7524 101.725 37.0731C102.157 37.3939 102.373 37.8063 102.373 38.3103C102.373 38.6507 102.258 38.9551 102.029 39.2235C101.806 39.4919 101.476 39.6588 101.037 39.7242L101.204 39.7831C101.656 39.9533 102.003 40.1563 102.245 40.3919C102.487 40.621 102.608 40.9352 102.608 41.3345C102.608 41.832 102.386 42.2313 101.941 42.5324C101.502 42.8336 100.906 42.9841 100.154 42.9841C99.4073 42.9841 98.8018 42.8172 98.337 42.4833C97.8723 42.1495 97.6399 41.7306 97.6399 41.2265C97.6399 40.8207 97.7708 40.4901 98.0326 40.2348C98.301 39.9795 98.648 39.8191 99.0734 39.7537ZM99.8099 40.0384C99.3975 40.0843 99.0669 40.2152 98.8182 40.4312C98.5694 40.6407 98.445 40.9025 98.445 41.2167C98.445 41.5309 98.6021 41.7862 98.9163 41.9826C99.2305 42.179 99.6397 42.2771 100.144 42.2771C100.654 42.2771 101.057 42.192 101.351 42.0219C101.653 41.8517 101.803 41.6455 101.803 41.4033C101.803 41.1611 101.725 40.968 101.567 40.8239C101.41 40.6734 101.194 40.549 100.919 40.4508L99.8099 40.0384ZM98.6611 38.3299C98.6611 38.5067 98.7331 38.6605 98.8771 38.7914C99.0211 38.9158 99.2273 39.0304 99.4957 39.1351L100.212 39.41C100.605 39.3969 100.929 39.2955 101.185 39.1056C101.44 38.9093 101.567 38.6572 101.567 38.3496C101.567 38.0354 101.433 37.7834 101.165 37.5935C100.896 37.3972 100.55 37.299 100.124 37.299C99.6986 37.299 99.3484 37.3939 99.0734 37.5837C98.7985 37.767 98.6611 38.0157 98.6611 38.3299ZM106.067 36.592C106.813 36.592 107.402 36.8669 107.834 37.4168C108.266 37.9666 108.482 38.7587 108.482 39.793C108.482 40.8207 108.266 41.6095 107.834 42.1593C107.402 42.7092 106.813 42.9841 106.067 42.9841C105.321 42.9841 104.728 42.7125 104.29 42.1691C103.858 41.6258 103.642 40.8338 103.642 39.793C103.642 38.7456 103.858 37.9503 104.29 37.407C104.728 36.8637 105.321 36.592 106.067 36.592ZM107.677 39.793C107.677 38.9878 107.54 38.3725 107.265 37.947C106.99 37.515 106.587 37.299 106.057 37.299C105.533 37.299 105.134 37.515 104.859 37.947C104.584 38.3725 104.447 38.9878 104.447 39.793C104.447 40.5916 104.584 41.2069 104.859 41.6389C105.134 42.0644 105.533 42.2771 106.057 42.2771C106.587 42.2771 106.99 42.0644 107.265 41.6389C107.54 41.2069 107.677 40.5916 107.677 39.793ZM109.452 37.1811C109.89 37.1222 110.273 36.9553 110.601 36.6804H111.229V42.8761H110.463V37.6033C110.136 37.8128 109.799 37.9274 109.452 37.947V37.1811ZM113.625 42.1593H117.209V42.8761H112.85V41.9629C112.85 41.2363 113.125 40.7028 113.675 40.3625C113.851 40.2512 114.048 40.153 114.264 40.0679L115.481 39.5769C116.11 39.3282 116.424 38.9191 116.424 38.3496C116.424 38.0354 116.316 37.7801 116.1 37.5837C115.884 37.3808 115.579 37.2793 115.187 37.2793C114.8 37.2793 114.483 37.3611 114.234 37.5248C113.992 37.6884 113.851 37.9339 113.812 38.2612H112.958C112.99 37.7244 113.206 37.3121 113.606 37.024C114.005 36.736 114.516 36.592 115.138 36.592C115.766 36.592 116.277 36.7622 116.669 37.1026C117.062 37.443 117.258 37.8652 117.258 38.3692C117.258 38.8667 117.128 39.2627 116.866 39.5573C116.61 39.8519 116.257 40.0875 115.805 40.2643L114.558 40.765C114.244 40.896 114.008 41.0465 113.851 41.2167C113.701 41.3804 113.625 41.5964 113.625 41.8648V42.1593ZM122.876 38.2809C122.876 38.9354 122.516 39.3904 121.796 39.6457C122.188 39.757 122.506 39.9402 122.748 40.1955C122.99 40.4508 123.111 40.7781 123.111 41.1774C123.111 41.7207 122.905 42.1593 122.493 42.4932C122.08 42.8205 121.537 42.9841 120.863 42.9841C120.189 42.9841 119.612 42.8106 119.135 42.4637C118.663 42.1102 118.428 41.616 118.428 40.9811H119.233C119.246 41.4 119.4 41.7207 119.694 41.9433C119.995 42.1659 120.375 42.2771 120.833 42.2771C121.291 42.2771 121.645 42.1691 121.894 41.9531C122.149 41.7306 122.277 41.4589 122.277 41.1382C122.277 40.8109 122.156 40.5457 121.913 40.3428C121.671 40.1334 121.278 40.0286 120.735 40.0286H120.028V39.41H120.509C120.981 39.41 121.354 39.3184 121.629 39.1351C121.904 38.9453 122.041 38.6932 122.041 38.379C122.041 38.0648 121.93 37.8063 121.707 37.6033C121.485 37.4004 121.19 37.299 120.823 37.299C120.457 37.299 120.149 37.3644 119.9 37.4953C119.658 37.6197 119.495 37.8554 119.41 38.2023H118.604C118.676 37.659 118.902 37.2564 119.282 36.9946C119.662 36.7262 120.149 36.592 120.745 36.592C121.347 36.592 121.851 36.7524 122.257 37.0731C122.669 37.3873 122.876 37.7899 122.876 38.2809ZM127.921 36.6116V40.7159H128.991V41.3836H127.921V42.8761H127.165V41.3836H123.974V40.7847L127.204 36.6116H127.921ZM124.897 40.7847H127.184V37.839L124.897 40.7847ZM133.396 40.873C133.396 40.0941 132.888 39.7046 131.874 39.7046H130.214L130.48 36.7H133.906V37.407H131.226L131.059 39.1842C131.399 39.1253 131.723 39.0958 132.031 39.0958C132.705 39.0958 133.235 39.2464 133.622 39.5475C134.008 39.8421 134.201 40.2905 134.201 40.8927C134.201 41.4949 133.998 41.9957 133.592 42.395C133.186 42.7877 132.663 42.9841 132.021 42.9841C131.38 42.9841 130.856 42.8237 130.45 42.503C130.044 42.1757 129.841 41.7273 129.841 41.1578H130.617C130.617 41.6946 130.892 42.0448 131.442 42.2084C131.612 42.2542 131.799 42.2771 132.001 42.2771C132.42 42.2771 132.757 42.1462 133.013 41.8844C133.268 41.616 133.396 41.2789 133.396 40.873ZM138.928 38.2612C138.817 37.6197 138.466 37.299 137.877 37.299C137.288 37.299 136.833 37.5412 136.513 38.0256C136.198 38.51 136.041 39.1711 136.041 40.009C136.041 40.3559 136.058 40.6439 136.09 40.873C136.13 40.2708 136.313 39.8355 136.64 39.5671C136.974 39.2922 137.4 39.1547 137.917 39.1547C138.434 39.1547 138.879 39.338 139.252 39.7046C139.625 40.0646 139.812 40.5294 139.812 41.0989C139.812 41.6618 139.619 42.12 139.232 42.4735C138.846 42.8205 138.339 42.9939 137.71 42.9939C136.977 42.9939 136.385 42.6994 135.933 42.1102C135.482 41.5211 135.256 40.7487 135.256 39.793C135.256 38.8307 135.485 38.0583 135.943 37.4757C136.401 36.8866 137.026 36.592 137.818 36.592C138.368 36.592 138.817 36.7458 139.164 37.0535C139.511 37.3611 139.71 37.7637 139.763 38.2612H138.928ZM137.71 39.8421C137.344 39.8421 137.036 39.9599 136.787 40.1955C136.545 40.4246 136.424 40.7192 136.424 41.0792C136.424 41.4393 136.545 41.7306 136.787 41.9531C137.03 42.1691 137.337 42.2771 137.71 42.2771C138.084 42.2771 138.391 42.1691 138.633 41.9531C138.882 41.7371 139.007 41.4393 139.007 41.0596C139.007 40.6799 138.882 40.3821 138.633 40.1661C138.391 39.9501 138.084 39.8421 137.71 39.8421ZM144.822 36.7V37.4168L141.994 42.8761H140.953L143.918 37.4462H140.619V36.7H144.822ZM146.969 39.7537C146.151 39.3806 145.742 38.8733 145.742 38.2318C145.742 37.7408 145.945 37.3448 146.351 37.0437C146.757 36.7426 147.293 36.592 147.961 36.592C148.635 36.592 149.188 36.7524 149.62 37.0731C150.052 37.3939 150.268 37.8063 150.268 38.3103C150.268 38.6507 150.154 38.9551 149.925 39.2235C149.702 39.4919 149.372 39.6588 148.933 39.7242L149.1 39.7831C149.552 39.9533 149.899 40.1563 150.141 40.3919C150.383 40.621 150.504 40.9352 150.504 41.3345C150.504 41.832 150.282 42.2313 149.836 42.5324C149.398 42.8336 148.802 42.9841 148.049 42.9841C147.303 42.9841 146.698 42.8172 146.233 42.4833C145.768 42.1495 145.536 41.7306 145.536 41.2265C145.536 40.8207 145.667 40.4901 145.929 40.2348C146.197 39.9795 146.544 39.8191 146.969 39.7537ZM147.706 40.0384C147.293 40.0843 146.963 40.2152 146.714 40.4312C146.465 40.6407 146.341 40.9025 146.341 41.2167C146.341 41.5309 146.498 41.7862 146.812 41.9826C147.126 42.179 147.536 42.2771 148.04 42.2771C148.55 42.2771 148.953 42.192 149.247 42.0219C149.548 41.8517 149.699 41.6455 149.699 41.4033C149.699 41.1611 149.62 40.968 149.463 40.8239C149.306 40.6734 149.09 40.549 148.815 40.4508L147.706 40.0384ZM146.557 38.3299C146.557 38.5067 146.629 38.6605 146.773 38.7914C146.917 38.9158 147.123 39.0304 147.392 39.1351L148.108 39.41C148.501 39.3969 148.825 39.2955 149.08 39.1056C149.336 38.9093 149.463 38.6572 149.463 38.3496C149.463 38.0354 149.329 37.7834 149.061 37.5935C148.792 37.3972 148.445 37.299 148.02 37.299C147.594 37.299 147.244 37.3939 146.969 37.5837C146.694 37.767 146.557 38.0157 146.557 38.3299Z" fill="#424143"/>
<path d="M99.689 66.941L100.697 69.706L101.712 66.941H102.335L101.005 70.287H100.396L99.066 66.941H99.689ZM104.323 69.916C104.785 69.916 105.048 69.713 105.114 69.307H105.681C105.629 69.643 105.48 69.9043 105.233 70.091C104.99 70.273 104.687 70.364 104.323 70.364C103.875 70.364 103.511 70.2053 103.231 69.888C102.951 69.566 102.811 69.139 102.811 68.607C102.811 68.075 102.951 67.6503 103.231 67.333C103.515 67.0157 103.891 66.857 104.358 66.857C104.829 66.857 105.179 67.039 105.408 67.403C105.641 67.767 105.723 68.2103 105.653 68.733H103.364C103.364 69.0783 103.448 69.363 103.616 69.587C103.784 69.8063 104.019 69.916 104.323 69.916ZM104.729 67.382C104.621 67.326 104.491 67.298 104.337 67.298C104.052 67.298 103.826 67.396 103.658 67.592C103.494 67.7833 103.399 68.0237 103.371 68.313H105.156C105.156 67.8463 105.013 67.536 104.729 67.382ZM108.135 67.41C107.608 67.41 107.335 67.8253 107.316 68.656V70.287H106.763V66.934H107.316V67.578C107.484 67.1113 107.78 66.878 108.205 66.878C108.34 66.878 108.469 66.899 108.59 66.941L108.562 67.48C108.422 67.4333 108.28 67.41 108.135 67.41ZM109.471 66.934H110.024V70.287H109.471V66.934ZM109.744 66.15C109.632 66.15 109.543 66.1197 109.478 66.059C109.417 65.9937 109.387 65.9097 109.387 65.807C109.387 65.6997 109.417 65.6157 109.478 65.555C109.543 65.4897 109.632 65.457 109.744 65.457C109.856 65.457 109.945 65.4897 110.01 65.555C110.08 65.6157 110.115 65.6997 110.115 65.807C110.115 65.9097 110.08 65.9937 110.01 66.059C109.945 66.1197 109.856 66.15 109.744 66.15ZM113.152 65.989C112.998 65.9283 112.877 65.898 112.788 65.898C112.625 65.898 112.496 65.9377 112.403 66.017C112.31 66.0963 112.263 66.2363 112.263 66.437V66.941H112.956V67.319H112.263V70.287H111.717V67.319H111.164V66.941H111.717V66.43C111.717 66.0987 111.808 65.856 111.99 65.702C112.172 65.5433 112.382 65.464 112.62 65.464C112.858 65.464 113.068 65.4943 113.25 65.555L113.152 65.989ZM113.962 66.934H114.515V70.287H113.962V66.934ZM114.235 66.15C114.123 66.15 114.035 66.1197 113.969 66.059C113.909 65.9937 113.878 65.9097 113.878 65.807C113.878 65.6997 113.909 65.6157 113.969 65.555C114.035 65.4897 114.123 65.457 114.235 65.457C114.347 65.457 114.436 65.4897 114.501 65.555C114.571 65.6157 114.606 65.6997 114.606 65.807C114.606 65.9097 114.571 65.9937 114.501 66.059C114.436 66.1197 114.347 66.15 114.235 66.15ZM117.174 69.916C117.636 69.916 117.9 69.713 117.965 69.307H118.532C118.481 69.643 118.331 69.9043 118.084 70.091C117.841 70.273 117.538 70.364 117.174 70.364C116.726 70.364 116.362 70.2053 116.082 69.888C115.802 69.566 115.662 69.139 115.662 68.607C115.662 68.075 115.802 67.6503 116.082 67.333C116.367 67.0157 116.742 66.857 117.209 66.857C117.68 66.857 118.03 67.039 118.259 67.403C118.492 67.767 118.574 68.2103 118.504 68.733H116.215C116.215 69.0783 116.299 69.363 116.467 69.587C116.635 69.8063 116.871 69.916 117.174 69.916ZM117.58 67.382C117.473 67.326 117.342 67.298 117.188 67.298C116.903 67.298 116.677 67.396 116.509 67.592C116.346 67.7833 116.25 68.0237 116.222 68.313H118.007C118.007 67.8463 117.865 67.536 117.58 67.382ZM121.813 67.438V65.52H122.359V70.287H121.911L121.841 69.727C121.733 69.937 121.591 70.0957 121.414 70.203C121.236 70.3103 121.043 70.364 120.833 70.364C120.408 70.364 120.051 70.2007 119.762 69.874C119.477 69.5473 119.335 69.1227 119.335 68.6C119.335 68.0727 119.475 67.6503 119.755 67.333C120.039 67.0157 120.396 66.857 120.826 66.857C121.26 66.857 121.589 67.0507 121.813 67.438ZM120.861 67.347C120.59 67.347 120.361 67.4613 120.175 67.69C119.993 67.9187 119.902 68.2243 119.902 68.607C119.902 68.9897 119.995 69.2977 120.182 69.531C120.368 69.7597 120.592 69.874 120.854 69.874C121.115 69.874 121.337 69.7877 121.519 69.615C121.705 69.4377 121.803 69.202 121.813 68.908V68.362C121.813 68.0493 121.722 67.802 121.54 67.62C121.358 67.438 121.131 67.347 120.861 67.347Z" fill="#52B68D"/>
<path opacity="0.4" d="M111.2 62.7099C114.862 62.7099 117.83 59.7416 117.83 56.08C117.83 52.4183 114.862 49.45 111.2 49.45C107.538 49.45 104.57 52.4183 104.57 56.08C104.57 59.7416 107.538 62.7099 111.2 62.7099Z" fill="#54B68D"/>
<path d="M111.2 60.7699C113.79 60.7699 115.89 58.6701 115.89 56.0799C115.89 53.4897 113.79 51.3899 111.2 51.3899C108.61 51.3899 106.51 53.4897 106.51 56.0799C106.51 58.6701 108.61 60.7699 111.2 60.7699Z" fill="#52B68D"/>
<path d="M109.33 56.6099L110.38 57.8199L113.52 55.3199" stroke="white" stroke-miterlimit="10" stroke-linecap="round" stroke-linejoin="round"/>
<path d="M202.208 38.055V40.1366H204.231V40.7945H202.208V42.8761H201.433V40.7945H199.41V40.1366H201.433V38.055H202.208ZM205.815 42.1593H209.399V42.8761H205.04V41.9629C205.04 41.2363 205.314 40.7028 205.864 40.3625C206.041 40.2512 206.237 40.153 206.453 40.0679L207.671 39.5769C208.299 39.3282 208.614 38.9191 208.614 38.3496C208.614 38.0354 208.506 37.7801 208.29 37.5837C208.074 37.3808 207.769 37.2793 207.376 37.2793C206.99 37.2793 206.673 37.3611 206.424 37.5248C206.182 37.6884 206.041 37.9339 206.002 38.2612H205.148C205.18 37.7244 205.396 37.3121 205.796 37.024C206.195 36.736 206.705 36.592 207.327 36.592C207.956 36.592 208.466 36.7622 208.859 37.1026C209.252 37.443 209.448 37.8652 209.448 38.3692C209.448 38.8667 209.317 39.2627 209.055 39.5573C208.8 39.8519 208.447 40.0875 207.995 40.2643L206.748 40.765C206.434 40.896 206.198 41.0465 206.041 41.2167C205.891 41.3804 205.815 41.5964 205.815 41.8648V42.1593ZM215.065 38.2809C215.065 38.9354 214.705 39.3904 213.985 39.6457C214.378 39.757 214.696 39.9402 214.938 40.1955C215.18 40.4508 215.301 40.7781 215.301 41.1774C215.301 41.7207 215.095 42.1593 214.682 42.4932C214.27 42.8205 213.727 42.9841 213.053 42.9841C212.378 42.9841 211.802 42.8106 211.324 42.4637C210.853 42.1102 210.617 41.616 210.617 40.9811H211.423C211.436 41.4 211.59 41.7207 211.884 41.9433C212.185 42.1659 212.565 42.2771 213.023 42.2771C213.481 42.2771 213.835 42.1691 214.084 41.9531C214.339 41.7306 214.466 41.4589 214.466 41.1382C214.466 40.8109 214.345 40.5457 214.103 40.3428C213.861 40.1334 213.468 40.0286 212.925 40.0286H212.218V39.41H212.699C213.17 39.41 213.543 39.3184 213.818 39.1351C214.093 38.9453 214.231 38.6932 214.231 38.379C214.231 38.0648 214.12 37.8063 213.897 37.6033C213.674 37.4004 213.38 37.299 213.013 37.299C212.647 37.299 212.339 37.3644 212.09 37.4953C211.848 37.6197 211.684 37.8554 211.599 38.2023H210.794C210.866 37.659 211.092 37.2564 211.472 36.9946C211.851 36.7262 212.339 36.592 212.935 36.592C213.537 36.592 214.041 36.7524 214.447 37.0731C214.859 37.3873 215.065 37.7899 215.065 38.2809ZM220.111 36.6116V40.7159H221.181V41.3836H220.111V42.8761H219.355V41.3836H216.163V40.7847L219.394 36.6116H220.111ZM217.086 40.7847H219.374V37.839L217.086 40.7847ZM223.366 39.7537C222.548 39.3806 222.139 38.8733 222.139 38.2318C222.139 37.7408 222.342 37.3448 222.748 37.0437C223.154 36.7426 223.69 36.592 224.358 36.592C225.032 36.592 225.586 36.7524 226.018 37.0731C226.45 37.3939 226.666 37.8063 226.666 38.3103C226.666 38.6507 226.551 38.9551 226.322 39.2235C226.099 39.4919 225.769 39.6588 225.33 39.7242L225.497 39.7831C225.949 39.9533 226.296 40.1563 226.538 40.3919C226.78 40.621 226.901 40.9352 226.901 41.3345C226.901 41.832 226.679 42.2313 226.234 42.5324C225.795 42.8336 225.199 42.9841 224.447 42.9841C223.7 42.9841 223.095 42.8172 222.63 42.4833C222.165 42.1495 221.933 41.7306 221.933 41.2265C221.933 40.8207 222.064 40.4901 222.326 40.2348C222.594 39.9795 222.941 39.8191 223.366 39.7537ZM224.103 40.0384C223.69 40.0843 223.36 40.2152 223.111 40.4312C222.862 40.6407 222.738 40.9025 222.738 41.2167C222.738 41.5309 222.895 41.7862 223.209 41.9826C223.524 42.179 223.933 42.2771 224.437 42.2771C224.947 42.2771 225.35 42.192 225.644 42.0219C225.946 41.8517 226.096 41.6455 226.096 41.4033C226.096 41.1611 226.018 40.968 225.86 40.8239C225.703 40.6734 225.487 40.549 225.212 40.4508L224.103 40.0384ZM222.954 38.3299C222.954 38.5067 223.026 38.6605 223.17 38.7914C223.314 38.9158 223.52 39.0304 223.789 39.1351L224.505 39.41C224.898 39.3969 225.222 39.2955 225.478 39.1056C225.733 38.9093 225.86 38.6572 225.86 38.3496C225.86 38.0354 225.726 37.7834 225.458 37.5935C225.189 37.3972 224.843 37.299 224.417 37.299C223.992 37.299 223.641 37.3939 223.366 37.5837C223.092 37.767 222.954 38.0157 222.954 38.3299ZM230.36 36.592C231.106 36.592 231.695 36.8669 232.127 37.4168C232.559 37.9666 232.775 38.7587 232.775 39.793C232.775 40.8207 232.559 41.6095 232.127 42.1593C231.695 42.7092 231.106 42.9841 230.36 42.9841C229.614 42.9841 229.021 42.7125 228.583 42.1691C228.151 41.6258 227.935 40.8338 227.935 39.793C227.935 38.7456 228.151 37.9503 228.583 37.407C229.021 36.8637 229.614 36.592 230.36 36.592ZM231.97 39.793C231.97 38.9878 231.833 38.3725 231.558 37.947C231.283 37.515 230.88 37.299 230.35 37.299C229.826 37.299 229.427 37.515 229.152 37.947C228.877 38.3725 228.74 38.9878 228.74 39.793C228.74 40.5916 228.877 41.2069 229.152 41.6389C229.427 42.0644 229.826 42.2771 230.35 42.2771C230.88 42.2771 231.283 42.0644 231.558 41.6389C231.833 41.2069 231.97 40.5916 231.97 39.793ZM233.745 37.1811C234.183 37.1222 234.566 36.9553 234.894 36.6804H235.522V42.8761H234.756V37.6033C234.429 37.8128 234.092 37.9274 233.745 37.947V37.1811ZM237.918 42.1593H241.502V42.8761H237.143V41.9629C237.143 41.2363 237.418 40.7028 237.968 40.3625C238.144 40.2512 238.341 40.153 238.557 40.0679L239.774 39.5769C240.403 39.3282 240.717 38.9191 240.717 38.3496C240.717 38.0354 240.609 37.7801 240.393 37.5837C240.177 37.3808 239.872 37.2793 239.48 37.2793C239.093 37.2793 238.776 37.3611 238.527 37.5248C238.285 37.6884 238.144 37.9339 238.105 38.2612H237.251C237.283 37.7244 237.499 37.3121 237.899 37.024C238.298 36.736 238.809 36.592 239.431 36.592C240.059 36.592 240.57 36.7622 240.962 37.1026C241.355 37.443 241.551 37.8652 241.551 38.3692C241.551 38.8667 241.421 39.2627 241.159 39.5573C240.903 39.8519 240.55 40.0875 240.098 40.2643L238.851 40.765C238.537 40.896 238.301 41.0465 238.144 41.2167C237.994 41.3804 237.918 41.5964 237.918 41.8648V42.1593ZM246.413 36.6116V40.7159H247.483V41.3836H246.413V42.8761H245.656V41.3836H242.465V40.7847L245.696 36.6116H246.413ZM243.388 40.7847H245.676V37.839L243.388 40.7847ZM251.888 40.873C251.888 40.0941 251.38 39.7046 250.366 39.7046H248.706L248.971 36.7H252.398V37.407H249.718L249.551 39.1842C249.891 39.1253 250.215 39.0958 250.523 39.0958C251.197 39.0958 251.727 39.2464 252.113 39.5475C252.5 39.8421 252.693 40.2905 252.693 40.8927C252.693 41.4949 252.49 41.9957 252.084 42.395C251.678 42.7877 251.154 42.9841 250.513 42.9841C249.871 42.9841 249.348 42.8237 248.942 42.503C248.536 42.1757 248.333 41.7273 248.333 41.1578H249.109C249.109 41.6946 249.384 42.0448 249.934 42.2084C250.104 42.2542 250.29 42.2771 250.493 42.2771C250.912 42.2771 251.249 42.1462 251.505 41.8844C251.76 41.616 251.888 41.2789 251.888 40.873ZM257.42 38.2612C257.308 37.6197 256.958 37.299 256.369 37.299C255.78 37.299 255.325 37.5412 255.004 38.0256C254.69 38.51 254.533 39.1711 254.533 40.009C254.533 40.3559 254.549 40.6439 254.582 40.873C254.621 40.2708 254.805 39.8355 255.132 39.5671C255.466 39.2922 255.891 39.1547 256.408 39.1547C256.926 39.1547 257.371 39.338 257.744 39.7046C258.117 40.0646 258.303 40.5294 258.303 41.0989C258.303 41.6618 258.11 42.12 257.724 42.4735C257.338 42.8205 256.831 42.9939 256.202 42.9939C255.469 42.9939 254.877 42.6994 254.425 42.1102C253.973 41.5211 253.748 40.7487 253.748 39.793C253.748 38.8307 253.977 38.0583 254.435 37.4757C254.893 36.8866 255.518 36.592 256.31 36.592C256.86 36.592 257.308 36.7458 257.655 37.0535C258.002 37.3611 258.202 37.7637 258.254 38.2612H257.42ZM256.202 39.8421C255.836 39.8421 255.528 39.9599 255.279 40.1955C255.037 40.4246 254.916 40.7192 254.916 41.0792C254.916 41.4393 255.037 41.7306 255.279 41.9531C255.521 42.1691 255.829 42.2771 256.202 42.2771C256.575 42.2771 256.883 42.1691 257.125 41.9531C257.374 41.7371 257.498 41.4393 257.498 41.0596C257.498 40.6799 257.374 40.3821 257.125 40.1661C256.883 39.9501 256.575 39.8421 256.202 39.8421ZM263.313 36.7V37.4168L260.486 42.8761H259.445L262.41 37.4462H259.111V36.7H263.313ZM265.461 39.7537C264.643 39.3806 264.234 38.8733 264.234 38.2318C264.234 37.7408 264.437 37.3448 264.843 37.0437C265.248 36.7426 265.785 36.592 266.453 36.592C267.127 36.592 267.68 36.7524 268.112 37.0731C268.544 37.3939 268.76 37.8063 268.76 38.3103C268.76 38.6507 268.646 38.9551 268.417 39.2235C268.194 39.4919 267.864 39.6588 267.425 39.7242L267.592 39.7831C268.044 39.9533 268.39 40.1563 268.633 40.3919C268.875 40.621 268.996 40.9352 268.996 41.3345C268.996 41.832 268.773 42.2313 268.328 42.5324C267.89 42.8336 267.294 42.9841 266.541 42.9841C265.795 42.9841 265.189 42.8172 264.725 42.4833C264.26 42.1495 264.028 41.7306 264.028 41.2265C264.028 40.8207 264.159 40.4901 264.42 40.2348C264.689 39.9795 265.036 39.8191 265.461 39.7537ZM266.198 40.0384C265.785 40.0843 265.455 40.2152 265.206 40.4312C264.957 40.6407 264.833 40.9025 264.833 41.2167C264.833 41.5309 264.99 41.7862 265.304 41.9826C265.618 42.179 266.027 42.2771 266.531 42.2771C267.042 42.2771 267.445 42.192 267.739 42.0219C268.04 41.8517 268.191 41.6455 268.191 41.4033C268.191 41.1611 268.112 40.968 267.955 40.8239C267.798 40.6734 267.582 40.549 267.307 40.4508L266.198 40.0384ZM265.049 38.3299C265.049 38.5067 265.121 38.6605 265.265 38.7914C265.409 38.9158 265.615 39.0304 265.883 39.1351L266.6 39.41C266.993 39.3969 267.317 39.2955 267.572 39.1056C267.828 38.9093 267.955 38.6572 267.955 38.3496C267.955 38.0354 267.821 37.7834 267.553 37.5935C267.284 37.3972 266.937 37.299 266.512 37.299C266.086 37.299 265.736 37.3939 265.461 37.5837C265.186 37.767 265.049 38.0157 265.049 38.3299ZM272.297 36.592C272.631 36.592 272.949 36.664 273.25 36.808C273.551 36.952 273.81 37.1582 274.026 37.4266C274.497 38.0027 274.732 38.7522 274.732 39.6751C274.732 41.2789 274.287 42.3066 273.397 42.7583C273.089 42.9088 272.756 42.9841 272.396 42.9841C271.721 42.9841 271.188 42.8008 270.795 42.4342C270.402 42.0677 270.206 41.6062 270.206 41.0498H271.021C271.034 41.4229 271.152 41.7207 271.374 41.9433C271.597 42.1659 271.878 42.2771 272.219 42.2771C272.559 42.2771 272.834 42.215 273.044 42.0906C273.639 41.7175 273.937 40.8763 273.937 39.5671C273.937 39.2987 273.921 39.0565 273.888 38.8405C273.823 39.3708 273.63 39.7668 273.309 40.0286C272.995 40.2905 272.579 40.4214 272.062 40.4214C271.551 40.4214 271.109 40.2414 270.736 39.8813C270.363 39.5148 270.177 39.05 270.177 38.4871C270.177 37.9176 270.37 37.4593 270.756 37.1124C271.142 36.7655 271.656 36.592 272.297 36.592ZM273.191 37.6426C272.949 37.4201 272.641 37.3088 272.268 37.3088C271.895 37.3088 271.587 37.4168 271.345 37.6328C271.103 37.8488 270.982 38.1467 270.982 38.5263C270.982 38.906 271.103 39.2038 271.345 39.4198C271.594 39.6359 271.901 39.7439 272.268 39.7439C272.641 39.7439 272.949 39.6293 273.191 39.4002C273.44 39.1646 273.564 38.8667 273.564 38.5067C273.564 38.1467 273.44 37.8586 273.191 37.6426Z" fill="#424143"/>
<path d="M230.564 65.989C230.41 65.9283 230.289 65.898 230.2 65.898C230.037 65.898 229.908 65.9377 229.815 66.017C229.722 66.0963 229.675 66.2363 229.675 66.437V66.941H230.368V67.319H229.675V70.287H229.129V67.319H228.576V66.941H229.129V66.43C229.129 66.0987 229.22 65.856 229.402 65.702C229.584 65.5433 229.794 65.464 230.032 65.464C230.27 65.464 230.48 65.4943 230.662 65.555L230.564 65.989ZM233.411 68.117C233.411 67.8137 233.348 67.5967 233.222 67.466C233.096 67.3353 232.912 67.27 232.669 67.27C232.431 67.27 232.238 67.319 232.088 67.417C231.944 67.5103 231.871 67.6597 231.871 67.865H231.262C231.262 67.3517 231.538 67.0343 232.088 66.913C232.256 66.8757 232.438 66.857 232.634 66.857C233.05 66.857 233.374 66.962 233.607 67.172C233.841 67.382 233.957 67.7017 233.957 68.131V70.287H233.481L233.425 69.727C233.22 70.1517 232.849 70.364 232.312 70.364C231.953 70.364 231.664 70.2637 231.444 70.063C231.23 69.8623 231.122 69.6127 231.122 69.314C231.122 69.0153 231.241 68.782 231.479 68.614C231.722 68.446 232.023 68.362 232.382 68.362C232.742 68.362 233.085 68.4227 233.411 68.544V68.117ZM233.411 68.894C233.08 68.8007 232.791 68.754 232.543 68.754C232.296 68.754 232.095 68.7983 231.941 68.887C231.787 68.9757 231.71 69.1157 231.71 69.307C231.71 69.727 231.948 69.937 232.424 69.937C232.695 69.937 232.926 69.8413 233.117 69.65C233.313 69.454 233.411 69.202 233.411 68.894ZM236.257 68.516L235.809 68.88V70.287H235.256V65.52H235.809V68.292L237.426 66.941H238.196L236.656 68.194L238.273 70.287H237.594L236.257 68.516ZM240.362 69.916C240.824 69.916 241.088 69.713 241.153 69.307H241.72C241.669 69.643 241.52 69.9043 241.272 70.091C241.03 70.273 240.726 70.364 240.362 70.364C239.914 70.364 239.55 70.2053 239.27 69.888C238.99 69.566 238.85 69.139 238.85 68.607C238.85 68.075 238.99 67.6503 239.27 67.333C239.555 67.0157 239.931 66.857 240.397 66.857C240.869 66.857 241.219 67.039 241.447 67.403C241.681 67.767 241.762 68.2103 241.692 68.733H239.403C239.403 69.0783 239.487 69.363 239.655 69.587C239.823 69.8063 240.059 69.916 240.362 69.916ZM240.768 67.382C240.661 67.326 240.53 67.298 240.376 67.298C240.092 67.298 239.865 67.396 239.697 67.592C239.534 67.7833 239.438 68.0237 239.41 68.313H241.195C241.195 67.8463 241.053 67.536 240.768 67.382ZM242.796 65.898H243.377L243.314 69.055H242.866L242.796 65.898ZM243.083 70.35C242.966 70.35 242.868 70.3127 242.789 70.238C242.714 70.1587 242.677 70.0653 242.677 69.958C242.677 69.846 242.714 69.7527 242.789 69.678C242.868 69.5987 242.966 69.559 243.083 69.559C243.204 69.559 243.305 69.5987 243.384 69.678C243.468 69.7527 243.51 69.846 243.51 69.958C243.51 70.0653 243.468 70.1587 243.384 70.238C243.305 70.3127 243.204 70.35 243.083 70.35Z" fill="#EF3D3C"/>
<path opacity="0.3" d="M235.49 62.7099C239.152 62.7099 242.12 59.7416 242.12 56.08C242.12 52.4183 239.152 49.45 235.49 49.45C231.828 49.45 228.86 52.4183 228.86 56.08C228.86 59.7416 231.828 62.7099 235.49 62.7099Z" fill="#ED2024"/>
<path d="M235.49 60.7699C238.08 60.7699 240.18 58.6701 240.18 56.0799C240.18 53.4897 238.08 51.3899 235.49 51.3899C232.9 51.3899 230.8 53.4897 230.8 56.0799C230.8 58.6701 232.9 60.7699 235.49 60.7699Z" fill="#EF3D3C"/>
<path d="M237.36 53.48L233.62 58.69" stroke="white" stroke-width="0.75" stroke-miterlimit="10" stroke-linecap="round" stroke-linejoin="round"/>
<path d="M233.62 53.48L237.36 58.69" stroke="white" stroke-width="0.75" stroke-miterlimit="10" stroke-linecap="round" stroke-linejoin="round"/>
</g>
<defs>
<clipPath id="clip0">
<rect width="406.9" height="91.39" fill="white"/>
</clipPath>
</defs>
</svg>
