<svg width="374" height="84" viewBox="0 0 374 84" fill="none" xmlns="http://www.w3.org/2000/svg">
<path d="M374 84H0V4.59569C0 2.05887 2.05888 0 4.59572 0H369.404C371.941 0 374 2.05887 374 4.59569V84Z" fill="#58B68D"/>
<path d="M374 84.0001H26.0024V18.8332C26.0024 16.6089 27.804 14.8074 30.0283 14.8074H374V84.0001Z" fill="white"/>
<path d="M179.941 38.2268L180.244 65.9848C180.254 66.812 179.592 67.483 178.765 67.4921L134.885 67.9701C134.057 67.9793 133.386 67.3175 133.377 66.4903L133.074 38.7323C133.074 38.5485 133.102 38.3647 133.166 38.1992C133.368 37.6385 133.91 37.2341 134.545 37.2249L178.425 36.747C179.059 36.7378 179.61 37.133 179.831 37.6937C179.904 37.8591 179.941 38.043 179.941 38.2268Z" fill="#FFCF01"/>
<path d="M135.372 65.9112L155.042 53.4018C156.034 52.7676 157.303 52.7492 158.314 53.3558L178.59 65.4425L158.691 51.8668C157.578 51.058 156.062 51.0763 154.968 51.9036L135.372 65.9112Z" fill="#F19228"/>
<path d="M179.831 37.8592L156.687 54.9736L133.175 38.3648C133.377 37.703 133.92 37.2342 134.554 37.225L178.434 36.7471C179.068 36.7471 179.61 37.2066 179.831 37.8592Z" fill="#FFDD46"/>
<path d="M134.636 39.4032L155.041 53.7601C156.053 54.477 157.312 54.4679 158.314 53.7417L178.296 39.1274L158.727 55.4697C157.633 56.444 156.126 56.4624 155.005 55.5065L134.636 39.4032Z" fill="#F19228"/>
<path d="M189.564 37.4193C190.721 32.6016 187.753 27.7583 182.936 26.6014C178.118 25.4446 173.275 28.4122 172.118 33.2299C170.961 38.0476 173.928 42.8909 178.746 44.0478C183.564 45.2047 188.407 42.237 189.564 37.4193Z" fill="#EF4F8E"/>
<path d="M180.476 37.9541H182.623V30.3536H180.908L178.363 32.0574L179.204 33.5398L180.476 32.7654V37.9541Z" fill="white"/>
<path d="M125.417 36.7563H71.5923V42.8502H125.417V36.7563Z" fill="#F1F2F2"/>
<path d="M125.417 45.9475H84.7268V52.0414H125.417V45.9475Z" fill="#F1F2F2"/>
<path d="M125.417 55.1389H93.8723V61.2328H125.417V55.1389Z" fill="#F1F2F2"/>
<path d="M191.21 52.2254C191.21 52.2254 252.232 50.6904 279.291 32.5742" stroke="#BCBEC0" stroke-miterlimit="10" stroke-linecap="round"/>
<path d="M273.859 31.3335L279.751 32.1331L279.641 38.08" stroke="#BCBEC0" stroke-miterlimit="10" stroke-linecap="round"/>
<path d="M191.21 52.4736C191.21 52.4736 252.232 54.0086 279.291 72.1248" stroke="#BCBEC0" stroke-miterlimit="10" stroke-linecap="round"/>
<path d="M273.859 73.3655L279.751 72.5567L279.641 66.6099" stroke="#BCBEC0" stroke-miterlimit="10" stroke-linecap="round"/>
<path d="M303.75 61.9131H296.397C295.762 61.9131 295.257 62.4278 295.257 63.0528V77.952C295.257 78.5862 295.772 79.0918 296.397 79.0918H303.75C304.384 79.0918 304.889 78.577 304.889 77.952V63.0528C304.889 62.4186 304.384 61.9131 303.75 61.9131Z" fill="#526D83"/>
<path d="M296.204 76.7664V63.2642C296.204 63.255 296.213 63.2458 296.222 63.2458H303.924C303.934 63.2458 303.943 63.255 303.943 63.2642V76.7572C303.943 76.7664 303.934 76.7756 303.924 76.7756H296.222C296.213 76.7847 296.204 76.7756 296.204 76.7664Z" fill="#FFFFFA"/>
<path d="M300.882 77.9795C300.882 77.5383 300.523 77.1707 300.073 77.1707C299.632 77.1707 299.264 77.5291 299.264 77.9795C299.264 78.4207 299.623 78.7883 300.073 78.7883C300.523 78.7883 300.882 78.4299 300.882 77.9795Z" fill="#FFFFFA"/>
<path d="M301.222 62.4646H298.942C298.878 62.4646 298.823 62.5197 298.823 62.5841V62.6117C298.823 62.676 298.878 62.7312 298.942 62.7312H301.222C301.286 62.7312 301.341 62.676 301.341 62.6117V62.5841C301.341 62.5197 301.286 62.4646 301.222 62.4646Z" fill="#FFFFFA"/>
<path d="M302.491 71.27L301.59 73.2186L303.437 71.9042L302.491 71.27Z" fill="#FCB216"/>
<path d="M304.577 72.3914C306.912 72.3914 308.805 70.4984 308.805 68.1633C308.805 65.8283 306.912 63.9353 304.577 63.9353C302.242 63.9353 300.349 65.8283 300.349 68.1633C300.349 70.4984 302.242 72.3914 304.577 72.3914Z" fill="#FCB216"/>
<path d="M303.207 68.1633C303.207 67.9703 303.051 67.8232 302.867 67.8232C302.674 67.8232 302.527 67.9795 302.527 68.1633C302.527 68.3563 302.684 68.5034 302.867 68.5034C303.051 68.5034 303.207 68.3472 303.207 68.1633Z" fill="white"/>
<path d="M304.917 68.1633C304.917 67.9703 304.761 67.8232 304.577 67.8232C304.384 67.8232 304.237 67.9795 304.237 68.1633C304.237 68.3563 304.393 68.5034 304.577 68.5034C304.761 68.5034 304.917 68.3472 304.917 68.1633Z" fill="white"/>
<path d="M306.296 68.5034C306.483 68.5034 306.636 68.3511 306.636 68.1633C306.636 67.9755 306.483 67.8232 306.296 67.8232C306.108 67.8232 305.956 67.9755 305.956 68.1633C305.956 68.3511 306.108 68.5034 306.296 68.5034Z" fill="white"/>
<path d="M303.75 22.7395H296.397C295.762 22.7395 295.257 23.2542 295.257 23.8792V38.7785C295.257 39.4127 295.772 39.9182 296.397 39.9182H303.75C304.384 39.9182 304.889 39.4035 304.889 38.7785V23.8792C304.889 23.245 304.384 22.7395 303.75 22.7395Z" fill="#526D83"/>
<path d="M296.204 37.5928V24.0906C296.204 24.0815 296.213 24.0723 296.222 24.0723H303.924C303.934 24.0723 303.943 24.0815 303.943 24.0906V37.5928C303.943 37.602 303.934 37.6112 303.924 37.6112H296.222C296.213 37.6112 296.204 37.602 296.204 37.5928Z" fill="#FFFFFA"/>
<path d="M300.882 38.8059C300.882 38.3647 300.523 37.9971 300.073 37.9971C299.632 37.9971 299.264 38.3555 299.264 38.8059C299.264 39.2563 299.623 39.6147 300.073 39.6147C300.523 39.6147 300.882 39.2563 300.882 38.8059Z" fill="#FFFFFA"/>
<path d="M301.222 23.291H298.942C298.878 23.291 298.823 23.3462 298.823 23.4105V23.4381C298.823 23.5024 298.878 23.5576 298.942 23.5576H301.222C301.286 23.5576 301.341 23.5024 301.341 23.4381V23.4105C301.341 23.3462 301.286 23.291 301.222 23.291Z" fill="#FFFFFA"/>
<path d="M302.491 32.0964L301.59 34.045L303.437 32.7306L302.491 32.0964Z" fill="#FCB216"/>
<path d="M304.577 33.2178C306.912 33.2178 308.805 31.3248 308.805 28.9898C308.805 26.6547 306.912 24.7617 304.577 24.7617C302.242 24.7617 300.349 26.6547 300.349 28.9898C300.349 31.3248 302.242 33.2178 304.577 33.2178Z" fill="#FCB216"/>
<path d="M303.207 28.9897C303.207 28.7967 303.051 28.6497 302.867 28.6497C302.674 28.6497 302.527 28.8059 302.527 28.9897C302.527 29.1828 302.684 29.3298 302.867 29.3298C303.051 29.3298 303.207 29.1736 303.207 28.9897Z" fill="white"/>
<path d="M304.917 28.9897C304.917 28.7967 304.761 28.6497 304.577 28.6497C304.384 28.6497 304.237 28.8059 304.237 28.9897C304.237 29.1828 304.393 29.3298 304.577 29.3298C304.761 29.3298 304.917 29.1736 304.917 28.9897Z" fill="white"/>
<path d="M306.296 29.3298C306.483 29.3298 306.636 29.1776 306.636 28.9897C306.636 28.8019 306.483 28.6497 306.296 28.6497C306.108 28.6497 305.956 28.8019 305.956 28.9897C305.956 29.1776 306.108 29.3298 306.296 29.3298Z" fill="white"/>
<path d="M260.201 47.887C257.673 47.887 255.614 49.9458 255.614 52.4735C255.614 55.0011 257.673 57.06 260.201 57.06C262.728 57.06 264.787 55.0011 264.787 52.4735C264.787 49.9458 262.728 47.887 260.201 47.887ZM260.201 49.1002C260.881 49.1002 261.506 49.3024 262.039 49.6517L257.526 54.5231C257.085 53.9533 256.828 53.2455 256.828 52.4735C256.828 50.6076 258.344 49.1002 260.201 49.1002ZM260.201 55.8375C259.548 55.8375 258.942 55.6537 258.427 55.332L262.921 50.4789C263.326 51.0396 263.574 51.7198 263.574 52.4643C263.574 54.3301 262.057 55.8375 260.201 55.8375Z" fill="#EF4563"/>
<path opacity="0.3" d="M260.201 57.0507C262.729 57.0507 264.787 54.9918 264.787 52.4642C264.787 51.1131 264.199 49.8998 263.262 49.0542L256.956 55.7088C257.793 56.5452 258.932 57.0507 260.201 57.0507ZM263.574 52.4734C263.574 54.3301 262.058 55.8466 260.201 55.8466C259.548 55.8466 258.942 55.6628 258.427 55.3411L262.922 50.4881C263.326 51.0395 263.574 51.7289 263.574 52.4734Z" fill="#0A6DA4"/>
</svg>
