<?xml version="1.0" encoding="utf-8"?>
<!-- Generator: Adobe Illustrator 24.1.2, SVG Export Plug-In . SVG Version: 6.00 Build 0)  -->
<svg version="1.1" id="Layer_1" xmlns="http://www.w3.org/2000/svg" xmlns:xlink="http://www.w3.org/1999/xlink" x="0px" y="0px"
	 viewBox="0 0 406.9 91.39" style="enable-background:new 0 0 406.9 91.39;" xml:space="preserve">
<style type="text/css">
	.st0{fill:#52B68D;}
	.st1{fill:#FFFFFF;}
	.st2{opacity:0.6;fill:#54B68D;}
	.st3{opacity:0.2;fill:#54B68D;}
	.st4{opacity:0.4;fill:#406DAD;}
	.st5{opacity:0.1;fill:#406DAD;}
	.st6{fill:#406DAD;}
</style>
<path class="st0" d="M407.27,91.28H0.36V4.89c0-2.76,2.24-5,5-5h396.9c2.76,0,5,2.24,5,5V91.28z"/>
<path class="st1" d="M407.12,91.22H28.51v-70.9c0-2.42,1.96-4.38,4.38-4.38h374.24V91.22z"/>
<circle class="st2" cx="75.04" cy="65.93" r="13.23"/>
<rect x="101.02" y="54.31" class="st3" width="90.28" height="10"/>
<rect x="101.02" y="67.31" class="st3" width="110.54" height="10"/>
<circle class="st4" cx="236.9" cy="39.47" r="13.23"/>
<rect x="262.88" y="27.85" class="st5" width="90.28" height="10"/>
<rect x="262.88" y="40.85" class="st5" width="110.54" height="10"/>
<circle class="st4" cx="336.23" cy="205.25" r="11.19"/>
<circle class="st6" cx="336.23" cy="205.25" r="5.92"/>
</svg>
